<mxfile host="app.diagrams.net" agent="Mozilla/5.0 (Windows NT 10.0; Win64; x64) AppleWebKit/537.36 (KHTML, like Gecko) Chrome/136.0.0.0 Safari/537.36" version="27.0.3">
  <diagram name="Page-1" id="H9mCC4LKSI06X5eU0nQ4">
    <mxGraphModel dx="1575" dy="263" grid="1" gridSize="10" guides="1" tooltips="1" connect="1" arrows="1" fold="1" page="1" pageScale="1" pageWidth="1100" pageHeight="1700" math="0" shadow="0">
      <root>
        <mxCell id="0" />
        <mxCell id="1" parent="0" />
        <mxCell id="bBNReim9IivtYAumU8x--1" style="edgeStyle=orthogonalEdgeStyle;rounded=0;orthogonalLoop=1;jettySize=auto;html=1;" parent="1" edge="1">
          <mxGeometry relative="1" as="geometry">
            <mxPoint y="653" as="targetPoint" />
            <mxPoint x="310" y="653" as="sourcePoint" />
            <Array as="points">
              <mxPoint x="180" y="653" />
              <mxPoint x="180" y="653" />
            </Array>
          </mxGeometry>
        </mxCell>
        <mxCell id="bBNReim9IivtYAumU8x--2" style="edgeStyle=orthogonalEdgeStyle;rounded=0;orthogonalLoop=1;jettySize=auto;html=1;" parent="1" edge="1">
          <mxGeometry relative="1" as="geometry">
            <mxPoint y="812" as="targetPoint" />
            <mxPoint x="310" y="812" as="sourcePoint" />
          </mxGeometry>
        </mxCell>
        <mxCell id="bBNReim9IivtYAumU8x--3" style="edgeStyle=orthogonalEdgeStyle;rounded=0;orthogonalLoop=1;jettySize=auto;html=1;" parent="1" edge="1">
          <mxGeometry relative="1" as="geometry">
            <mxPoint x="1040" y="1422" as="targetPoint" />
            <mxPoint x="620" y="982" as="sourcePoint" />
            <Array as="points">
              <mxPoint x="620" y="1682" />
              <mxPoint x="1040" y="1682" />
            </Array>
          </mxGeometry>
        </mxCell>
        <mxCell id="bBNReim9IivtYAumU8x--4" value="" style="rounded=1;whiteSpace=wrap;html=1;absoluteArcSize=1;arcSize=81;strokeWidth=2;fontFamily=Lucida Console;fontSize=15;" parent="1" vertex="1">
          <mxGeometry x="321" y="491" width="509" height="481" as="geometry" />
        </mxCell>
        <mxCell id="bBNReim9IivtYAumU8x--5" value="" style="line;strokeWidth=2;rotatable=0;dashed=0;labelPosition=right;align=left;verticalAlign=middle;spacingTop=0;spacingLeft=6;points=[];portConstraint=eastwest;fontFamily=Lucida Console;fontSize=15;" parent="1" vertex="1">
          <mxGeometry x="321" y="561" width="509" height="10" as="geometry" />
        </mxCell>
        <mxCell id="bBNReim9IivtYAumU8x--6" value="&lt;font style=&quot;font-size: 26px;&quot;&gt;0&lt;/font&gt;" style="text;html=1;align=center;verticalAlign=middle;resizable=0;points=[];autosize=1;strokeColor=none;fillColor=none;fontFamily=Lucida Console;fontSize=15;" parent="1" vertex="1">
          <mxGeometry x="560" y="522" width="40" height="40" as="geometry" />
        </mxCell>
        <mxCell id="bBNReim9IivtYAumU8x--7" value="&lt;p align=&quot;center&quot; class=&quot;MsoNormal&quot;&gt;&lt;b&gt;&lt;span style=&quot;line-height: 107%;&quot;&gt;&lt;font style=&quot;font-size: 28px;&quot; face=&quot;Lucida Console&quot;&gt;Cloud-Based Scholarship&amp;nbsp;&lt;/font&gt;&lt;/span&gt;&lt;/b&gt;&lt;/p&gt;&lt;p align=&quot;center&quot; class=&quot;MsoNormal&quot;&gt;&lt;font style=&quot;font-size: 28px;&quot;&gt;&lt;b&gt;&lt;span style=&quot;line-height: 107%;&quot;&gt;&lt;font style=&quot;&quot; face=&quot;Lucida Console&quot;&gt;Management and&amp;nbsp;&lt;/font&gt;&lt;/span&gt;&lt;/b&gt;&lt;b style=&quot;background-color: transparent; color: light-dark(rgb(0, 0, 0), rgb(255, 255, 255));&quot;&gt;&lt;span style=&quot;line-height: 107%;&quot;&gt;&lt;font style=&quot;&quot; face=&quot;Lucida Console&quot;&gt;Monitoring&amp;nbsp;&lt;/font&gt;&lt;/span&gt;&lt;/b&gt;&lt;/font&gt;&lt;/p&gt;&lt;p align=&quot;center&quot; class=&quot;MsoNormal&quot;&gt;&lt;font style=&quot;font-size: 28px;&quot;&gt;&lt;font style=&quot;&quot;&gt;&lt;b style=&quot;background-color: transparent; color: light-dark(rgb(0, 0, 0), rgb(255, 255, 255));&quot;&gt;&lt;span style=&quot;line-height: 107%;&quot;&gt;&lt;font style=&quot;&quot; face=&quot;Lucida Console&quot;&gt;System&amp;nbsp;&lt;/font&gt;&lt;/span&gt;&lt;/b&gt;&lt;/font&gt;&lt;b style=&quot;background-color: transparent; color: light-dark(rgb(0, 0, 0), rgb(255, 255, 255));&quot;&gt;&lt;span style=&quot;line-height: 107%;&quot;&gt;&lt;font style=&quot;&quot; face=&quot;Lucida Console&quot;&gt;for GRC MLALAF&amp;nbsp;&lt;/font&gt;&lt;/span&gt;&lt;/b&gt;&lt;/font&gt;&lt;/p&gt;&lt;p align=&quot;center&quot; class=&quot;MsoNormal&quot;&gt;&lt;b style=&quot;background-color: transparent; color: light-dark(rgb(0, 0, 0), rgb(255, 255, 255));&quot;&gt;&lt;span style=&quot;line-height: 107%;&quot;&gt;&lt;font style=&quot;font-size: 28px;&quot; face=&quot;Lucida Console&quot;&gt;Scholarship&lt;/font&gt;&lt;/span&gt;&lt;/b&gt;&lt;/p&gt;" style="text;html=1;align=center;verticalAlign=middle;resizable=0;points=[];autosize=1;strokeColor=none;fillColor=none;fontFamily=Lucida Console;fontSize=15;fontStyle=1" parent="1" vertex="1">
          <mxGeometry x="340" y="672" width="480" height="200" as="geometry" />
        </mxCell>
        <mxCell id="bBNReim9IivtYAumU8x--8" style="edgeStyle=orthogonalEdgeStyle;rounded=0;orthogonalLoop=1;jettySize=auto;html=1;" parent="1" edge="1">
          <mxGeometry relative="1" as="geometry">
            <mxPoint x="800" y="982" as="targetPoint" />
            <mxPoint x="940" y="1282" as="sourcePoint" />
            <Array as="points">
              <mxPoint x="940" y="992" />
              <mxPoint x="800" y="992" />
            </Array>
          </mxGeometry>
        </mxCell>
        <mxCell id="bBNReim9IivtYAumU8x--9" style="edgeStyle=orthogonalEdgeStyle;rounded=0;orthogonalLoop=1;jettySize=auto;html=1;" parent="1" edge="1">
          <mxGeometry relative="1" as="geometry">
            <mxPoint x="840" y="852" as="targetPoint" />
            <mxPoint x="1040" y="1282" as="sourcePoint" />
            <Array as="points">
              <mxPoint x="1040" y="852" />
            </Array>
          </mxGeometry>
        </mxCell>
        <mxCell id="bBNReim9IivtYAumU8x--10" value="&lt;font style=&quot;font-size: 19px;&quot;&gt;Scholar&lt;/font&gt;" style="html=1;dashed=0;whiteSpace=wrap;shape=mxgraph.dfd.externalEntity;fontFamily=Lucida Console;fontSize=15;" parent="1" vertex="1">
          <mxGeometry x="831" y="1287" width="220" height="120" as="geometry" />
        </mxCell>
        <mxCell id="bBNReim9IivtYAumU8x--11" value="req. for Renewal" style="text;html=1;align=center;verticalAlign=middle;whiteSpace=wrap;rounded=0;fontFamily=Lucida Console;fontSize=15;" parent="1" vertex="1">
          <mxGeometry x="864" y="887" width="160" height="30" as="geometry" />
        </mxCell>
        <mxCell id="bBNReim9IivtYAumU8x--12" value="Chosen Sched,&lt;div&gt;Dept,Church&lt;/div&gt;" style="text;html=1;align=center;verticalAlign=middle;whiteSpace=wrap;rounded=0;fontFamily=Lucida Console;fontSize=15;" parent="1" vertex="1">
          <mxGeometry x="830" y="857" width="240" height="30" as="geometry" />
        </mxCell>
        <mxCell id="bBNReim9IivtYAumU8x--13" value="name, email" style="text;html=1;align=center;verticalAlign=middle;whiteSpace=wrap;rounded=0;fontFamily=Lucida Console;fontSize=15;" parent="1" vertex="1">
          <mxGeometry x="843.5" y="928" width="149" height="30" as="geometry" />
        </mxCell>
        <mxCell id="bBNReim9IivtYAumU8x--14" value="new username,&lt;div&gt;&lt;span style=&quot;background-color: transparent; color: light-dark(rgb(0, 0, 0), rgb(255, 255, 255));&quot;&gt;password&lt;/span&gt;&lt;/div&gt;" style="text;html=1;align=center;verticalAlign=middle;whiteSpace=wrap;rounded=0;fontFamily=Lucida Console;fontSize=15;" parent="1" vertex="1">
          <mxGeometry x="810.75" y="998" width="128.5" height="30" as="geometry" />
        </mxCell>
        <mxCell id="bBNReim9IivtYAumU8x--15" value="fellowship&lt;div&gt;&lt;span style=&quot;background-color: transparent; color: light-dark(rgb(0, 0, 0), rgb(255, 255, 255));&quot;&gt;attendance&lt;/span&gt;&lt;/div&gt;" style="text;html=1;align=center;verticalAlign=middle;whiteSpace=wrap;rounded=0;fontFamily=Lucida Console;fontSize=15;" parent="1" vertex="1">
          <mxGeometry x="860" y="958" width="96.5" height="30" as="geometry" />
        </mxCell>
        <mxCell id="bBNReim9IivtYAumU8x--16" value="Gratis duty &amp;amp; fellowship record" style="text;html=1;align=center;verticalAlign=middle;whiteSpace=wrap;rounded=0;fontFamily=Lucida Console;fontSize=15;" parent="1" vertex="1">
          <mxGeometry x="670" y="1599" width="290" height="30" as="geometry" />
        </mxCell>
        <mxCell id="bBNReim9IivtYAumU8x--17" value="grantslip(e certi)" style="text;html=1;align=center;verticalAlign=middle;whiteSpace=wrap;rounded=0;fontFamily=Lucida Console;fontSize=15;" parent="1" vertex="1">
          <mxGeometry x="653" y="1538" width="290" height="30" as="geometry" />
        </mxCell>
        <mxCell id="bBNReim9IivtYAumU8x--18" value="available dept." style="text;html=1;align=center;verticalAlign=middle;whiteSpace=wrap;rounded=0;fontFamily=Lucida Console;fontSize=15;" parent="1" vertex="1">
          <mxGeometry x="640" y="1519" width="290" height="30" as="geometry" />
        </mxCell>
        <mxCell id="bBNReim9IivtYAumU8x--19" value="approval of exit" style="text;html=1;align=center;verticalAlign=middle;whiteSpace=wrap;rounded=0;fontFamily=Lucida Console;fontSize=15;" parent="1" vertex="1">
          <mxGeometry x="631" y="1500" width="290" height="30" as="geometry" />
        </mxCell>
        <mxCell id="bBNReim9IivtYAumU8x--20" value="date of renewal,fellowship &amp;amp; grand fellowship" style="text;html=1;align=center;verticalAlign=middle;whiteSpace=wrap;rounded=0;fontFamily=Lucida Console;fontSize=15;" parent="1" vertex="1">
          <mxGeometry x="606" y="1660" width="440" height="30" as="geometry" />
        </mxCell>
        <mxCell id="bBNReim9IivtYAumU8x--21" value="violation hours" style="text;html=1;align=center;verticalAlign=middle;whiteSpace=wrap;rounded=0;fontFamily=Lucida Console;fontSize=15;" parent="1" vertex="1">
          <mxGeometry x="715" y="1559" width="160" height="30" as="geometry" />
        </mxCell>
        <mxCell id="bBNReim9IivtYAumU8x--22" value="Total Gratis Hours Required" style="text;html=1;align=center;verticalAlign=middle;whiteSpace=wrap;rounded=0;fontFamily=Lucida Console;fontSize=15;" parent="1" vertex="1">
          <mxGeometry x="661" y="1617" width="290" height="30" as="geometry" />
        </mxCell>
        <mxCell id="bBNReim9IivtYAumU8x--23" value="Account credentials (partial or full)" style="text;html=1;align=center;verticalAlign=middle;whiteSpace=wrap;rounded=0;fontFamily=Lucida Console;fontSize=15;" parent="1" vertex="1">
          <mxGeometry x="640" y="1638" width="350" height="30" as="geometry" />
        </mxCell>
        <mxCell id="bBNReim9IivtYAumU8x--24" value="QR code of Dept. &amp;amp; Church" style="text;html=1;align=center;verticalAlign=middle;whiteSpace=wrap;rounded=0;fontFamily=Lucida Console;fontSize=15;" parent="1" vertex="1">
          <mxGeometry x="620" y="1578" width="350" height="30" as="geometry" />
        </mxCell>
        <mxCell id="bBNReim9IivtYAumU8x--25" value="Semester&amp;nbsp;&lt;span style=&quot;background-color: transparent; color: light-dark(rgb(0, 0, 0), rgb(255, 255, 255));&quot;&gt;Id&lt;/span&gt;" style="text;html=1;align=center;verticalAlign=middle;whiteSpace=wrap;rounded=0;fontFamily=Lucida Console;fontSize=15;" parent="1" vertex="1">
          <mxGeometry x="715" y="1458" width="134" height="30" as="geometry" />
        </mxCell>
        <mxCell id="bBNReim9IivtYAumU8x--26" style="edgeStyle=orthogonalEdgeStyle;rounded=0;orthogonalLoop=1;jettySize=auto;html=1;" parent="1" edge="1">
          <mxGeometry relative="1" as="geometry">
            <mxPoint x="390" y="482" as="targetPoint" />
            <mxPoint x="180" y="252" as="sourcePoint" />
            <Array as="points">
              <mxPoint x="390" y="252" />
            </Array>
          </mxGeometry>
        </mxCell>
        <mxCell id="bBNReim9IivtYAumU8x--27" style="edgeStyle=orthogonalEdgeStyle;rounded=0;orthogonalLoop=1;jettySize=auto;html=1;exitX=0.636;exitY=0;exitDx=0;exitDy=0;exitPerimeter=0;" parent="1" source="bBNReim9IivtYAumU8x--28" edge="1">
          <mxGeometry relative="1" as="geometry">
            <mxPoint x="510" y="482" as="targetPoint" />
            <mxPoint x="90" y="132" as="sourcePoint" />
            <Array as="points">
              <mxPoint x="100" y="142" />
              <mxPoint x="100" y="132" />
              <mxPoint x="510" y="132" />
            </Array>
          </mxGeometry>
        </mxCell>
        <mxCell id="bBNReim9IivtYAumU8x--28" value="&lt;font style=&quot;font-size: 19px;&quot;&gt;Scholarship Admin&lt;/font&gt;" style="html=1;dashed=0;whiteSpace=wrap;shape=mxgraph.dfd.externalEntity;fontFamily=Lucida Console;fontSize=15;" parent="1" vertex="1">
          <mxGeometry x="-50" y="142" width="220" height="120" as="geometry" />
        </mxCell>
        <mxCell id="bBNReim9IivtYAumU8x--29" value="Semester Id" style="text;html=1;align=center;verticalAlign=middle;whiteSpace=wrap;rounded=0;fontFamily=Lucida Console;fontSize=15;" parent="1" vertex="1">
          <mxGeometry x="158" y="187" width="240" height="30" as="geometry" />
        </mxCell>
        <mxCell id="bBNReim9IivtYAumU8x--30" style="edgeStyle=orthogonalEdgeStyle;rounded=0;orthogonalLoop=1;jettySize=auto;html=1;" parent="1" edge="1">
          <mxGeometry relative="1" as="geometry">
            <mxPoint x="920" y="132" as="targetPoint" />
            <mxPoint x="670" y="482" as="sourcePoint" />
            <Array as="points">
              <mxPoint x="670" y="112" />
              <mxPoint x="920" y="112" />
            </Array>
          </mxGeometry>
        </mxCell>
        <mxCell id="bBNReim9IivtYAumU8x--31" style="edgeStyle=orthogonalEdgeStyle;rounded=0;orthogonalLoop=1;jettySize=auto;html=1;" parent="1" edge="1">
          <mxGeometry relative="1" as="geometry">
            <mxPoint x="730" y="482" as="targetPoint" />
            <mxPoint x="1030" y="272" as="sourcePoint" />
            <Array as="points">
              <mxPoint x="1030" y="452" />
              <mxPoint x="730" y="452" />
            </Array>
          </mxGeometry>
        </mxCell>
        <mxCell id="bBNReim9IivtYAumU8x--32" value="&lt;font style=&quot;font-size: 19px;&quot;&gt;Applicant&lt;/font&gt;" style="html=1;dashed=0;whiteSpace=wrap;shape=mxgraph.dfd.externalEntity;fontFamily=Lucida Console;fontSize=15;" parent="1" vertex="1">
          <mxGeometry x="831" y="140" width="220" height="120" as="geometry" />
        </mxCell>
        <mxCell id="bBNReim9IivtYAumU8x--33" style="edgeStyle=orthogonalEdgeStyle;rounded=0;orthogonalLoop=1;jettySize=auto;html=1;" parent="1" edge="1">
          <mxGeometry relative="1" as="geometry">
            <mxPoint x="1110" y="562" as="targetPoint" />
            <mxPoint x="840" y="522" as="sourcePoint" />
            <Array as="points">
              <mxPoint x="1110" y="522" />
              <mxPoint x="1110" y="562" />
            </Array>
          </mxGeometry>
        </mxCell>
        <mxCell id="bBNReim9IivtYAumU8x--34" value="&lt;font style=&quot;font-size: 19px;&quot;&gt;Validator&lt;/font&gt;" style="html=1;dashed=0;whiteSpace=wrap;shape=mxgraph.dfd.externalEntity;fontFamily=Lucida Console;fontSize=15;" parent="1" vertex="1">
          <mxGeometry x="960" y="567" width="220" height="120" as="geometry" />
        </mxCell>
        <mxCell id="bBNReim9IivtYAumU8x--35" value="&lt;font style=&quot;font-size: 19px;&quot;&gt;Dept Personnel&lt;/font&gt;" style="html=1;dashed=0;whiteSpace=wrap;shape=mxgraph.dfd.externalEntity;fontFamily=Lucida Console;fontSize=15;" parent="1" vertex="1">
          <mxGeometry x="-220" y="812" width="220" height="120" as="geometry" />
        </mxCell>
        <mxCell id="bBNReim9IivtYAumU8x--36" value="&lt;font style=&quot;font-size: 19px;&quot;&gt;Church Personnel&lt;/font&gt;" style="html=1;dashed=0;whiteSpace=wrap;shape=mxgraph.dfd.externalEntity;fontFamily=Lucida Console;fontSize=15;" parent="1" vertex="1">
          <mxGeometry x="-220" y="1072" width="220" height="120" as="geometry" />
        </mxCell>
        <mxCell id="bBNReim9IivtYAumU8x--37" value="&lt;font style=&quot;font-size: 19px;&quot;&gt;Dept Head&lt;/font&gt;" style="html=1;dashed=0;whiteSpace=wrap;shape=mxgraph.dfd.externalEntity;fontFamily=Lucida Console;fontSize=15;" parent="1" vertex="1">
          <mxGeometry x="-220" y="641" width="215" height="161" as="geometry" />
        </mxCell>
        <mxCell id="bBNReim9IivtYAumU8x--38" value="&lt;font style=&quot;font-size: 19px;&quot;&gt;Church Head&lt;/font&gt;" style="html=1;dashed=0;whiteSpace=wrap;shape=mxgraph.dfd.externalEntity;fontFamily=Lucida Console;fontSize=15;" parent="1" vertex="1">
          <mxGeometry x="-220" y="942" width="220" height="120" as="geometry" />
        </mxCell>
        <mxCell id="bBNReim9IivtYAumU8x--39" value="&lt;font style=&quot;font-size: 19px;&quot;&gt;monitoring&lt;/font&gt;" style="html=1;dashed=0;whiteSpace=wrap;shape=mxgraph.dfd.externalEntity;fontFamily=Lucida Console;fontSize=15;" parent="1" vertex="1">
          <mxGeometry x="-38" y="1287" width="220" height="120" as="geometry" />
        </mxCell>
        <mxCell id="bBNReim9IivtYAumU8x--40" value="available slot in dept" style="text;html=1;align=center;verticalAlign=middle;whiteSpace=wrap;rounded=0;fontFamily=Lucida Console;fontSize=15;" parent="1" vertex="1">
          <mxGeometry x="10" y="706.5" width="290" height="30" as="geometry" />
        </mxCell>
        <mxCell id="bBNReim9IivtYAumU8x--41" value="Account Credentials" style="text;html=1;align=center;verticalAlign=middle;whiteSpace=wrap;rounded=0;fontFamily=Lucida Console;fontSize=15;" parent="1" vertex="1">
          <mxGeometry x="10" y="646" width="290" height="30" as="geometry" />
        </mxCell>
        <mxCell id="bBNReim9IivtYAumU8x--42" value="name, email" style="text;html=1;align=center;verticalAlign=middle;whiteSpace=wrap;rounded=0;fontFamily=Lucida Console;fontSize=15;" parent="1" vertex="1">
          <mxGeometry y="726" width="290" height="30" as="geometry" />
        </mxCell>
        <mxCell id="bBNReim9IivtYAumU8x--43" value="new username, password" style="text;html=1;align=center;verticalAlign=middle;whiteSpace=wrap;rounded=0;fontFamily=Lucida Console;fontSize=15;" parent="1" vertex="1">
          <mxGeometry x="10" y="687" width="290" height="30" as="geometry" />
        </mxCell>
        <mxCell id="bBNReim9IivtYAumU8x--44" value="Dept name" style="text;html=1;align=center;verticalAlign=middle;whiteSpace=wrap;rounded=0;fontFamily=Lucida Console;fontSize=15;" parent="1" vertex="1">
          <mxGeometry y="745" width="290" height="30" as="geometry" />
        </mxCell>
        <mxCell id="bBNReim9IivtYAumU8x--45" value="List of Scholar in Dept" style="text;html=1;align=center;verticalAlign=middle;whiteSpace=wrap;rounded=0;fontFamily=Lucida Console;fontSize=15;" parent="1" vertex="1">
          <mxGeometry x="10" y="629" width="290" height="30" as="geometry" />
        </mxCell>
        <mxCell id="bBNReim9IivtYAumU8x--46" value="Account Credentials" style="text;html=1;align=center;verticalAlign=middle;whiteSpace=wrap;rounded=0;fontFamily=Lucida Console;fontSize=15;" parent="1" vertex="1">
          <mxGeometry x="81.5" y="1059" width="190" height="30" as="geometry" />
        </mxCell>
        <mxCell id="bBNReim9IivtYAumU8x--47" value="Info in Scholar scanned" style="text;html=1;align=center;verticalAlign=middle;whiteSpace=wrap;rounded=0;fontFamily=Lucida Console;fontSize=15;" parent="1" vertex="1">
          <mxGeometry x="57" y="1078" width="244" height="30" as="geometry" />
        </mxCell>
        <mxCell id="bBNReim9IivtYAumU8x--48" value="QR Code of Department" style="text;html=1;align=center;verticalAlign=middle;whiteSpace=wrap;rounded=0;fontFamily=Lucida Console;fontSize=15;" parent="1" vertex="1">
          <mxGeometry x="10" y="665" width="290" height="30" as="geometry" />
        </mxCell>
        <mxCell id="bBNReim9IivtYAumU8x--49" value="Gratis Attendace(time in &amp;amp; time out)" style="text;html=1;align=center;verticalAlign=middle;whiteSpace=wrap;rounded=0;fontFamily=Lucida Console;fontSize=14;" parent="1" vertex="1">
          <mxGeometry x="-10" y="890" width="327.5" height="30" as="geometry" />
        </mxCell>
        <mxCell id="bBNReim9IivtYAumU8x--50" value="warning of invalid scholar&amp;nbsp;" style="text;html=1;align=center;verticalAlign=middle;whiteSpace=wrap;rounded=0;fontFamily=Lucida Console;fontSize=15;" parent="1" vertex="1">
          <mxGeometry x="63.5" y="1096" width="250" height="30" as="geometry" />
        </mxCell>
        <mxCell id="bBNReim9IivtYAumU8x--51" value="name, email" style="text;html=1;align=center;verticalAlign=middle;whiteSpace=wrap;rounded=0;fontFamily=Lucida Console;fontSize=15;" parent="1" vertex="1">
          <mxGeometry x="18" y="848" width="290" height="30" as="geometry" />
        </mxCell>
        <mxCell id="bBNReim9IivtYAumU8x--52" value="new username, password" style="text;html=1;align=center;verticalAlign=middle;whiteSpace=wrap;rounded=0;fontFamily=Lucida Console;fontSize=15;" parent="1" vertex="1">
          <mxGeometry x="10" y="868" width="290" height="30" as="geometry" />
        </mxCell>
        <mxCell id="bBNReim9IivtYAumU8x--53" value="Account Credentials" style="text;html=1;align=center;verticalAlign=middle;whiteSpace=wrap;rounded=0;fontFamily=Lucida Console;fontSize=15;" parent="1" vertex="1">
          <mxGeometry x="67.5" y="917" width="201" height="30" as="geometry" />
        </mxCell>
        <mxCell id="bBNReim9IivtYAumU8x--54" value="List of Scholar in Church" style="text;html=1;align=center;verticalAlign=middle;whiteSpace=wrap;rounded=0;fontFamily=Lucida Console;fontSize=15;" parent="1" vertex="1">
          <mxGeometry x="51" y="939" width="235" height="30" as="geometry" />
        </mxCell>
        <mxCell id="bBNReim9IivtYAumU8x--55" value="QR Code of Church" style="text;html=1;align=center;verticalAlign=middle;whiteSpace=wrap;rounded=0;fontFamily=Lucida Console;fontSize=15;" parent="1" vertex="1">
          <mxGeometry x="76.5" y="958" width="162" height="30" as="geometry" />
        </mxCell>
        <mxCell id="bBNReim9IivtYAumU8x--56" value="Church name" style="text;html=1;align=center;verticalAlign=middle;whiteSpace=wrap;rounded=0;fontFamily=Lucida Console;fontSize=15;" parent="1" vertex="1">
          <mxGeometry x="115" y="1001" width="130" height="30" as="geometry" />
        </mxCell>
        <mxCell id="bBNReim9IivtYAumU8x--57" value="name, email" style="text;html=1;align=center;verticalAlign=middle;whiteSpace=wrap;rounded=0;fontFamily=Lucida Console;fontSize=15;" parent="1" vertex="1">
          <mxGeometry x="116.5" y="1019" width="125" height="30" as="geometry" />
        </mxCell>
        <mxCell id="bBNReim9IivtYAumU8x--58" value="OTP" style="text;html=1;align=center;verticalAlign=middle;whiteSpace=wrap;rounded=0;fontFamily=Lucida Console;fontSize=15;" parent="1" vertex="1">
          <mxGeometry x="248" y="230" width="60" height="30" as="geometry" />
        </mxCell>
        <mxCell id="bBNReim9IivtYAumU8x--59" value="OTP(email)" style="text;html=1;align=center;verticalAlign=middle;whiteSpace=wrap;rounded=0;fontFamily=Lucida Console;fontSize=15;" parent="1" vertex="1">
          <mxGeometry x="85" y="409" width="105" height="30" as="geometry" />
        </mxCell>
        <mxCell id="bBNReim9IivtYAumU8x--60" value="new username, password" style="text;html=1;align=center;verticalAlign=middle;whiteSpace=wrap;rounded=0;fontFamily=Lucida Console;fontSize=15;" parent="1" vertex="1">
          <mxGeometry x="151" y="109" width="290" height="30" as="geometry" />
        </mxCell>
        <mxCell id="bBNReim9IivtYAumU8x--61" value="new username, password" style="text;html=1;align=center;verticalAlign=middle;whiteSpace=wrap;rounded=0;fontFamily=Lucida Console;fontSize=15;" parent="1" vertex="1">
          <mxGeometry x="60.5" y="978" width="215" height="30" as="geometry" />
        </mxCell>
        <mxCell id="bBNReim9IivtYAumU8x--62" value="Account Credentials" style="text;html=1;align=center;verticalAlign=middle;whiteSpace=wrap;rounded=0;fontFamily=Lucida Console;fontSize=15;" parent="1" vertex="1">
          <mxGeometry x="18" y="789" width="290" height="30" as="geometry" />
        </mxCell>
        <mxCell id="bBNReim9IivtYAumU8x--63" value="Info in Scholar scanned" style="text;html=1;align=center;verticalAlign=middle;whiteSpace=wrap;rounded=0;fontFamily=Lucida Console;fontSize=15;" parent="1" vertex="1">
          <mxGeometry x="18" y="829" width="290" height="30" as="geometry" />
        </mxCell>
        <mxCell id="bBNReim9IivtYAumU8x--64" value="warning of invalid scholar&amp;nbsp;" style="text;html=1;align=center;verticalAlign=middle;whiteSpace=wrap;rounded=0;fontFamily=Lucida Console;fontSize=15;" parent="1" vertex="1">
          <mxGeometry x="43" y="809" width="250" height="30" as="geometry" />
        </mxCell>
        <mxCell id="bBNReim9IivtYAumU8x--65" value="Fellowship Attendance" style="text;html=1;align=center;verticalAlign=middle;whiteSpace=wrap;rounded=0;fontFamily=Lucida Console;fontSize=15;" parent="1" vertex="1">
          <mxGeometry x="77" y="1137" width="209" height="30" as="geometry" />
        </mxCell>
        <mxCell id="bBNReim9IivtYAumU8x--66" value="name, email" style="text;html=1;align=center;verticalAlign=middle;whiteSpace=wrap;rounded=0;fontFamily=Lucida Console;fontSize=15;" parent="1" vertex="1">
          <mxGeometry x="124" y="1217" width="110" height="30" as="geometry" />
        </mxCell>
        <mxCell id="bBNReim9IivtYAumU8x--67" value="new username, password" style="text;html=1;align=center;verticalAlign=middle;whiteSpace=wrap;rounded=0;fontFamily=Lucida Console;fontSize=15;" parent="1" vertex="1">
          <mxGeometry x="71.5" y="1158" width="220" height="30" as="geometry" />
        </mxCell>
        <mxCell id="bBNReim9IivtYAumU8x--68" value="List of Passed Applicant" style="text;html=1;align=center;verticalAlign=middle;whiteSpace=wrap;rounded=0;fontFamily=Lucida Console;fontSize=15;" parent="1" vertex="1">
          <mxGeometry x="-57.5" y="506" width="290" height="30" as="geometry" />
        </mxCell>
        <mxCell id="bBNReim9IivtYAumU8x--69" value="Reports" style="text;html=1;align=center;verticalAlign=middle;whiteSpace=wrap;rounded=0;fontFamily=Lucida Console;fontSize=15;" parent="1" vertex="1">
          <mxGeometry x="-38" y="429" width="290" height="30" as="geometry" />
        </mxCell>
        <mxCell id="bBNReim9IivtYAumU8x--70" value="Report" style="text;html=1;align=center;verticalAlign=middle;whiteSpace=wrap;rounded=0;fontFamily=Lucida Console;fontSize=15;" parent="1" vertex="1">
          <mxGeometry x="140" y="1036" width="75" height="30" as="geometry" />
        </mxCell>
        <mxCell id="bBNReim9IivtYAumU8x--71" value="Report" style="text;html=1;align=center;verticalAlign=middle;whiteSpace=wrap;rounded=0;fontFamily=Lucida Console;fontSize=15;" parent="1" vertex="1">
          <mxGeometry x="10" y="767" width="290" height="30" as="geometry" />
        </mxCell>
        <mxCell id="bBNReim9IivtYAumU8x--72" value="new username, password" style="text;html=1;align=center;verticalAlign=middle;whiteSpace=wrap;rounded=0;fontFamily=Lucida Console;fontSize=15;" parent="1" vertex="1">
          <mxGeometry x="245" y="1377" width="220" height="30" as="geometry" />
        </mxCell>
        <mxCell id="bBNReim9IivtYAumU8x--73" value="name, email" style="text;html=1;align=center;verticalAlign=middle;whiteSpace=wrap;rounded=0;fontFamily=Lucida Console;fontSize=15;" parent="1" vertex="1">
          <mxGeometry x="277.5" y="1338" width="150" height="30" as="geometry" />
        </mxCell>
        <mxCell id="bBNReim9IivtYAumU8x--74" value="Daily Report of monitored scholars" style="text;html=1;align=center;verticalAlign=middle;whiteSpace=wrap;rounded=0;fontFamily=Lucida Console;fontSize=15;" parent="1" vertex="1">
          <mxGeometry x="194" y="1399" width="310" height="30" as="geometry" />
        </mxCell>
        <mxCell id="bBNReim9IivtYAumU8x--75" value="Violation Report" style="text;html=1;align=center;verticalAlign=middle;whiteSpace=wrap;rounded=0;fontFamily=Lucida Console;fontSize=15;" parent="1" vertex="1">
          <mxGeometry x="268.5" y="1357" width="168" height="30" as="geometry" />
        </mxCell>
        <mxCell id="bBNReim9IivtYAumU8x--76" value="Account Credentials" style="text;html=1;align=center;verticalAlign=middle;whiteSpace=wrap;rounded=0;fontFamily=Lucida Console;fontSize=15;" parent="1" vertex="1">
          <mxGeometry x="226" y="1279" width="220" height="30" as="geometry" />
        </mxCell>
        <mxCell id="bBNReim9IivtYAumU8x--77" value="Info in Scholar scanned" style="text;html=1;align=center;verticalAlign=middle;whiteSpace=wrap;rounded=0;fontFamily=Lucida Console;fontSize=15;" parent="1" vertex="1">
          <mxGeometry x="228" y="1298" width="220" height="30" as="geometry" />
        </mxCell>
        <mxCell id="bBNReim9IivtYAumU8x--78" value="Gratis Attendace&lt;div&gt;(time in &amp;amp; time out)&lt;/div&gt;" style="text;html=1;align=center;verticalAlign=middle;whiteSpace=wrap;rounded=0;fontFamily=Lucida Console;fontSize=15;" parent="1" vertex="1">
          <mxGeometry x="860" y="820" width="190" height="30" as="geometry" />
        </mxCell>
        <mxCell id="bBNReim9IivtYAumU8x--79" value="new username, password" style="text;html=1;align=center;verticalAlign=middle;whiteSpace=wrap;rounded=0;fontFamily=Lucida Console;fontSize=15;" parent="1" vertex="1">
          <mxGeometry x="831" y="770" width="290" height="30" as="geometry" />
        </mxCell>
        <mxCell id="bBNReim9IivtYAumU8x--80" value="name, email" style="text;html=1;align=center;verticalAlign=middle;whiteSpace=wrap;rounded=0;fontFamily=Lucida Console;fontSize=15;" parent="1" vertex="1">
          <mxGeometry x="897" y="750" width="139" height="30" as="geometry" />
        </mxCell>
        <mxCell id="bBNReim9IivtYAumU8x--81" value="Report" style="text;html=1;align=center;verticalAlign=middle;whiteSpace=wrap;rounded=0;fontFamily=Lucida Console;fontSize=15;" parent="1" vertex="1">
          <mxGeometry x="916.5" y="706" width="100" height="30" as="geometry" />
        </mxCell>
        <mxCell id="bBNReim9IivtYAumU8x--82" value="Account Credentials" style="text;html=1;align=center;verticalAlign=middle;whiteSpace=wrap;rounded=0;fontFamily=Lucida Console;fontSize=15;" parent="1" vertex="1">
          <mxGeometry x="864" y="518" width="182" height="30" as="geometry" />
        </mxCell>
        <mxCell id="bBNReim9IivtYAumU8x--83" value="List of Applicants (with name, email, partial or Full &amp;amp; files)" style="text;html=1;align=center;verticalAlign=middle;whiteSpace=wrap;rounded=0;fontFamily=Lucida Console;fontSize=15;" parent="1" vertex="1">
          <mxGeometry x="841" y="485" width="289" height="30" as="geometry" />
        </mxCell>
        <mxCell id="bBNReim9IivtYAumU8x--84" value="List of Passed Applicants" style="text;html=1;align=center;verticalAlign=middle;whiteSpace=wrap;rounded=0;fontFamily=Lucida Console;fontSize=15;" parent="1" vertex="1">
          <mxGeometry x="831" y="790" width="290" height="30" as="geometry" />
        </mxCell>
        <mxCell id="bBNReim9IivtYAumU8x--85" value="name, email" style="text;html=1;align=center;verticalAlign=middle;whiteSpace=wrap;rounded=0;fontFamily=Lucida Console;fontSize=15;" parent="1" vertex="1">
          <mxGeometry x="801" y="384" width="120" height="30" as="geometry" />
        </mxCell>
        <mxCell id="bBNReim9IivtYAumU8x--86" value="soft copy requirements(files)" style="text;html=1;align=center;verticalAlign=middle;whiteSpace=wrap;rounded=0;fontFamily=Lucida Console;fontSize=15;" parent="1" vertex="1">
          <mxGeometry x="730" y="406" width="290" height="30" as="geometry" />
        </mxCell>
        <mxCell id="bBNReim9IivtYAumU8x--87" value="&lt;span class=&quot;_fadeIn_m1hgl_8&quot;&gt;Partial (&lt;/span&gt;&lt;span class=&quot;_fadeIn_m1hgl_8&quot;&gt;40%) &lt;/span&gt;&lt;span class=&quot;_fadeIn_m1hgl_8&quot;&gt;or &lt;/span&gt;&lt;span class=&quot;_fadeIn_m1hgl_8&quot;&gt;Full (&lt;/span&gt;&lt;span class=&quot;_fadeIn_m1hgl_8&quot;&gt;100%) Scho&lt;/span&gt;" style="text;html=1;align=center;verticalAlign=middle;whiteSpace=wrap;rounded=0;fontFamily=Lucida Console;fontSize=15;" parent="1" vertex="1">
          <mxGeometry x="716" y="429" width="320" height="30" as="geometry" />
        </mxCell>
        <mxCell id="bBNReim9IivtYAumU8x--88" value="rejection from validator(e.g.invalid docu)" style="text;html=1;align=center;verticalAlign=middle;whiteSpace=wrap;rounded=0;fontFamily=Lucida Console;fontSize=15;" parent="1" vertex="1">
          <mxGeometry x="622.25" y="47" width="389.5" height="30" as="geometry" />
        </mxCell>
        <mxCell id="bBNReim9IivtYAumU8x--89" value="rejection" style="text;html=1;align=center;verticalAlign=middle;whiteSpace=wrap;rounded=0;fontFamily=Lucida Console;fontSize=15;" parent="1" vertex="1">
          <mxGeometry x="906" y="728" width="130" height="30" as="geometry" />
        </mxCell>
        <mxCell id="bBNReim9IivtYAumU8x--90" value="Approval (from admin)" style="text;html=1;align=center;verticalAlign=middle;whiteSpace=wrap;rounded=0;fontFamily=Lucida Console;fontSize=15;" parent="1" vertex="1">
          <mxGeometry x="661" y="88" width="290" height="30" as="geometry" />
        </mxCell>
        <mxCell id="bBNReim9IivtYAumU8x--91" value="Account Credentials(as scho)" style="text;html=1;align=center;verticalAlign=middle;whiteSpace=wrap;rounded=0;fontFamily=Lucida Console;fontSize=15;" parent="1" vertex="1">
          <mxGeometry x="670" y="69" width="290" height="30" as="geometry" />
        </mxCell>
        <mxCell id="bBNReim9IivtYAumU8x--92" value="Approval (for application or exit)" style="text;html=1;align=center;verticalAlign=middle;whiteSpace=wrap;rounded=0;fontFamily=Lucida Console;fontSize=15;" parent="1" vertex="1">
          <mxGeometry x="106" y="69" width="330" height="30" as="geometry" />
        </mxCell>
        <mxCell id="bBNReim9IivtYAumU8x--93" value="&lt;span class=&quot;_fadeIn_m1hgl_8&quot;&gt;Scholarship &lt;/span&gt;&lt;span class=&quot;_fadeIn_m1hgl_8&quot;&gt;Slot &lt;/span&gt;&lt;span class=&quot;_fadeIn_m1hgl_8&quot;&gt;Limit&lt;/span&gt;" style="text;html=1;align=center;verticalAlign=middle;whiteSpace=wrap;rounded=0;fontFamily=Lucida Console;fontSize=15;" parent="1" vertex="1">
          <mxGeometry x="146" y="128" width="290" height="30" as="geometry" />
        </mxCell>
        <mxCell id="bBNReim9IivtYAumU8x--94" value="Total Gratis Hours Required" style="text;html=1;align=center;verticalAlign=middle;whiteSpace=wrap;rounded=0;fontFamily=Lucida Console;fontSize=15;" parent="1" vertex="1">
          <mxGeometry x="157" y="88" width="250" height="30" as="geometry" />
        </mxCell>
        <mxCell id="bBNReim9IivtYAumU8x--95" value="Fellowship Date" style="text;html=1;align=center;verticalAlign=middle;whiteSpace=wrap;rounded=0;fontFamily=Lucida Console;fontSize=15;" parent="1" vertex="1">
          <mxGeometry x="134" y="207" width="290" height="30" as="geometry" />
        </mxCell>
        <mxCell id="bBNReim9IivtYAumU8x--96" value="Fellowship Date" style="text;html=1;align=center;verticalAlign=middle;whiteSpace=wrap;rounded=0;fontFamily=Lucida Console;fontSize=15;" parent="1" vertex="1">
          <mxGeometry x="93.25" y="1117" width="173.5" height="30" as="geometry" />
        </mxCell>
        <mxCell id="bBNReim9IivtYAumU8x--97" value="Grand Fellowship Date" style="text;html=1;align=center;verticalAlign=middle;whiteSpace=wrap;rounded=0;fontFamily=Lucida Console;fontSize=15;" parent="1" vertex="1">
          <mxGeometry x="81.5" y="1177" width="200" height="30" as="geometry" />
        </mxCell>
        <mxCell id="bBNReim9IivtYAumU8x--98" value="QR code of Scho" style="text;html=1;align=center;verticalAlign=middle;whiteSpace=wrap;rounded=0;fontFamily=Lucida Console;fontSize=15;" parent="1" vertex="1">
          <mxGeometry x="716" y="1481" width="140" height="30" as="geometry" />
        </mxCell>
        <mxCell id="bBNReim9IivtYAumU8x--99" value="Total Fellowship,Gratis duty hours per scho" style="text;html=1;align=center;verticalAlign=middle;whiteSpace=wrap;rounded=0;fontFamily=Lucida Console;fontSize=15;" parent="1" vertex="1">
          <mxGeometry x="-125" y="607" width="400" height="30" as="geometry" />
        </mxCell>
        <mxCell id="bBNReim9IivtYAumU8x--100" value="Violation Hours" style="text;html=1;align=center;verticalAlign=middle;whiteSpace=wrap;rounded=0;fontFamily=Lucida Console;fontSize=15;" parent="1" vertex="1">
          <mxGeometry x="134" y="170" width="290" height="30" as="geometry" />
        </mxCell>
        <mxCell id="bBNReim9IivtYAumU8x--101" value="Exit request" style="text;html=1;align=center;verticalAlign=middle;whiteSpace=wrap;rounded=0;fontFamily=Lucida Console;fontSize=15;" parent="1" vertex="1">
          <mxGeometry x="830" y="909" width="176" height="30" as="geometry" />
        </mxCell>
        <mxCell id="bBNReim9IivtYAumU8x--102" value="Exit Request" style="text;html=1;align=center;verticalAlign=middle;whiteSpace=wrap;rounded=0;fontFamily=Lucida Console;fontSize=15;" parent="1" vertex="1">
          <mxGeometry x="-78" y="488" width="290" height="30" as="geometry" />
        </mxCell>
        <mxCell id="bBNReim9IivtYAumU8x--103" value="Caregroup Date" style="text;html=1;align=center;verticalAlign=middle;whiteSpace=wrap;rounded=0;fontFamily=Lucida Console;fontSize=15;" parent="1" vertex="1">
          <mxGeometry x="105.75" y="1197" width="143.5" height="30" as="geometry" />
        </mxCell>
        <mxCell id="bBNReim9IivtYAumU8x--104" value="&lt;span class=&quot;_fadeIn_m1hgl_8&quot;&gt;List &lt;/span&gt;&lt;span class=&quot;_fadeIn_m1hgl_8&quot;&gt;of &lt;/span&gt;&lt;span class=&quot;_fadeIn_m1hgl_8&quot;&gt;Scheduled &lt;/span&gt;&lt;span class=&quot;_fadeIn_m1hgl_8&quot;&gt;Care &lt;/span&gt;&lt;span class=&quot;_fadeIn_m1hgl_8&quot;&gt;Group &lt;/span&gt;&lt;span class=&quot;_fadeIn_m1hgl_8&quot;&gt;Dates&lt;/span&gt;" style="text;html=1;align=center;verticalAlign=middle;whiteSpace=wrap;rounded=0;fontFamily=Lucida Console;fontSize=15;" parent="1" vertex="1">
          <mxGeometry x="-113" y="589" width="325" height="30" as="geometry" />
        </mxCell>
        <mxCell id="bBNReim9IivtYAumU8x--105" value="Created Accounts(with corresponding roles)" style="text;html=1;align=center;verticalAlign=middle;whiteSpace=wrap;rounded=0;fontFamily=Lucida Console;fontSize=15;" parent="1" vertex="1">
          <mxGeometry x="49" y="9" width="410" height="30" as="geometry" />
        </mxCell>
        <mxCell id="bBNReim9IivtYAumU8x--106" value="Application Form" style="text;html=1;align=center;verticalAlign=middle;whiteSpace=wrap;rounded=0;fontFamily=Lucida Console;fontSize=15;" parent="1" vertex="1">
          <mxGeometry x="151" y="147" width="290" height="30" as="geometry" />
        </mxCell>
        <mxCell id="bBNReim9IivtYAumU8x--107" value="needed requirements for renewal or application" style="text;html=1;align=center;verticalAlign=middle;whiteSpace=wrap;rounded=0;fontFamily=Lucida Console;fontSize=15;" parent="1" vertex="1">
          <mxGeometry x="40" y="29" width="430" height="30" as="geometry" />
        </mxCell>
        <mxCell id="bBNReim9IivtYAumU8x--108" value="List of Qr codes per Dept &amp;amp; church" style="text;html=1;align=center;verticalAlign=middle;whiteSpace=wrap;rounded=0;fontFamily=Lucida Console;fontSize=14;" parent="1" vertex="1">
          <mxGeometry x="-65" y="529.5" width="340" height="27" as="geometry" />
        </mxCell>
        <mxCell id="bBNReim9IivtYAumU8x--109" value="&lt;span class=&quot;_fadeIn_m1hgl_8&quot;&gt;All &lt;/span&gt;&lt;span class=&quot;_fadeIn_m1hgl_8&quot;&gt;Created &lt;/span&gt;&lt;span class=&quot;_fadeIn_m1hgl_8&quot;&gt;Accounts – &lt;/span&gt;&lt;span class=&quot;_fadeIn_m1hgl_8&quot;&gt;Sorted &lt;/span&gt;&lt;span class=&quot;_fadeIn_m1hgl_8&quot;&gt;by &lt;/span&gt;&lt;span class=&quot;_fadeIn_m1hgl_8&quot;&gt;Role&lt;/span&gt;" style="text;html=1;align=center;verticalAlign=middle;whiteSpace=wrap;rounded=0;fontFamily=Lucida Console;fontSize=15;" parent="1" vertex="1">
          <mxGeometry x="-85" y="567" width="345" height="30" as="geometry" />
        </mxCell>
        <mxCell id="bBNReim9IivtYAumU8x--110" value="Available Dept." style="text;html=1;align=center;verticalAlign=middle;whiteSpace=wrap;rounded=0;fontFamily=Lucida Console;fontSize=15;" parent="1" vertex="1">
          <mxGeometry x="-49" y="469" width="290" height="30" as="geometry" />
        </mxCell>
        <mxCell id="bBNReim9IivtYAumU8x--111" value="Date of Grand Fellowship per Church" style="text;html=1;align=center;verticalAlign=middle;whiteSpace=wrap;rounded=0;fontFamily=Lucida Console;fontSize=15;" parent="1" vertex="1">
          <mxGeometry x="-80" y="549" width="350" height="30" as="geometry" />
        </mxCell>
        <mxCell id="bBNReim9IivtYAumU8x--112" value="List of Monitored Accounts" style="text;html=1;align=center;verticalAlign=middle;whiteSpace=wrap;rounded=0;fontFamily=Lucida Console;fontSize=15;" parent="1" vertex="1">
          <mxGeometry x="226" y="1320" width="240" height="30" as="geometry" />
        </mxCell>
        <mxCell id="bBNReim9IivtYAumU8x--113" value="&lt;span class=&quot;_fadeIn_m1hgl_8&quot;&gt;List &lt;/span&gt;&lt;span class=&quot;_fadeIn_m1hgl_8&quot;&gt;of &lt;/span&gt;&lt;span class=&quot;_fadeIn_m1hgl_8&quot;&gt;Grantslip &lt;/span&gt;&lt;span class=&quot;_fadeIn_m1hgl_8&quot;&gt;Recipients&lt;/span&gt;" style="text;html=1;align=center;verticalAlign=middle;whiteSpace=wrap;rounded=0;fontFamily=Lucida Console;fontSize=15;" parent="1" vertex="1">
          <mxGeometry x="30" y="449" width="290" height="30" as="geometry" />
        </mxCell>
        <mxCell id="bBNReim9IivtYAumU8x--114" value="I" style="text;html=1;align=center;verticalAlign=middle;whiteSpace=wrap;rounded=0;fontFamily=Lucida Console;fontSize=15;" parent="1" vertex="1">
          <mxGeometry x="770" y="177" width="50" height="30" as="geometry" />
        </mxCell>
        <mxCell id="bBNReim9IivtYAumU8x--115" style="edgeStyle=orthogonalEdgeStyle;rounded=0;orthogonalLoop=1;jettySize=auto;html=1;" parent="1" edge="1">
          <mxGeometry relative="1" as="geometry">
            <mxPoint x="330" y="482" as="sourcePoint" />
            <mxPoint x="40" y="272" as="targetPoint" />
            <Array as="points">
              <mxPoint x="40" y="472" />
            </Array>
          </mxGeometry>
        </mxCell>
        <mxCell id="bBNReim9IivtYAumU8x--116" style="edgeStyle=orthogonalEdgeStyle;rounded=0;orthogonalLoop=1;jettySize=auto;html=1;entryX=0.923;entryY=1.03;entryDx=0;entryDy=0;entryPerimeter=0;" parent="1" source="bBNReim9IivtYAumU8x--4" edge="1">
          <mxGeometry relative="1" as="geometry">
            <mxPoint x="320" y="522" as="sourcePoint" />
            <mxPoint x="21" y="272" as="targetPoint" />
            <Array as="points">
              <mxPoint x="21" y="492" />
            </Array>
          </mxGeometry>
        </mxCell>
        <mxCell id="bBNReim9IivtYAumU8x--117" style="edgeStyle=orthogonalEdgeStyle;rounded=0;orthogonalLoop=1;jettySize=auto;html=1;" parent="1" edge="1">
          <mxGeometry relative="1" as="geometry">
            <mxPoint x="310" y="592" as="sourcePoint" />
            <mxPoint x="-60" y="212" as="targetPoint" />
            <Array as="points">
              <mxPoint x="-90" y="592" />
              <mxPoint x="-90" y="212" />
            </Array>
          </mxGeometry>
        </mxCell>
        <mxCell id="bBNReim9IivtYAumU8x--118" style="edgeStyle=orthogonalEdgeStyle;rounded=0;orthogonalLoop=1;jettySize=auto;html=1;" parent="1" edge="1">
          <mxGeometry relative="1" as="geometry">
            <mxPoint x="310" y="612" as="sourcePoint" />
            <mxPoint x="-60" y="192" as="targetPoint" />
            <Array as="points">
              <mxPoint x="-110" y="612" />
              <mxPoint x="-110" y="192" />
            </Array>
          </mxGeometry>
        </mxCell>
        <mxCell id="bBNReim9IivtYAumU8x--119" style="edgeStyle=orthogonalEdgeStyle;rounded=0;orthogonalLoop=1;jettySize=auto;html=1;entryX=0.923;entryY=1.03;entryDx=0;entryDy=0;entryPerimeter=0;" parent="1" edge="1">
          <mxGeometry relative="1" as="geometry">
            <mxPoint x="310" y="532" as="sourcePoint" />
            <mxPoint x="-24" y="272" as="targetPoint" />
            <Array as="points">
              <mxPoint x="-24" y="532" />
            </Array>
          </mxGeometry>
        </mxCell>
        <mxCell id="bBNReim9IivtYAumU8x--120" style="edgeStyle=orthogonalEdgeStyle;rounded=0;orthogonalLoop=1;jettySize=auto;html=1;" parent="1" edge="1">
          <mxGeometry relative="1" as="geometry">
            <mxPoint x="310" y="632" as="sourcePoint" />
            <mxPoint x="-60" y="172" as="targetPoint" />
            <Array as="points">
              <mxPoint x="-130" y="632" />
              <mxPoint x="-130" y="172" />
            </Array>
          </mxGeometry>
        </mxCell>
        <mxCell id="bBNReim9IivtYAumU8x--121" style="edgeStyle=orthogonalEdgeStyle;rounded=0;orthogonalLoop=1;jettySize=auto;html=1;entryX=0.923;entryY=1.03;entryDx=0;entryDy=0;entryPerimeter=0;" parent="1" edge="1">
          <mxGeometry relative="1" as="geometry">
            <mxPoint x="310" y="512" as="sourcePoint" />
            <mxPoint y="272" as="targetPoint" />
            <Array as="points">
              <mxPoint y="512" />
            </Array>
          </mxGeometry>
        </mxCell>
        <mxCell id="bBNReim9IivtYAumU8x--122" style="edgeStyle=orthogonalEdgeStyle;rounded=0;orthogonalLoop=1;jettySize=auto;html=1;" parent="1" edge="1">
          <mxGeometry relative="1" as="geometry">
            <mxPoint x="310" y="572" as="sourcePoint" />
            <mxPoint x="-60" y="232" as="targetPoint" />
            <Array as="points">
              <mxPoint x="310" y="572" />
              <mxPoint x="-70" y="572" />
              <mxPoint x="-70" y="232" />
            </Array>
          </mxGeometry>
        </mxCell>
        <mxCell id="bBNReim9IivtYAumU8x--123" style="edgeStyle=orthogonalEdgeStyle;rounded=0;orthogonalLoop=1;jettySize=auto;html=1;" parent="1" edge="1">
          <mxGeometry relative="1" as="geometry">
            <mxPoint x="370" y="482" as="sourcePoint" />
            <mxPoint x="80" y="272" as="targetPoint" />
            <Array as="points">
              <mxPoint x="80" y="432" />
            </Array>
          </mxGeometry>
        </mxCell>
        <mxCell id="bBNReim9IivtYAumU8x--124" style="edgeStyle=orthogonalEdgeStyle;rounded=0;orthogonalLoop=1;jettySize=auto;html=1;entryX=0.923;entryY=1.03;entryDx=0;entryDy=0;entryPerimeter=0;" parent="1" edge="1">
          <mxGeometry relative="1" as="geometry">
            <mxPoint x="310" y="552" as="sourcePoint" />
            <mxPoint x="-48" y="274.5" as="targetPoint" />
            <Array as="points">
              <mxPoint x="-48" y="552" />
            </Array>
          </mxGeometry>
        </mxCell>
        <mxCell id="bBNReim9IivtYAumU8x--125" style="edgeStyle=orthogonalEdgeStyle;rounded=0;orthogonalLoop=1;jettySize=auto;html=1;" parent="1" edge="1">
          <mxGeometry relative="1" as="geometry">
            <mxPoint x="350" y="482" as="sourcePoint" />
            <mxPoint x="60" y="272" as="targetPoint" />
            <Array as="points">
              <mxPoint x="350" y="452" />
              <mxPoint x="60" y="452" />
            </Array>
          </mxGeometry>
        </mxCell>
        <mxCell id="bBNReim9IivtYAumU8x--126" style="edgeStyle=orthogonalEdgeStyle;rounded=0;orthogonalLoop=1;jettySize=auto;html=1;" parent="1" edge="1">
          <mxGeometry relative="1" as="geometry">
            <mxPoint x="410" y="482" as="targetPoint" />
            <mxPoint x="180" y="232" as="sourcePoint" />
            <Array as="points">
              <mxPoint x="410" y="232" />
            </Array>
          </mxGeometry>
        </mxCell>
        <mxCell id="bBNReim9IivtYAumU8x--127" style="edgeStyle=orthogonalEdgeStyle;rounded=0;orthogonalLoop=1;jettySize=auto;html=1;" parent="1" edge="1">
          <mxGeometry relative="1" as="geometry">
            <mxPoint x="430" y="482" as="targetPoint" />
            <mxPoint x="180" y="212" as="sourcePoint" />
            <Array as="points">
              <mxPoint x="430" y="212" />
            </Array>
          </mxGeometry>
        </mxCell>
        <mxCell id="bBNReim9IivtYAumU8x--128" style="edgeStyle=orthogonalEdgeStyle;rounded=0;orthogonalLoop=1;jettySize=auto;html=1;" parent="1" edge="1">
          <mxGeometry relative="1" as="geometry">
            <mxPoint x="450" y="482" as="targetPoint" />
            <mxPoint x="180" y="191" as="sourcePoint" />
            <Array as="points">
              <mxPoint x="450" y="191" />
            </Array>
          </mxGeometry>
        </mxCell>
        <mxCell id="bBNReim9IivtYAumU8x--129" style="edgeStyle=orthogonalEdgeStyle;rounded=0;orthogonalLoop=1;jettySize=auto;html=1;" parent="1" edge="1">
          <mxGeometry relative="1" as="geometry">
            <mxPoint x="470" y="482" as="targetPoint" />
            <mxPoint x="180" y="170" as="sourcePoint" />
            <Array as="points">
              <mxPoint x="470" y="170" />
            </Array>
          </mxGeometry>
        </mxCell>
        <mxCell id="bBNReim9IivtYAumU8x--130" style="edgeStyle=orthogonalEdgeStyle;rounded=0;orthogonalLoop=1;jettySize=auto;html=1;" parent="1" edge="1">
          <mxGeometry relative="1" as="geometry">
            <mxPoint x="490" y="482" as="targetPoint" />
            <mxPoint x="180" y="151" as="sourcePoint" />
            <Array as="points">
              <mxPoint x="490" y="151" />
            </Array>
          </mxGeometry>
        </mxCell>
        <mxCell id="bBNReim9IivtYAumU8x--131" style="edgeStyle=orthogonalEdgeStyle;rounded=0;orthogonalLoop=1;jettySize=auto;html=1;" parent="1" edge="1">
          <mxGeometry relative="1" as="geometry">
            <mxPoint x="530" y="482" as="targetPoint" />
            <mxPoint x="80" y="132" as="sourcePoint" />
            <Array as="points">
              <mxPoint x="80" y="112" />
              <mxPoint x="530" y="112" />
            </Array>
          </mxGeometry>
        </mxCell>
        <mxCell id="bBNReim9IivtYAumU8x--132" style="edgeStyle=orthogonalEdgeStyle;rounded=0;orthogonalLoop=1;jettySize=auto;html=1;" parent="1" edge="1">
          <mxGeometry relative="1" as="geometry">
            <mxPoint x="550" y="482" as="targetPoint" />
            <mxPoint x="60" y="132" as="sourcePoint" />
            <Array as="points">
              <mxPoint x="60" y="132" />
              <mxPoint x="60" y="92" />
              <mxPoint x="440" y="92" />
            </Array>
          </mxGeometry>
        </mxCell>
        <mxCell id="bBNReim9IivtYAumU8x--133" style="edgeStyle=orthogonalEdgeStyle;rounded=0;orthogonalLoop=1;jettySize=auto;html=1;" parent="1" edge="1">
          <mxGeometry relative="1" as="geometry">
            <mxPoint x="570" y="482" as="targetPoint" />
            <mxPoint x="40" y="132" as="sourcePoint" />
            <Array as="points">
              <mxPoint x="40" y="72" />
              <mxPoint x="570" y="72" />
            </Array>
          </mxGeometry>
        </mxCell>
        <mxCell id="bBNReim9IivtYAumU8x--134" style="edgeStyle=orthogonalEdgeStyle;rounded=0;orthogonalLoop=1;jettySize=auto;html=1;" parent="1" edge="1">
          <mxGeometry relative="1" as="geometry">
            <mxPoint x="590" y="482" as="targetPoint" />
            <mxPoint x="20" y="132" as="sourcePoint" />
            <Array as="points">
              <mxPoint x="20" y="52" />
              <mxPoint x="590" y="52" />
            </Array>
          </mxGeometry>
        </mxCell>
        <mxCell id="bBNReim9IivtYAumU8x--135" value="Date of Renewal, Application" style="text;html=1;align=center;verticalAlign=middle;whiteSpace=wrap;rounded=0;fontFamily=Lucida Console;fontSize=15;" parent="1" vertex="1">
          <mxGeometry x="128" y="49" width="290" height="30" as="geometry" />
        </mxCell>
        <mxCell id="bBNReim9IivtYAumU8x--136" style="edgeStyle=orthogonalEdgeStyle;rounded=0;orthogonalLoop=1;jettySize=auto;html=1;" parent="1" edge="1">
          <mxGeometry relative="1" as="geometry">
            <mxPoint x="610" y="482" as="targetPoint" />
            <mxPoint y="132" as="sourcePoint" />
            <Array as="points">
              <mxPoint y="32" />
              <mxPoint x="610" y="32" />
            </Array>
          </mxGeometry>
        </mxCell>
        <mxCell id="bBNReim9IivtYAumU8x--137" style="edgeStyle=orthogonalEdgeStyle;rounded=0;orthogonalLoop=1;jettySize=auto;html=1;" parent="1" edge="1">
          <mxGeometry relative="1" as="geometry">
            <mxPoint y="672" as="targetPoint" />
            <mxPoint x="310" y="672" as="sourcePoint" />
            <Array as="points">
              <mxPoint x="310" y="672" />
            </Array>
          </mxGeometry>
        </mxCell>
        <mxCell id="bBNReim9IivtYAumU8x--138" style="edgeStyle=orthogonalEdgeStyle;rounded=0;orthogonalLoop=1;jettySize=auto;html=1;" parent="1" edge="1">
          <mxGeometry relative="1" as="geometry">
            <mxPoint y="692" as="targetPoint" />
            <mxPoint x="310" y="692" as="sourcePoint" />
            <Array as="points">
              <mxPoint x="310" y="692" />
            </Array>
          </mxGeometry>
        </mxCell>
        <mxCell id="bBNReim9IivtYAumU8x--139" style="edgeStyle=orthogonalEdgeStyle;rounded=0;orthogonalLoop=1;jettySize=auto;html=1;" parent="1" edge="1">
          <mxGeometry relative="1" as="geometry">
            <mxPoint x="310" y="712" as="targetPoint" />
            <mxPoint y="712" as="sourcePoint" />
            <Array as="points">
              <mxPoint x="160" y="712" />
              <mxPoint x="160" y="712" />
            </Array>
          </mxGeometry>
        </mxCell>
        <mxCell id="bBNReim9IivtYAumU8x--140" style="edgeStyle=orthogonalEdgeStyle;rounded=0;orthogonalLoop=1;jettySize=auto;html=1;" parent="1" edge="1">
          <mxGeometry relative="1" as="geometry">
            <mxPoint x="310" y="732" as="targetPoint" />
            <mxPoint y="732" as="sourcePoint" />
            <Array as="points">
              <mxPoint x="160" y="731.3" />
              <mxPoint x="160" y="731.3" />
            </Array>
          </mxGeometry>
        </mxCell>
        <mxCell id="bBNReim9IivtYAumU8x--141" style="edgeStyle=orthogonalEdgeStyle;rounded=0;orthogonalLoop=1;jettySize=auto;html=1;" parent="1" edge="1">
          <mxGeometry relative="1" as="geometry">
            <mxPoint x="310" y="752" as="targetPoint" />
            <mxPoint y="752" as="sourcePoint" />
            <Array as="points">
              <mxPoint x="80" y="752" />
              <mxPoint x="80" y="752" />
            </Array>
          </mxGeometry>
        </mxCell>
        <mxCell id="bBNReim9IivtYAumU8x--142" style="edgeStyle=orthogonalEdgeStyle;rounded=0;orthogonalLoop=1;jettySize=auto;html=1;" parent="1" edge="1">
          <mxGeometry relative="1" as="geometry">
            <mxPoint x="310" y="771.8" as="targetPoint" />
            <mxPoint y="771.8" as="sourcePoint" />
            <Array as="points">
              <mxPoint x="160" y="771.8" />
              <mxPoint x="160" y="771.8" />
            </Array>
          </mxGeometry>
        </mxCell>
        <mxCell id="bBNReim9IivtYAumU8x--143" style="edgeStyle=orthogonalEdgeStyle;rounded=0;orthogonalLoop=1;jettySize=auto;html=1;" parent="1" edge="1">
          <mxGeometry relative="1" as="geometry">
            <mxPoint x="310" y="792" as="targetPoint" />
            <mxPoint y="792" as="sourcePoint" />
            <Array as="points">
              <mxPoint x="160" y="792" />
              <mxPoint x="160" y="792" />
            </Array>
          </mxGeometry>
        </mxCell>
        <mxCell id="bBNReim9IivtYAumU8x--144" style="edgeStyle=orthogonalEdgeStyle;rounded=0;orthogonalLoop=1;jettySize=auto;html=1;" parent="1" edge="1">
          <mxGeometry relative="1" as="geometry">
            <mxPoint y="832" as="targetPoint" />
            <mxPoint x="310" y="832" as="sourcePoint" />
          </mxGeometry>
        </mxCell>
        <mxCell id="bBNReim9IivtYAumU8x--145" style="edgeStyle=orthogonalEdgeStyle;rounded=0;orthogonalLoop=1;jettySize=auto;html=1;" parent="1" edge="1">
          <mxGeometry relative="1" as="geometry">
            <mxPoint y="852" as="targetPoint" />
            <mxPoint x="310" y="852" as="sourcePoint" />
          </mxGeometry>
        </mxCell>
        <mxCell id="bBNReim9IivtYAumU8x--146" style="edgeStyle=orthogonalEdgeStyle;rounded=0;orthogonalLoop=1;jettySize=auto;html=1;" parent="1" edge="1">
          <mxGeometry relative="1" as="geometry">
            <mxPoint x="310" y="872" as="targetPoint" />
            <mxPoint x="10" y="872" as="sourcePoint" />
          </mxGeometry>
        </mxCell>
        <mxCell id="bBNReim9IivtYAumU8x--147" style="edgeStyle=orthogonalEdgeStyle;rounded=0;orthogonalLoop=1;jettySize=auto;html=1;" parent="1" edge="1">
          <mxGeometry relative="1" as="geometry">
            <mxPoint x="310" y="892" as="targetPoint" />
            <mxPoint x="10" y="892" as="sourcePoint" />
          </mxGeometry>
        </mxCell>
        <mxCell id="bBNReim9IivtYAumU8x--148" style="edgeStyle=orthogonalEdgeStyle;rounded=0;orthogonalLoop=1;jettySize=auto;html=1;" parent="1" edge="1">
          <mxGeometry relative="1" as="geometry">
            <mxPoint x="310" y="912" as="targetPoint" />
            <mxPoint x="10" y="912" as="sourcePoint" />
          </mxGeometry>
        </mxCell>
        <mxCell id="bBNReim9IivtYAumU8x--149" style="edgeStyle=orthogonalEdgeStyle;rounded=0;orthogonalLoop=1;jettySize=auto;html=1;" parent="1" edge="1">
          <mxGeometry relative="1" as="geometry">
            <mxPoint x="3" y="942" as="targetPoint" />
            <mxPoint x="313" y="942" as="sourcePoint" />
          </mxGeometry>
        </mxCell>
        <mxCell id="bBNReim9IivtYAumU8x--150" style="edgeStyle=orthogonalEdgeStyle;rounded=0;orthogonalLoop=1;jettySize=auto;html=1;" parent="1" edge="1">
          <mxGeometry relative="1" as="geometry">
            <mxPoint x="3" y="962" as="targetPoint" />
            <mxPoint x="320" y="962" as="sourcePoint" />
            <Array as="points">
              <mxPoint x="320" y="962" />
            </Array>
          </mxGeometry>
        </mxCell>
        <mxCell id="bBNReim9IivtYAumU8x--151" style="edgeStyle=orthogonalEdgeStyle;rounded=0;orthogonalLoop=1;jettySize=auto;html=1;" parent="1" edge="1">
          <mxGeometry relative="1" as="geometry">
            <mxPoint x="3" y="982" as="targetPoint" />
            <mxPoint x="330" y="972" as="sourcePoint" />
            <Array as="points">
              <mxPoint x="330" y="982" />
            </Array>
          </mxGeometry>
        </mxCell>
        <mxCell id="bBNReim9IivtYAumU8x--152" style="edgeStyle=orthogonalEdgeStyle;rounded=0;orthogonalLoop=1;jettySize=auto;html=1;" parent="1" edge="1">
          <mxGeometry relative="1" as="geometry">
            <mxPoint x="340" y="982" as="targetPoint" />
            <mxPoint x="7.5" y="1001.76" as="sourcePoint" />
          </mxGeometry>
        </mxCell>
        <mxCell id="bBNReim9IivtYAumU8x--153" style="edgeStyle=orthogonalEdgeStyle;rounded=0;orthogonalLoop=1;jettySize=auto;html=1;" parent="1" edge="1">
          <mxGeometry relative="1" as="geometry">
            <mxPoint x="350" y="982" as="targetPoint" />
            <mxPoint x="8.5" y="1021.76" as="sourcePoint" />
          </mxGeometry>
        </mxCell>
        <mxCell id="bBNReim9IivtYAumU8x--154" style="edgeStyle=orthogonalEdgeStyle;rounded=0;orthogonalLoop=1;jettySize=auto;html=1;" parent="1" edge="1">
          <mxGeometry relative="1" as="geometry">
            <mxPoint x="360" y="982" as="targetPoint" />
            <mxPoint x="10" y="1042" as="sourcePoint" />
            <Array as="points">
              <mxPoint x="360" y="1042" />
            </Array>
          </mxGeometry>
        </mxCell>
        <mxCell id="bBNReim9IivtYAumU8x--155" style="edgeStyle=orthogonalEdgeStyle;rounded=0;orthogonalLoop=1;jettySize=auto;html=1;" parent="1" edge="1">
          <mxGeometry relative="1" as="geometry">
            <mxPoint x="370" y="982" as="targetPoint" />
            <mxPoint x="10" y="1062" as="sourcePoint" />
            <Array as="points">
              <mxPoint x="370" y="1062" />
            </Array>
          </mxGeometry>
        </mxCell>
        <mxCell id="bBNReim9IivtYAumU8x--156" style="edgeStyle=orthogonalEdgeStyle;rounded=0;orthogonalLoop=1;jettySize=auto;html=1;" parent="1" edge="1">
          <mxGeometry relative="1" as="geometry">
            <mxPoint x="10" y="1082" as="targetPoint" />
            <mxPoint x="380" y="982" as="sourcePoint" />
            <Array as="points">
              <mxPoint x="380" y="1082" />
            </Array>
          </mxGeometry>
        </mxCell>
        <mxCell id="bBNReim9IivtYAumU8x--157" style="edgeStyle=orthogonalEdgeStyle;rounded=0;orthogonalLoop=1;jettySize=auto;html=1;" parent="1" edge="1">
          <mxGeometry relative="1" as="geometry">
            <mxPoint x="10" y="1101" as="targetPoint" />
            <mxPoint x="390" y="982" as="sourcePoint" />
            <Array as="points">
              <mxPoint x="390" y="1101" />
            </Array>
          </mxGeometry>
        </mxCell>
        <mxCell id="bBNReim9IivtYAumU8x--158" style="edgeStyle=orthogonalEdgeStyle;rounded=0;orthogonalLoop=1;jettySize=auto;html=1;" parent="1" edge="1">
          <mxGeometry relative="1" as="geometry">
            <mxPoint x="10" y="1120" as="targetPoint" />
            <mxPoint x="400" y="982" as="sourcePoint" />
            <Array as="points">
              <mxPoint x="400" y="1120" />
            </Array>
          </mxGeometry>
        </mxCell>
        <mxCell id="bBNReim9IivtYAumU8x--159" style="edgeStyle=orthogonalEdgeStyle;rounded=0;orthogonalLoop=1;jettySize=auto;html=1;" parent="1" edge="1">
          <mxGeometry relative="1" as="geometry">
            <mxPoint x="10" y="1142" as="targetPoint" />
            <mxPoint x="410" y="982" as="sourcePoint" />
            <Array as="points">
              <mxPoint x="410" y="1142" />
            </Array>
          </mxGeometry>
        </mxCell>
        <mxCell id="bBNReim9IivtYAumU8x--160" style="edgeStyle=orthogonalEdgeStyle;rounded=0;orthogonalLoop=1;jettySize=auto;html=1;" parent="1" edge="1">
          <mxGeometry relative="1" as="geometry">
            <mxPoint x="420" y="982" as="targetPoint" />
            <mxPoint x="10" y="1161" as="sourcePoint" />
            <Array as="points">
              <mxPoint x="420" y="1161" />
            </Array>
          </mxGeometry>
        </mxCell>
        <mxCell id="bBNReim9IivtYAumU8x--161" style="edgeStyle=orthogonalEdgeStyle;rounded=0;orthogonalLoop=1;jettySize=auto;html=1;" parent="1" edge="1">
          <mxGeometry relative="1" as="geometry">
            <mxPoint x="430" y="982" as="targetPoint" />
            <mxPoint x="10" y="1182" as="sourcePoint" />
            <Array as="points">
              <mxPoint x="430" y="1182" />
            </Array>
          </mxGeometry>
        </mxCell>
        <mxCell id="bBNReim9IivtYAumU8x--162" style="edgeStyle=orthogonalEdgeStyle;rounded=0;orthogonalLoop=1;jettySize=auto;html=1;exitX=0.544;exitY=1.011;exitDx=0;exitDy=0;exitPerimeter=0;" parent="1" source="bBNReim9IivtYAumU8x--36" edge="1">
          <mxGeometry relative="1" as="geometry">
            <mxPoint x="440" y="982" as="targetPoint" />
            <mxPoint x="-100" y="1202" as="sourcePoint" />
            <Array as="points">
              <mxPoint x="-100" y="1202" />
              <mxPoint x="440" y="1202" />
            </Array>
          </mxGeometry>
        </mxCell>
        <mxCell id="bBNReim9IivtYAumU8x--163" style="edgeStyle=orthogonalEdgeStyle;rounded=0;orthogonalLoop=1;jettySize=auto;html=1;" parent="1" edge="1">
          <mxGeometry relative="1" as="geometry">
            <mxPoint x="450" y="982" as="targetPoint" />
            <mxPoint x="-120" y="1202" as="sourcePoint" />
            <Array as="points">
              <mxPoint x="-120" y="1222" />
              <mxPoint x="450" y="1222" />
            </Array>
          </mxGeometry>
        </mxCell>
        <mxCell id="bBNReim9IivtYAumU8x--164" style="edgeStyle=orthogonalEdgeStyle;rounded=0;orthogonalLoop=1;jettySize=auto;html=1;" parent="1" edge="1">
          <mxGeometry relative="1" as="geometry">
            <mxPoint x="460" y="982" as="targetPoint" />
            <mxPoint x="-140" y="1202" as="sourcePoint" />
            <Array as="points">
              <mxPoint x="-140" y="1242" />
              <mxPoint x="460" y="1242" />
            </Array>
          </mxGeometry>
        </mxCell>
        <mxCell id="bBNReim9IivtYAumU8x--165" style="edgeStyle=orthogonalEdgeStyle;rounded=0;orthogonalLoop=1;jettySize=auto;html=1;" parent="1" edge="1">
          <mxGeometry relative="1" as="geometry">
            <mxPoint x="190" y="1302" as="targetPoint" />
            <mxPoint x="480" y="982" as="sourcePoint" />
            <Array as="points">
              <mxPoint x="480" y="1302" />
            </Array>
          </mxGeometry>
        </mxCell>
        <mxCell id="bBNReim9IivtYAumU8x--166" style="edgeStyle=orthogonalEdgeStyle;rounded=0;orthogonalLoop=1;jettySize=auto;html=1;" parent="1" edge="1">
          <mxGeometry relative="1" as="geometry">
            <mxPoint x="190" y="1321" as="targetPoint" />
            <mxPoint x="500" y="982" as="sourcePoint" />
            <Array as="points">
              <mxPoint x="500" y="1321" />
            </Array>
          </mxGeometry>
        </mxCell>
        <mxCell id="bBNReim9IivtYAumU8x--167" style="edgeStyle=orthogonalEdgeStyle;rounded=0;orthogonalLoop=1;jettySize=auto;html=1;" parent="1" edge="1">
          <mxGeometry relative="1" as="geometry">
            <mxPoint x="190" y="1342" as="targetPoint" />
            <mxPoint x="520" y="982" as="sourcePoint" />
            <Array as="points">
              <mxPoint x="520" y="1342" />
            </Array>
          </mxGeometry>
        </mxCell>
        <mxCell id="bBNReim9IivtYAumU8x--168" style="edgeStyle=orthogonalEdgeStyle;rounded=0;orthogonalLoop=1;jettySize=auto;html=1;" parent="1" edge="1">
          <mxGeometry relative="1" as="geometry">
            <mxPoint x="540" y="982" as="targetPoint" />
            <mxPoint x="190" y="1362" as="sourcePoint" />
            <Array as="points">
              <mxPoint x="540" y="1362" />
            </Array>
          </mxGeometry>
        </mxCell>
        <mxCell id="bBNReim9IivtYAumU8x--169" style="edgeStyle=orthogonalEdgeStyle;rounded=0;orthogonalLoop=1;jettySize=auto;html=1;" parent="1" edge="1">
          <mxGeometry relative="1" as="geometry">
            <mxPoint x="560" y="982" as="targetPoint" />
            <mxPoint x="190" y="1382" as="sourcePoint" />
            <Array as="points">
              <mxPoint x="560" y="1382" />
            </Array>
          </mxGeometry>
        </mxCell>
        <mxCell id="bBNReim9IivtYAumU8x--170" style="edgeStyle=orthogonalEdgeStyle;rounded=0;orthogonalLoop=1;jettySize=auto;html=1;" parent="1" edge="1">
          <mxGeometry relative="1" as="geometry">
            <mxPoint x="580" y="982" as="targetPoint" />
            <mxPoint x="190" y="1402" as="sourcePoint" />
            <Array as="points">
              <mxPoint x="580" y="1402" />
            </Array>
          </mxGeometry>
        </mxCell>
        <mxCell id="bBNReim9IivtYAumU8x--171" style="edgeStyle=orthogonalEdgeStyle;rounded=0;orthogonalLoop=1;jettySize=auto;html=1;" parent="1" edge="1">
          <mxGeometry relative="1" as="geometry">
            <mxPoint x="600" y="982" as="targetPoint" />
            <mxPoint x="80" y="1412" as="sourcePoint" />
            <Array as="points">
              <mxPoint x="80" y="1422" />
              <mxPoint x="600" y="1422" />
            </Array>
          </mxGeometry>
        </mxCell>
        <mxCell id="bBNReim9IivtYAumU8x--172" style="edgeStyle=orthogonalEdgeStyle;rounded=0;orthogonalLoop=1;jettySize=auto;html=1;" parent="1" edge="1">
          <mxGeometry relative="1" as="geometry">
            <mxPoint x="960" y="132" as="targetPoint" />
            <mxPoint x="650" y="482" as="sourcePoint" />
            <Array as="points">
              <mxPoint x="650" y="92" />
              <mxPoint x="960" y="92" />
            </Array>
          </mxGeometry>
        </mxCell>
        <mxCell id="bBNReim9IivtYAumU8x--173" style="edgeStyle=orthogonalEdgeStyle;rounded=0;orthogonalLoop=1;jettySize=auto;html=1;" parent="1" edge="1">
          <mxGeometry relative="1" as="geometry">
            <mxPoint x="1000" y="132" as="targetPoint" />
            <mxPoint x="630" y="482" as="sourcePoint" />
            <Array as="points">
              <mxPoint x="630" y="72" />
              <mxPoint x="1000" y="72" />
            </Array>
          </mxGeometry>
        </mxCell>
        <mxCell id="bBNReim9IivtYAumU8x--174" style="edgeStyle=orthogonalEdgeStyle;rounded=0;orthogonalLoop=1;jettySize=auto;html=1;" parent="1" edge="1">
          <mxGeometry relative="1" as="geometry">
            <mxPoint x="710" y="482" as="targetPoint" />
            <mxPoint x="1010" y="272" as="sourcePoint" />
            <Array as="points">
              <mxPoint x="1010" y="431" />
              <mxPoint x="710" y="431" />
            </Array>
          </mxGeometry>
        </mxCell>
        <mxCell id="bBNReim9IivtYAumU8x--175" style="edgeStyle=orthogonalEdgeStyle;rounded=0;orthogonalLoop=1;jettySize=auto;html=1;" parent="1" edge="1">
          <mxGeometry relative="1" as="geometry">
            <mxPoint x="690" y="482" as="targetPoint" />
            <mxPoint x="990" y="272" as="sourcePoint" />
            <Array as="points">
              <mxPoint x="990" y="410" />
              <mxPoint x="690" y="410" />
            </Array>
          </mxGeometry>
        </mxCell>
        <mxCell id="bBNReim9IivtYAumU8x--176" style="edgeStyle=orthogonalEdgeStyle;rounded=0;orthogonalLoop=1;jettySize=auto;html=1;" parent="1" edge="1">
          <mxGeometry relative="1" as="geometry">
            <mxPoint x="1050" y="562" as="targetPoint" />
            <mxPoint x="839" y="542" as="sourcePoint" />
            <Array as="points">
              <mxPoint x="1050" y="542" />
            </Array>
          </mxGeometry>
        </mxCell>
        <mxCell id="bBNReim9IivtYAumU8x--177" style="edgeStyle=orthogonalEdgeStyle;rounded=0;orthogonalLoop=1;jettySize=auto;html=1;" parent="1" edge="1">
          <mxGeometry relative="1" as="geometry">
            <mxPoint x="840" y="733" as="targetPoint" />
            <mxPoint x="1030" y="693" as="sourcePoint" />
            <Array as="points">
              <mxPoint x="1030" y="733" />
            </Array>
          </mxGeometry>
        </mxCell>
        <mxCell id="bBNReim9IivtYAumU8x--178" style="edgeStyle=orthogonalEdgeStyle;rounded=0;orthogonalLoop=1;jettySize=auto;html=1;" parent="1" edge="1">
          <mxGeometry relative="1" as="geometry">
            <mxPoint x="840" y="753" as="targetPoint" />
            <mxPoint x="1050" y="693" as="sourcePoint" />
            <Array as="points">
              <mxPoint x="1050" y="753" />
            </Array>
          </mxGeometry>
        </mxCell>
        <mxCell id="bBNReim9IivtYAumU8x--179" style="edgeStyle=orthogonalEdgeStyle;rounded=0;orthogonalLoop=1;jettySize=auto;html=1;" parent="1" edge="1">
          <mxGeometry relative="1" as="geometry">
            <mxPoint x="840" y="773" as="targetPoint" />
            <mxPoint x="1070" y="693" as="sourcePoint" />
            <Array as="points">
              <mxPoint x="1070" y="773" />
            </Array>
          </mxGeometry>
        </mxCell>
        <mxCell id="bBNReim9IivtYAumU8x--180" style="edgeStyle=orthogonalEdgeStyle;rounded=0;orthogonalLoop=1;jettySize=auto;html=1;" parent="1" edge="1">
          <mxGeometry relative="1" as="geometry">
            <mxPoint x="840" y="793" as="targetPoint" />
            <mxPoint x="1090" y="693" as="sourcePoint" />
            <Array as="points">
              <mxPoint x="1090" y="793" />
            </Array>
          </mxGeometry>
        </mxCell>
        <mxCell id="bBNReim9IivtYAumU8x--181" style="edgeStyle=orthogonalEdgeStyle;rounded=0;orthogonalLoop=1;jettySize=auto;html=1;" parent="1" edge="1">
          <mxGeometry relative="1" as="geometry">
            <mxPoint x="840" y="813" as="targetPoint" />
            <mxPoint x="1110" y="693" as="sourcePoint" />
            <Array as="points">
              <mxPoint x="1110" y="813" />
            </Array>
          </mxGeometry>
        </mxCell>
        <mxCell id="bBNReim9IivtYAumU8x--182" style="edgeStyle=orthogonalEdgeStyle;rounded=0;orthogonalLoop=1;jettySize=auto;html=1;" parent="1" edge="1">
          <mxGeometry relative="1" as="geometry">
            <mxPoint x="1020" y="1422" as="targetPoint" />
            <mxPoint x="630" y="982" as="sourcePoint" />
            <Array as="points">
              <mxPoint x="630" y="1662" />
              <mxPoint x="1020" y="1662" />
            </Array>
          </mxGeometry>
        </mxCell>
        <mxCell id="bBNReim9IivtYAumU8x--183" style="edgeStyle=orthogonalEdgeStyle;rounded=0;orthogonalLoop=1;jettySize=auto;html=1;" parent="1" edge="1">
          <mxGeometry relative="1" as="geometry">
            <mxPoint x="1000" y="1422" as="targetPoint" />
            <mxPoint x="640" y="982" as="sourcePoint" />
            <Array as="points">
              <mxPoint x="640" y="1642" />
              <mxPoint x="1000" y="1642" />
            </Array>
          </mxGeometry>
        </mxCell>
        <mxCell id="bBNReim9IivtYAumU8x--184" style="edgeStyle=orthogonalEdgeStyle;rounded=0;orthogonalLoop=1;jettySize=auto;html=1;" parent="1" edge="1">
          <mxGeometry relative="1" as="geometry">
            <mxPoint x="980" y="1422" as="targetPoint" />
            <mxPoint x="650" y="982" as="sourcePoint" />
            <Array as="points">
              <mxPoint x="650" y="1622" />
              <mxPoint x="980" y="1622" />
            </Array>
          </mxGeometry>
        </mxCell>
        <mxCell id="bBNReim9IivtYAumU8x--185" style="edgeStyle=orthogonalEdgeStyle;rounded=0;orthogonalLoop=1;jettySize=auto;html=1;" parent="1" edge="1">
          <mxGeometry relative="1" as="geometry">
            <mxPoint x="960" y="1422" as="targetPoint" />
            <mxPoint x="660" y="982" as="sourcePoint" />
            <Array as="points">
              <mxPoint x="660" y="1602" />
              <mxPoint x="960" y="1602" />
            </Array>
          </mxGeometry>
        </mxCell>
        <mxCell id="bBNReim9IivtYAumU8x--186" style="edgeStyle=orthogonalEdgeStyle;rounded=0;orthogonalLoop=1;jettySize=auto;html=1;" parent="1" edge="1">
          <mxGeometry relative="1" as="geometry">
            <mxPoint x="940" y="1422" as="targetPoint" />
            <mxPoint x="670" y="982" as="sourcePoint" />
            <Array as="points">
              <mxPoint x="670" y="1582" />
              <mxPoint x="940" y="1582" />
            </Array>
          </mxGeometry>
        </mxCell>
        <mxCell id="bBNReim9IivtYAumU8x--187" style="edgeStyle=orthogonalEdgeStyle;rounded=0;orthogonalLoop=1;jettySize=auto;html=1;" parent="1" edge="1">
          <mxGeometry relative="1" as="geometry">
            <mxPoint x="920" y="1422" as="targetPoint" />
            <mxPoint x="680" y="982" as="sourcePoint" />
            <Array as="points">
              <mxPoint x="680" y="1562" />
              <mxPoint x="920" y="1562" />
            </Array>
          </mxGeometry>
        </mxCell>
        <mxCell id="bBNReim9IivtYAumU8x--188" style="edgeStyle=orthogonalEdgeStyle;rounded=0;orthogonalLoop=1;jettySize=auto;html=1;" parent="1" edge="1">
          <mxGeometry relative="1" as="geometry">
            <mxPoint x="900" y="1422" as="targetPoint" />
            <mxPoint x="690" y="982" as="sourcePoint" />
            <Array as="points">
              <mxPoint x="690" y="1542" />
              <mxPoint x="900" y="1542" />
            </Array>
          </mxGeometry>
        </mxCell>
        <mxCell id="bBNReim9IivtYAumU8x--189" style="edgeStyle=orthogonalEdgeStyle;rounded=0;orthogonalLoop=1;jettySize=auto;html=1;" parent="1" edge="1">
          <mxGeometry relative="1" as="geometry">
            <mxPoint x="880" y="1422" as="targetPoint" />
            <mxPoint x="700" y="982" as="sourcePoint" />
            <Array as="points">
              <mxPoint x="700" y="1522" />
              <mxPoint x="880" y="1522" />
            </Array>
          </mxGeometry>
        </mxCell>
        <mxCell id="bBNReim9IivtYAumU8x--190" style="edgeStyle=orthogonalEdgeStyle;rounded=0;orthogonalLoop=1;jettySize=auto;html=1;" parent="1" edge="1">
          <mxGeometry relative="1" as="geometry">
            <mxPoint x="860" y="1422" as="targetPoint" />
            <mxPoint x="710" y="982" as="sourcePoint" />
            <Array as="points">
              <mxPoint x="710" y="1502" />
              <mxPoint x="860" y="1502" />
            </Array>
          </mxGeometry>
        </mxCell>
        <mxCell id="bBNReim9IivtYAumU8x--191" style="edgeStyle=orthogonalEdgeStyle;rounded=0;orthogonalLoop=1;jettySize=auto;html=1;" parent="1" edge="1">
          <mxGeometry relative="1" as="geometry">
            <mxPoint x="840" y="1422" as="targetPoint" />
            <mxPoint x="720" y="982" as="sourcePoint" />
            <Array as="points">
              <mxPoint x="720" y="982" />
              <mxPoint x="720" y="1482" />
              <mxPoint x="840" y="1482" />
            </Array>
          </mxGeometry>
        </mxCell>
        <mxCell id="bBNReim9IivtYAumU8x--192" style="edgeStyle=orthogonalEdgeStyle;rounded=0;orthogonalLoop=1;jettySize=auto;html=1;" parent="1" edge="1">
          <mxGeometry relative="1" as="geometry">
            <mxPoint x="840" y="932" as="targetPoint" />
            <mxPoint x="980" y="1282" as="sourcePoint" />
            <Array as="points">
              <mxPoint x="980" y="932" />
            </Array>
          </mxGeometry>
        </mxCell>
        <mxCell id="bBNReim9IivtYAumU8x--193" style="edgeStyle=orthogonalEdgeStyle;rounded=0;orthogonalLoop=1;jettySize=auto;html=1;" parent="1" edge="1">
          <mxGeometry relative="1" as="geometry">
            <mxPoint x="780" y="982" as="targetPoint" />
            <mxPoint x="920" y="1282" as="sourcePoint" />
            <Array as="points">
              <mxPoint x="920" y="1032" />
              <mxPoint x="780" y="1032" />
            </Array>
          </mxGeometry>
        </mxCell>
        <mxCell id="bBNReim9IivtYAumU8x--194" style="edgeStyle=orthogonalEdgeStyle;rounded=0;orthogonalLoop=1;jettySize=auto;html=1;" parent="1" edge="1">
          <mxGeometry relative="1" as="geometry">
            <mxPoint x="840" y="912" as="targetPoint" />
            <mxPoint x="1000" y="1282" as="sourcePoint" />
            <Array as="points">
              <mxPoint x="1000" y="912" />
            </Array>
          </mxGeometry>
        </mxCell>
        <mxCell id="bBNReim9IivtYAumU8x--195" style="edgeStyle=orthogonalEdgeStyle;rounded=0;orthogonalLoop=1;jettySize=auto;html=1;" parent="1" edge="1">
          <mxGeometry relative="1" as="geometry">
            <mxPoint x="840" y="892" as="targetPoint" />
            <mxPoint x="1020" y="1282" as="sourcePoint" />
            <Array as="points">
              <mxPoint x="1020" y="1282" />
              <mxPoint x="1020" y="952" />
            </Array>
          </mxGeometry>
        </mxCell>
        <mxCell id="bBNReim9IivtYAumU8x--196" style="edgeStyle=orthogonalEdgeStyle;rounded=0;orthogonalLoop=1;jettySize=auto;html=1;" parent="1" edge="1">
          <mxGeometry relative="1" as="geometry">
            <mxPoint x="840" y="952" as="targetPoint" />
            <mxPoint x="960" y="1282" as="sourcePoint" />
            <Array as="points">
              <mxPoint x="960" y="952" />
            </Array>
          </mxGeometry>
        </mxCell>
        <mxCell id="bBNReim9IivtYAumU8x--197" style="edgeStyle=orthogonalEdgeStyle;rounded=0;orthogonalLoop=1;jettySize=auto;html=1;" parent="1" edge="1">
          <mxGeometry relative="1" as="geometry">
            <mxPoint x="1990" y="2624" as="targetPoint" />
            <mxPoint x="2300" y="2624" as="sourcePoint" />
            <Array as="points">
              <mxPoint x="2170" y="2624" />
              <mxPoint x="2170" y="2624" />
            </Array>
          </mxGeometry>
        </mxCell>
        <mxCell id="bBNReim9IivtYAumU8x--198" style="edgeStyle=orthogonalEdgeStyle;rounded=0;orthogonalLoop=1;jettySize=auto;html=1;" parent="1" edge="1">
          <mxGeometry relative="1" as="geometry">
            <mxPoint x="1990" y="2783" as="targetPoint" />
            <mxPoint x="2300" y="2783" as="sourcePoint" />
          </mxGeometry>
        </mxCell>
        <mxCell id="bBNReim9IivtYAumU8x--199" style="edgeStyle=orthogonalEdgeStyle;rounded=0;orthogonalLoop=1;jettySize=auto;html=1;" parent="1" edge="1">
          <mxGeometry relative="1" as="geometry">
            <mxPoint x="3030" y="3393" as="targetPoint" />
            <mxPoint x="2610" y="2953" as="sourcePoint" />
            <Array as="points">
              <mxPoint x="2610" y="3653" />
              <mxPoint x="3030" y="3653" />
            </Array>
          </mxGeometry>
        </mxCell>
        <mxCell id="bBNReim9IivtYAumU8x--204" style="edgeStyle=orthogonalEdgeStyle;rounded=0;orthogonalLoop=1;jettySize=auto;html=1;" parent="1" edge="1">
          <mxGeometry relative="1" as="geometry">
            <mxPoint x="2790" y="2953" as="targetPoint" />
            <mxPoint x="2930" y="3253" as="sourcePoint" />
            <Array as="points">
              <mxPoint x="2930" y="2963" />
              <mxPoint x="2790" y="2963" />
            </Array>
          </mxGeometry>
        </mxCell>
        <mxCell id="bBNReim9IivtYAumU8x--205" style="edgeStyle=orthogonalEdgeStyle;rounded=0;orthogonalLoop=1;jettySize=auto;html=1;" parent="1" edge="1">
          <mxGeometry relative="1" as="geometry">
            <mxPoint x="2830" y="2823" as="targetPoint" />
            <mxPoint x="3030" y="3253" as="sourcePoint" />
            <Array as="points">
              <mxPoint x="3030" y="2823" />
            </Array>
          </mxGeometry>
        </mxCell>
        <mxCell id="bBNReim9IivtYAumU8x--206" value="&lt;font style=&quot;font-size: 19px;&quot;&gt;Scholar&lt;/font&gt;" style="html=1;dashed=0;whiteSpace=wrap;shape=mxgraph.dfd.externalEntity;fontFamily=Lucida Console;fontSize=15;" parent="1" vertex="1">
          <mxGeometry x="-740" y="3920" width="220" height="120" as="geometry" />
        </mxCell>
        <mxCell id="bBNReim9IivtYAumU8x--207" value="req. for Renewal" style="text;html=1;align=center;verticalAlign=middle;whiteSpace=wrap;rounded=0;fontFamily=Lucida Console;fontSize=15;" parent="1" vertex="1">
          <mxGeometry x="2854" y="2858" width="160" height="30" as="geometry" />
        </mxCell>
        <mxCell id="bBNReim9IivtYAumU8x--208" value="Chosen Sched,&lt;div&gt;Dept,Church&lt;/div&gt;" style="text;html=1;align=center;verticalAlign=middle;whiteSpace=wrap;rounded=0;fontFamily=Lucida Console;fontSize=15;" parent="1" vertex="1">
          <mxGeometry x="2820" y="2828" width="240" height="30" as="geometry" />
        </mxCell>
        <mxCell id="bBNReim9IivtYAumU8x--209" value="name, email" style="text;html=1;align=center;verticalAlign=middle;whiteSpace=wrap;rounded=0;fontFamily=Lucida Console;fontSize=15;" parent="1" vertex="1">
          <mxGeometry x="2833.5" y="2899" width="149" height="30" as="geometry" />
        </mxCell>
        <mxCell id="bBNReim9IivtYAumU8x--210" value="new username,&lt;div&gt;&lt;span style=&quot;background-color: transparent; color: light-dark(rgb(0, 0, 0), rgb(255, 255, 255));&quot;&gt;password&lt;/span&gt;&lt;/div&gt;" style="text;html=1;align=center;verticalAlign=middle;whiteSpace=wrap;rounded=0;fontFamily=Lucida Console;fontSize=15;" parent="1" vertex="1">
          <mxGeometry x="2800.75" y="2969" width="128.5" height="30" as="geometry" />
        </mxCell>
        <mxCell id="bBNReim9IivtYAumU8x--211" value="fellowship&lt;div&gt;&lt;span style=&quot;background-color: transparent; color: light-dark(rgb(0, 0, 0), rgb(255, 255, 255));&quot;&gt;attendance&lt;/span&gt;&lt;/div&gt;" style="text;html=1;align=center;verticalAlign=middle;whiteSpace=wrap;rounded=0;fontFamily=Lucida Console;fontSize=15;" parent="1" vertex="1">
          <mxGeometry x="2850" y="2929" width="96.5" height="30" as="geometry" />
        </mxCell>
        <mxCell id="bBNReim9IivtYAumU8x--212" value="Gratis duty &amp;amp; fellowship record" style="text;html=1;align=center;verticalAlign=middle;whiteSpace=wrap;rounded=0;fontFamily=Lucida Console;fontSize=15;" parent="1" vertex="1">
          <mxGeometry x="2660" y="3570" width="290" height="30" as="geometry" />
        </mxCell>
        <mxCell id="bBNReim9IivtYAumU8x--213" value="grantslip(e certi)" style="text;html=1;align=center;verticalAlign=middle;whiteSpace=wrap;rounded=0;fontFamily=Lucida Console;fontSize=15;" parent="1" vertex="1">
          <mxGeometry x="2643" y="3509" width="290" height="30" as="geometry" />
        </mxCell>
        <mxCell id="bBNReim9IivtYAumU8x--214" value="available dept." style="text;html=1;align=center;verticalAlign=middle;whiteSpace=wrap;rounded=0;fontFamily=Lucida Console;fontSize=15;" parent="1" vertex="1">
          <mxGeometry x="2630" y="3490" width="290" height="30" as="geometry" />
        </mxCell>
        <mxCell id="bBNReim9IivtYAumU8x--215" value="approval of exit" style="text;html=1;align=center;verticalAlign=middle;whiteSpace=wrap;rounded=0;fontFamily=Lucida Console;fontSize=15;" parent="1" vertex="1">
          <mxGeometry x="2621" y="3471" width="290" height="30" as="geometry" />
        </mxCell>
        <mxCell id="bBNReim9IivtYAumU8x--216" value="date of renewal,fellowship &amp;amp; grand fellowship" style="text;html=1;align=center;verticalAlign=middle;whiteSpace=wrap;rounded=0;fontFamily=Lucida Console;fontSize=15;" parent="1" vertex="1">
          <mxGeometry x="2596" y="3631" width="440" height="30" as="geometry" />
        </mxCell>
        <mxCell id="bBNReim9IivtYAumU8x--217" value="violation hours" style="text;html=1;align=center;verticalAlign=middle;whiteSpace=wrap;rounded=0;fontFamily=Lucida Console;fontSize=15;" parent="1" vertex="1">
          <mxGeometry x="2705" y="3530" width="160" height="30" as="geometry" />
        </mxCell>
        <mxCell id="bBNReim9IivtYAumU8x--218" value="Total Gratis Hours Required" style="text;html=1;align=center;verticalAlign=middle;whiteSpace=wrap;rounded=0;fontFamily=Lucida Console;fontSize=15;" parent="1" vertex="1">
          <mxGeometry x="2651" y="3588" width="290" height="30" as="geometry" />
        </mxCell>
        <mxCell id="bBNReim9IivtYAumU8x--219" value="Account credentials (partial or full)" style="text;html=1;align=center;verticalAlign=middle;whiteSpace=wrap;rounded=0;fontFamily=Lucida Console;fontSize=15;" parent="1" vertex="1">
          <mxGeometry x="2630" y="3609" width="350" height="30" as="geometry" />
        </mxCell>
        <mxCell id="bBNReim9IivtYAumU8x--220" value="QR code of Dept. &amp;amp; Church" style="text;html=1;align=center;verticalAlign=middle;whiteSpace=wrap;rounded=0;fontFamily=Lucida Console;fontSize=15;" parent="1" vertex="1">
          <mxGeometry x="2610" y="3549" width="350" height="30" as="geometry" />
        </mxCell>
        <mxCell id="bBNReim9IivtYAumU8x--221" value="Semester&amp;nbsp;&lt;span style=&quot;background-color: transparent; color: light-dark(rgb(0, 0, 0), rgb(255, 255, 255));&quot;&gt;Id&lt;/span&gt;" style="text;html=1;align=center;verticalAlign=middle;whiteSpace=wrap;rounded=0;fontFamily=Lucida Console;fontSize=15;" parent="1" vertex="1">
          <mxGeometry x="2705" y="3429" width="134" height="30" as="geometry" />
        </mxCell>
        <mxCell id="bBNReim9IivtYAumU8x--222" style="edgeStyle=orthogonalEdgeStyle;rounded=0;orthogonalLoop=1;jettySize=auto;html=1;" parent="1" edge="1">
          <mxGeometry relative="1" as="geometry">
            <mxPoint x="2380" y="2453" as="targetPoint" />
            <mxPoint x="2170" y="2223" as="sourcePoint" />
            <Array as="points">
              <mxPoint x="2380" y="2223" />
            </Array>
          </mxGeometry>
        </mxCell>
        <mxCell id="bBNReim9IivtYAumU8x--225" value="Semester Id" style="text;html=1;align=center;verticalAlign=middle;whiteSpace=wrap;rounded=0;fontFamily=Lucida Console;fontSize=15;" parent="1" vertex="1">
          <mxGeometry x="2148" y="2158" width="240" height="30" as="geometry" />
        </mxCell>
        <mxCell id="bBNReim9IivtYAumU8x--226" style="edgeStyle=orthogonalEdgeStyle;rounded=0;orthogonalLoop=1;jettySize=auto;html=1;" parent="1" edge="1">
          <mxGeometry relative="1" as="geometry">
            <mxPoint x="2910" y="2103" as="targetPoint" />
            <mxPoint x="2660" y="2453" as="sourcePoint" />
            <Array as="points">
              <mxPoint x="2660" y="2083" />
              <mxPoint x="2910" y="2083" />
            </Array>
          </mxGeometry>
        </mxCell>
        <mxCell id="bBNReim9IivtYAumU8x--227" style="edgeStyle=orthogonalEdgeStyle;rounded=0;orthogonalLoop=1;jettySize=auto;html=1;" parent="1" edge="1">
          <mxGeometry relative="1" as="geometry">
            <mxPoint x="2720" y="2453" as="targetPoint" />
            <mxPoint x="3020" y="2243" as="sourcePoint" />
            <Array as="points">
              <mxPoint x="3020" y="2423" />
              <mxPoint x="2720" y="2423" />
            </Array>
          </mxGeometry>
        </mxCell>
        <mxCell id="bBNReim9IivtYAumU8x--228" value="&lt;font style=&quot;font-size: 19px;&quot;&gt;Applicant&lt;/font&gt;" style="html=1;dashed=0;whiteSpace=wrap;shape=mxgraph.dfd.externalEntity;fontFamily=Lucida Console;fontSize=15;" parent="1" vertex="1">
          <mxGeometry x="-450" y="3588" width="220" height="120" as="geometry" />
        </mxCell>
        <mxCell id="bBNReim9IivtYAumU8x--229" style="edgeStyle=orthogonalEdgeStyle;rounded=0;orthogonalLoop=1;jettySize=auto;html=1;" parent="1" edge="1">
          <mxGeometry relative="1" as="geometry">
            <mxPoint x="3100" y="2533" as="targetPoint" />
            <mxPoint x="2830" y="2493" as="sourcePoint" />
            <Array as="points">
              <mxPoint x="3100" y="2493" />
              <mxPoint x="3100" y="2533" />
            </Array>
          </mxGeometry>
        </mxCell>
        <mxCell id="bBNReim9IivtYAumU8x--230" value="&lt;font style=&quot;font-size: 19px;&quot;&gt;Validator&lt;/font&gt;" style="html=1;dashed=0;whiteSpace=wrap;shape=mxgraph.dfd.externalEntity;fontFamily=Lucida Console;fontSize=15;" parent="1" vertex="1">
          <mxGeometry x="-400" y="3820" width="220" height="120" as="geometry" />
        </mxCell>
        <mxCell id="bBNReim9IivtYAumU8x--231" value="&lt;font style=&quot;font-size: 19px;&quot;&gt;Dept Personnel&lt;/font&gt;" style="html=1;dashed=0;whiteSpace=wrap;shape=mxgraph.dfd.externalEntity;fontFamily=Lucida Console;fontSize=15;" parent="1" vertex="1">
          <mxGeometry x="-800" y="3049" width="220" height="120" as="geometry" />
        </mxCell>
        <mxCell id="bBNReim9IivtYAumU8x--232" value="&lt;font style=&quot;font-size: 19px;&quot;&gt;Church Personnel&lt;/font&gt;" style="html=1;dashed=0;whiteSpace=wrap;shape=mxgraph.dfd.externalEntity;fontFamily=Lucida Console;fontSize=15;" parent="1" vertex="1">
          <mxGeometry x="-950" y="3579" width="220" height="120" as="geometry" />
        </mxCell>
        <mxCell id="bBNReim9IivtYAumU8x--233" value="&lt;font style=&quot;font-size: 19px;&quot;&gt;Dept Head&lt;/font&gt;" style="html=1;dashed=0;whiteSpace=wrap;shape=mxgraph.dfd.externalEntity;fontFamily=Lucida Console;fontSize=15;" parent="1" vertex="1">
          <mxGeometry x="-690" y="2617" width="215" height="161" as="geometry" />
        </mxCell>
        <mxCell id="bBNReim9IivtYAumU8x--234" value="&lt;font style=&quot;font-size: 19px;&quot;&gt;Church Head&lt;/font&gt;" style="html=1;dashed=0;whiteSpace=wrap;shape=mxgraph.dfd.externalEntity;fontFamily=Lucida Console;fontSize=15;" parent="1" vertex="1">
          <mxGeometry x="-1010" y="3302" width="220" height="120" as="geometry" />
        </mxCell>
        <mxCell id="bBNReim9IivtYAumU8x--235" value="&lt;font style=&quot;font-size: 19px;&quot;&gt;monitoring&lt;/font&gt;" style="html=1;dashed=0;whiteSpace=wrap;shape=mxgraph.dfd.externalEntity;fontFamily=Lucida Console;fontSize=15;" parent="1" vertex="1">
          <mxGeometry x="-890" y="3760" width="220" height="120" as="geometry" />
        </mxCell>
        <mxCell id="bBNReim9IivtYAumU8x--236" value="available slot in dept" style="text;html=1;align=center;verticalAlign=middle;whiteSpace=wrap;rounded=0;fontFamily=Lucida Console;fontSize=15;" parent="1" vertex="1">
          <mxGeometry x="2000" y="2677.5" width="290" height="30" as="geometry" />
        </mxCell>
        <mxCell id="bBNReim9IivtYAumU8x--237" value="Account Credentials" style="text;html=1;align=center;verticalAlign=middle;whiteSpace=wrap;rounded=0;fontFamily=Lucida Console;fontSize=15;" parent="1" vertex="1">
          <mxGeometry x="2000" y="2617" width="290" height="30" as="geometry" />
        </mxCell>
        <mxCell id="bBNReim9IivtYAumU8x--238" value="name, email" style="text;html=1;align=center;verticalAlign=middle;whiteSpace=wrap;rounded=0;fontFamily=Lucida Console;fontSize=15;" parent="1" vertex="1">
          <mxGeometry x="1990" y="2697" width="290" height="30" as="geometry" />
        </mxCell>
        <mxCell id="bBNReim9IivtYAumU8x--239" value="new username, password" style="text;html=1;align=center;verticalAlign=middle;whiteSpace=wrap;rounded=0;fontFamily=Lucida Console;fontSize=15;" parent="1" vertex="1">
          <mxGeometry x="2000" y="2658" width="290" height="30" as="geometry" />
        </mxCell>
        <mxCell id="bBNReim9IivtYAumU8x--240" value="Dept name" style="text;html=1;align=center;verticalAlign=middle;whiteSpace=wrap;rounded=0;fontFamily=Lucida Console;fontSize=15;" parent="1" vertex="1">
          <mxGeometry x="1990" y="2716" width="290" height="30" as="geometry" />
        </mxCell>
        <mxCell id="bBNReim9IivtYAumU8x--241" value="List of Scholar in Dept" style="text;html=1;align=center;verticalAlign=middle;whiteSpace=wrap;rounded=0;fontFamily=Lucida Console;fontSize=15;" parent="1" vertex="1">
          <mxGeometry x="2000" y="2600" width="290" height="30" as="geometry" />
        </mxCell>
        <mxCell id="bBNReim9IivtYAumU8x--242" value="Account Credentials" style="text;html=1;align=center;verticalAlign=middle;whiteSpace=wrap;rounded=0;fontFamily=Lucida Console;fontSize=15;" parent="1" vertex="1">
          <mxGeometry x="2071.5" y="3030" width="190" height="30" as="geometry" />
        </mxCell>
        <mxCell id="bBNReim9IivtYAumU8x--243" value="Info in Scholar scanned" style="text;html=1;align=center;verticalAlign=middle;whiteSpace=wrap;rounded=0;fontFamily=Lucida Console;fontSize=15;" parent="1" vertex="1">
          <mxGeometry x="2047" y="3049" width="244" height="30" as="geometry" />
        </mxCell>
        <mxCell id="bBNReim9IivtYAumU8x--244" value="QR Code of Department" style="text;html=1;align=center;verticalAlign=middle;whiteSpace=wrap;rounded=0;fontFamily=Lucida Console;fontSize=15;" parent="1" vertex="1">
          <mxGeometry x="2000" y="2636" width="290" height="30" as="geometry" />
        </mxCell>
        <mxCell id="bBNReim9IivtYAumU8x--245" value="Gratis Attendace(time in &amp;amp; time out)" style="text;html=1;align=center;verticalAlign=middle;whiteSpace=wrap;rounded=0;fontFamily=Lucida Console;fontSize=14;" parent="1" vertex="1">
          <mxGeometry x="1980" y="2861" width="327.5" height="30" as="geometry" />
        </mxCell>
        <mxCell id="bBNReim9IivtYAumU8x--246" value="warning of invalid scholar&amp;nbsp;" style="text;html=1;align=center;verticalAlign=middle;whiteSpace=wrap;rounded=0;fontFamily=Lucida Console;fontSize=15;" parent="1" vertex="1">
          <mxGeometry x="2053.5" y="3067" width="250" height="30" as="geometry" />
        </mxCell>
        <mxCell id="bBNReim9IivtYAumU8x--247" value="name, email" style="text;html=1;align=center;verticalAlign=middle;whiteSpace=wrap;rounded=0;fontFamily=Lucida Console;fontSize=15;" parent="1" vertex="1">
          <mxGeometry x="2008" y="2819" width="290" height="30" as="geometry" />
        </mxCell>
        <mxCell id="bBNReim9IivtYAumU8x--248" value="new username, password" style="text;html=1;align=center;verticalAlign=middle;whiteSpace=wrap;rounded=0;fontFamily=Lucida Console;fontSize=15;" parent="1" vertex="1">
          <mxGeometry x="2000" y="2839" width="290" height="30" as="geometry" />
        </mxCell>
        <mxCell id="bBNReim9IivtYAumU8x--249" value="Account Credentials" style="text;html=1;align=center;verticalAlign=middle;whiteSpace=wrap;rounded=0;fontFamily=Lucida Console;fontSize=15;" parent="1" vertex="1">
          <mxGeometry x="2057.5" y="2888" width="201" height="30" as="geometry" />
        </mxCell>
        <mxCell id="bBNReim9IivtYAumU8x--250" value="List of Scholar in Church" style="text;html=1;align=center;verticalAlign=middle;whiteSpace=wrap;rounded=0;fontFamily=Lucida Console;fontSize=15;" parent="1" vertex="1">
          <mxGeometry x="2041" y="2910" width="235" height="30" as="geometry" />
        </mxCell>
        <mxCell id="bBNReim9IivtYAumU8x--251" value="QR Code of Church" style="text;html=1;align=center;verticalAlign=middle;whiteSpace=wrap;rounded=0;fontFamily=Lucida Console;fontSize=15;" parent="1" vertex="1">
          <mxGeometry x="2066.5" y="2929" width="162" height="30" as="geometry" />
        </mxCell>
        <mxCell id="bBNReim9IivtYAumU8x--252" value="Church name" style="text;html=1;align=center;verticalAlign=middle;whiteSpace=wrap;rounded=0;fontFamily=Lucida Console;fontSize=15;" parent="1" vertex="1">
          <mxGeometry x="2105" y="2972" width="130" height="30" as="geometry" />
        </mxCell>
        <mxCell id="bBNReim9IivtYAumU8x--253" value="name, email" style="text;html=1;align=center;verticalAlign=middle;whiteSpace=wrap;rounded=0;fontFamily=Lucida Console;fontSize=15;" parent="1" vertex="1">
          <mxGeometry x="2106.5" y="2990" width="125" height="30" as="geometry" />
        </mxCell>
        <mxCell id="bBNReim9IivtYAumU8x--254" value="OTP" style="text;html=1;align=center;verticalAlign=middle;whiteSpace=wrap;rounded=0;fontFamily=Lucida Console;fontSize=15;" parent="1" vertex="1">
          <mxGeometry x="2238" y="2201" width="60" height="30" as="geometry" />
        </mxCell>
        <mxCell id="bBNReim9IivtYAumU8x--255" value="OTP(email)" style="text;html=1;align=center;verticalAlign=middle;whiteSpace=wrap;rounded=0;fontFamily=Lucida Console;fontSize=15;" parent="1" vertex="1">
          <mxGeometry x="2075" y="2380" width="105" height="30" as="geometry" />
        </mxCell>
        <mxCell id="bBNReim9IivtYAumU8x--256" value="new username, password" style="text;html=1;align=center;verticalAlign=middle;whiteSpace=wrap;rounded=0;fontFamily=Lucida Console;fontSize=15;" parent="1" vertex="1">
          <mxGeometry x="2141" y="2080" width="290" height="30" as="geometry" />
        </mxCell>
        <mxCell id="bBNReim9IivtYAumU8x--257" value="new username, password" style="text;html=1;align=center;verticalAlign=middle;whiteSpace=wrap;rounded=0;fontFamily=Lucida Console;fontSize=15;" parent="1" vertex="1">
          <mxGeometry x="2050.5" y="2949" width="215" height="30" as="geometry" />
        </mxCell>
        <mxCell id="bBNReim9IivtYAumU8x--258" value="Account Credentials" style="text;html=1;align=center;verticalAlign=middle;whiteSpace=wrap;rounded=0;fontFamily=Lucida Console;fontSize=15;" parent="1" vertex="1">
          <mxGeometry x="2008" y="2760" width="290" height="30" as="geometry" />
        </mxCell>
        <mxCell id="bBNReim9IivtYAumU8x--259" value="Info in Scholar scanned" style="text;html=1;align=center;verticalAlign=middle;whiteSpace=wrap;rounded=0;fontFamily=Lucida Console;fontSize=15;" parent="1" vertex="1">
          <mxGeometry x="2008" y="2800" width="290" height="30" as="geometry" />
        </mxCell>
        <mxCell id="bBNReim9IivtYAumU8x--260" value="warning of invalid scholar&amp;nbsp;" style="text;html=1;align=center;verticalAlign=middle;whiteSpace=wrap;rounded=0;fontFamily=Lucida Console;fontSize=15;" parent="1" vertex="1">
          <mxGeometry x="2033" y="2780" width="250" height="30" as="geometry" />
        </mxCell>
        <mxCell id="bBNReim9IivtYAumU8x--261" value="Fellowship Attendance" style="text;html=1;align=center;verticalAlign=middle;whiteSpace=wrap;rounded=0;fontFamily=Lucida Console;fontSize=15;" parent="1" vertex="1">
          <mxGeometry x="2067" y="3108" width="209" height="30" as="geometry" />
        </mxCell>
        <mxCell id="bBNReim9IivtYAumU8x--262" value="name, email" style="text;html=1;align=center;verticalAlign=middle;whiteSpace=wrap;rounded=0;fontFamily=Lucida Console;fontSize=15;" parent="1" vertex="1">
          <mxGeometry x="2114" y="3188" width="110" height="30" as="geometry" />
        </mxCell>
        <mxCell id="bBNReim9IivtYAumU8x--263" value="new username, password" style="text;html=1;align=center;verticalAlign=middle;whiteSpace=wrap;rounded=0;fontFamily=Lucida Console;fontSize=15;" parent="1" vertex="1">
          <mxGeometry x="2061.5" y="3129" width="220" height="30" as="geometry" />
        </mxCell>
        <mxCell id="bBNReim9IivtYAumU8x--264" value="List of Passed Applicant" style="text;html=1;align=center;verticalAlign=middle;whiteSpace=wrap;rounded=0;fontFamily=Lucida Console;fontSize=15;" parent="1" vertex="1">
          <mxGeometry x="1932.5" y="2477" width="290" height="30" as="geometry" />
        </mxCell>
        <mxCell id="bBNReim9IivtYAumU8x--265" value="Reports" style="text;html=1;align=center;verticalAlign=middle;whiteSpace=wrap;rounded=0;fontFamily=Lucida Console;fontSize=15;" parent="1" vertex="1">
          <mxGeometry x="1952" y="2400" width="290" height="30" as="geometry" />
        </mxCell>
        <mxCell id="bBNReim9IivtYAumU8x--266" value="Report" style="text;html=1;align=center;verticalAlign=middle;whiteSpace=wrap;rounded=0;fontFamily=Lucida Console;fontSize=15;" parent="1" vertex="1">
          <mxGeometry x="2130" y="3007" width="75" height="30" as="geometry" />
        </mxCell>
        <mxCell id="bBNReim9IivtYAumU8x--267" value="Report" style="text;html=1;align=center;verticalAlign=middle;whiteSpace=wrap;rounded=0;fontFamily=Lucida Console;fontSize=15;" parent="1" vertex="1">
          <mxGeometry x="2000" y="2738" width="290" height="30" as="geometry" />
        </mxCell>
        <mxCell id="bBNReim9IivtYAumU8x--268" value="new username, password" style="text;html=1;align=center;verticalAlign=middle;whiteSpace=wrap;rounded=0;fontFamily=Lucida Console;fontSize=15;" parent="1" vertex="1">
          <mxGeometry x="2235" y="3348" width="220" height="30" as="geometry" />
        </mxCell>
        <mxCell id="bBNReim9IivtYAumU8x--269" value="name, email" style="text;html=1;align=center;verticalAlign=middle;whiteSpace=wrap;rounded=0;fontFamily=Lucida Console;fontSize=15;" parent="1" vertex="1">
          <mxGeometry x="2267.5" y="3309" width="150" height="30" as="geometry" />
        </mxCell>
        <mxCell id="bBNReim9IivtYAumU8x--270" value="Daily Report of monitored scholars" style="text;html=1;align=center;verticalAlign=middle;whiteSpace=wrap;rounded=0;fontFamily=Lucida Console;fontSize=15;" parent="1" vertex="1">
          <mxGeometry x="2184" y="3370" width="310" height="30" as="geometry" />
        </mxCell>
        <mxCell id="bBNReim9IivtYAumU8x--271" value="Violation Report" style="text;html=1;align=center;verticalAlign=middle;whiteSpace=wrap;rounded=0;fontFamily=Lucida Console;fontSize=15;" parent="1" vertex="1">
          <mxGeometry x="2258.5" y="3328" width="168" height="30" as="geometry" />
        </mxCell>
        <mxCell id="bBNReim9IivtYAumU8x--272" value="Account Credentials" style="text;html=1;align=center;verticalAlign=middle;whiteSpace=wrap;rounded=0;fontFamily=Lucida Console;fontSize=15;" parent="1" vertex="1">
          <mxGeometry x="2216" y="3250" width="220" height="30" as="geometry" />
        </mxCell>
        <mxCell id="bBNReim9IivtYAumU8x--273" value="Info in Scholar scanned" style="text;html=1;align=center;verticalAlign=middle;whiteSpace=wrap;rounded=0;fontFamily=Lucida Console;fontSize=15;" parent="1" vertex="1">
          <mxGeometry x="2218" y="3269" width="220" height="30" as="geometry" />
        </mxCell>
        <mxCell id="bBNReim9IivtYAumU8x--274" value="Gratis Attendace&lt;div&gt;(time in &amp;amp; time out)&lt;/div&gt;" style="text;html=1;align=center;verticalAlign=middle;whiteSpace=wrap;rounded=0;fontFamily=Lucida Console;fontSize=15;" parent="1" vertex="1">
          <mxGeometry x="2850" y="2791" width="190" height="30" as="geometry" />
        </mxCell>
        <mxCell id="bBNReim9IivtYAumU8x--275" value="new username, password" style="text;html=1;align=center;verticalAlign=middle;whiteSpace=wrap;rounded=0;fontFamily=Lucida Console;fontSize=15;" parent="1" vertex="1">
          <mxGeometry x="2821" y="2741" width="290" height="30" as="geometry" />
        </mxCell>
        <mxCell id="bBNReim9IivtYAumU8x--276" value="name, email" style="text;html=1;align=center;verticalAlign=middle;whiteSpace=wrap;rounded=0;fontFamily=Lucida Console;fontSize=15;" parent="1" vertex="1">
          <mxGeometry x="2887" y="2721" width="139" height="30" as="geometry" />
        </mxCell>
        <mxCell id="bBNReim9IivtYAumU8x--277" value="Report" style="text;html=1;align=center;verticalAlign=middle;whiteSpace=wrap;rounded=0;fontFamily=Lucida Console;fontSize=15;" parent="1" vertex="1">
          <mxGeometry x="2906.5" y="2677" width="100" height="30" as="geometry" />
        </mxCell>
        <mxCell id="bBNReim9IivtYAumU8x--278" value="Account Credentials" style="text;html=1;align=center;verticalAlign=middle;whiteSpace=wrap;rounded=0;fontFamily=Lucida Console;fontSize=15;" parent="1" vertex="1">
          <mxGeometry x="2854" y="2489" width="182" height="30" as="geometry" />
        </mxCell>
        <mxCell id="bBNReim9IivtYAumU8x--279" value="List of Applicants (with name, email, partial or Full &amp;amp; files)" style="text;html=1;align=center;verticalAlign=middle;whiteSpace=wrap;rounded=0;fontFamily=Lucida Console;fontSize=15;" parent="1" vertex="1">
          <mxGeometry x="2831" y="2456" width="289" height="30" as="geometry" />
        </mxCell>
        <mxCell id="bBNReim9IivtYAumU8x--280" value="List of Passed Applicants" style="text;html=1;align=center;verticalAlign=middle;whiteSpace=wrap;rounded=0;fontFamily=Lucida Console;fontSize=15;" parent="1" vertex="1">
          <mxGeometry x="2821" y="2761" width="290" height="30" as="geometry" />
        </mxCell>
        <mxCell id="bBNReim9IivtYAumU8x--281" value="name, email" style="text;html=1;align=center;verticalAlign=middle;whiteSpace=wrap;rounded=0;fontFamily=Lucida Console;fontSize=15;" parent="1" vertex="1">
          <mxGeometry x="2791" y="2355" width="120" height="30" as="geometry" />
        </mxCell>
        <mxCell id="bBNReim9IivtYAumU8x--282" value="soft copy requirements(files)" style="text;html=1;align=center;verticalAlign=middle;whiteSpace=wrap;rounded=0;fontFamily=Lucida Console;fontSize=15;" parent="1" vertex="1">
          <mxGeometry x="2720" y="2377" width="290" height="30" as="geometry" />
        </mxCell>
        <mxCell id="bBNReim9IivtYAumU8x--283" value="&lt;span class=&quot;_fadeIn_m1hgl_8&quot;&gt;Partial (&lt;/span&gt;&lt;span class=&quot;_fadeIn_m1hgl_8&quot;&gt;40%) &lt;/span&gt;&lt;span class=&quot;_fadeIn_m1hgl_8&quot;&gt;or &lt;/span&gt;&lt;span class=&quot;_fadeIn_m1hgl_8&quot;&gt;Full (&lt;/span&gt;&lt;span class=&quot;_fadeIn_m1hgl_8&quot;&gt;100%) Scho&lt;/span&gt;" style="text;html=1;align=center;verticalAlign=middle;whiteSpace=wrap;rounded=0;fontFamily=Lucida Console;fontSize=15;" parent="1" vertex="1">
          <mxGeometry x="2706" y="2400" width="320" height="30" as="geometry" />
        </mxCell>
        <mxCell id="bBNReim9IivtYAumU8x--284" value="rejection from validator(e.g.invalid docu)" style="text;html=1;align=center;verticalAlign=middle;whiteSpace=wrap;rounded=0;fontFamily=Lucida Console;fontSize=15;" parent="1" vertex="1">
          <mxGeometry x="2612.25" y="2018" width="389.5" height="30" as="geometry" />
        </mxCell>
        <mxCell id="bBNReim9IivtYAumU8x--285" value="rejection" style="text;html=1;align=center;verticalAlign=middle;whiteSpace=wrap;rounded=0;fontFamily=Lucida Console;fontSize=15;" parent="1" vertex="1">
          <mxGeometry x="2896" y="2699" width="130" height="30" as="geometry" />
        </mxCell>
        <mxCell id="bBNReim9IivtYAumU8x--286" value="Approval (from admin)" style="text;html=1;align=center;verticalAlign=middle;whiteSpace=wrap;rounded=0;fontFamily=Lucida Console;fontSize=15;" parent="1" vertex="1">
          <mxGeometry x="2651" y="2059" width="290" height="30" as="geometry" />
        </mxCell>
        <mxCell id="bBNReim9IivtYAumU8x--287" value="Account Credentials(as scho)" style="text;html=1;align=center;verticalAlign=middle;whiteSpace=wrap;rounded=0;fontFamily=Lucida Console;fontSize=15;" parent="1" vertex="1">
          <mxGeometry x="2660" y="2040" width="290" height="30" as="geometry" />
        </mxCell>
        <mxCell id="bBNReim9IivtYAumU8x--288" value="Approval (for application or exit)" style="text;html=1;align=center;verticalAlign=middle;whiteSpace=wrap;rounded=0;fontFamily=Lucida Console;fontSize=15;" parent="1" vertex="1">
          <mxGeometry x="2096" y="2040" width="330" height="30" as="geometry" />
        </mxCell>
        <mxCell id="bBNReim9IivtYAumU8x--289" value="&lt;span class=&quot;_fadeIn_m1hgl_8&quot;&gt;Scholarship &lt;/span&gt;&lt;span class=&quot;_fadeIn_m1hgl_8&quot;&gt;Slot &lt;/span&gt;&lt;span class=&quot;_fadeIn_m1hgl_8&quot;&gt;Limit&lt;/span&gt;" style="text;html=1;align=center;verticalAlign=middle;whiteSpace=wrap;rounded=0;fontFamily=Lucida Console;fontSize=15;" parent="1" vertex="1">
          <mxGeometry x="2136" y="2099" width="290" height="30" as="geometry" />
        </mxCell>
        <mxCell id="bBNReim9IivtYAumU8x--290" value="Total Gratis Hours Required" style="text;html=1;align=center;verticalAlign=middle;whiteSpace=wrap;rounded=0;fontFamily=Lucida Console;fontSize=15;" parent="1" vertex="1">
          <mxGeometry x="2147" y="2059" width="250" height="30" as="geometry" />
        </mxCell>
        <mxCell id="bBNReim9IivtYAumU8x--291" value="Fellowship Date" style="text;html=1;align=center;verticalAlign=middle;whiteSpace=wrap;rounded=0;fontFamily=Lucida Console;fontSize=15;" parent="1" vertex="1">
          <mxGeometry x="2124" y="2178" width="290" height="30" as="geometry" />
        </mxCell>
        <mxCell id="bBNReim9IivtYAumU8x--292" value="Fellowship Date" style="text;html=1;align=center;verticalAlign=middle;whiteSpace=wrap;rounded=0;fontFamily=Lucida Console;fontSize=15;" parent="1" vertex="1">
          <mxGeometry x="2083.25" y="3088" width="173.5" height="30" as="geometry" />
        </mxCell>
        <mxCell id="bBNReim9IivtYAumU8x--293" value="Grand Fellowship Date" style="text;html=1;align=center;verticalAlign=middle;whiteSpace=wrap;rounded=0;fontFamily=Lucida Console;fontSize=15;" parent="1" vertex="1">
          <mxGeometry x="2071.5" y="3148" width="200" height="30" as="geometry" />
        </mxCell>
        <mxCell id="bBNReim9IivtYAumU8x--294" value="QR code of Scho" style="text;html=1;align=center;verticalAlign=middle;whiteSpace=wrap;rounded=0;fontFamily=Lucida Console;fontSize=15;" parent="1" vertex="1">
          <mxGeometry x="2706" y="3452" width="140" height="30" as="geometry" />
        </mxCell>
        <mxCell id="bBNReim9IivtYAumU8x--295" value="Total Fellowship,Gratis duty hours per scho" style="text;html=1;align=center;verticalAlign=middle;whiteSpace=wrap;rounded=0;fontFamily=Lucida Console;fontSize=15;" parent="1" vertex="1">
          <mxGeometry x="1865" y="2578" width="400" height="30" as="geometry" />
        </mxCell>
        <mxCell id="bBNReim9IivtYAumU8x--296" value="Violation Hours" style="text;html=1;align=center;verticalAlign=middle;whiteSpace=wrap;rounded=0;fontFamily=Lucida Console;fontSize=15;" parent="1" vertex="1">
          <mxGeometry x="2124" y="2141" width="290" height="30" as="geometry" />
        </mxCell>
        <mxCell id="bBNReim9IivtYAumU8x--297" value="Exit request" style="text;html=1;align=center;verticalAlign=middle;whiteSpace=wrap;rounded=0;fontFamily=Lucida Console;fontSize=15;" parent="1" vertex="1">
          <mxGeometry x="2820" y="2880" width="176" height="30" as="geometry" />
        </mxCell>
        <mxCell id="bBNReim9IivtYAumU8x--298" value="Exit Request" style="text;html=1;align=center;verticalAlign=middle;whiteSpace=wrap;rounded=0;fontFamily=Lucida Console;fontSize=15;" parent="1" vertex="1">
          <mxGeometry x="1912" y="2459" width="290" height="30" as="geometry" />
        </mxCell>
        <mxCell id="bBNReim9IivtYAumU8x--299" value="Caregroup Date" style="text;html=1;align=center;verticalAlign=middle;whiteSpace=wrap;rounded=0;fontFamily=Lucida Console;fontSize=15;" parent="1" vertex="1">
          <mxGeometry x="2095.75" y="3168" width="143.5" height="30" as="geometry" />
        </mxCell>
        <mxCell id="bBNReim9IivtYAumU8x--300" value="&lt;span class=&quot;_fadeIn_m1hgl_8&quot;&gt;List &lt;/span&gt;&lt;span class=&quot;_fadeIn_m1hgl_8&quot;&gt;of &lt;/span&gt;&lt;span class=&quot;_fadeIn_m1hgl_8&quot;&gt;Scheduled &lt;/span&gt;&lt;span class=&quot;_fadeIn_m1hgl_8&quot;&gt;Care &lt;/span&gt;&lt;span class=&quot;_fadeIn_m1hgl_8&quot;&gt;Group &lt;/span&gt;&lt;span class=&quot;_fadeIn_m1hgl_8&quot;&gt;Dates&lt;/span&gt;" style="text;html=1;align=center;verticalAlign=middle;whiteSpace=wrap;rounded=0;fontFamily=Lucida Console;fontSize=15;" parent="1" vertex="1">
          <mxGeometry x="1877" y="2560" width="325" height="30" as="geometry" />
        </mxCell>
        <mxCell id="bBNReim9IivtYAumU8x--301" value="Created Accounts(with corresponding roles)" style="text;html=1;align=center;verticalAlign=middle;whiteSpace=wrap;rounded=0;fontFamily=Lucida Console;fontSize=15;" parent="1" vertex="1">
          <mxGeometry x="2039" y="1980" width="410" height="30" as="geometry" />
        </mxCell>
        <mxCell id="bBNReim9IivtYAumU8x--302" value="Application Form" style="text;html=1;align=center;verticalAlign=middle;whiteSpace=wrap;rounded=0;fontFamily=Lucida Console;fontSize=15;" parent="1" vertex="1">
          <mxGeometry x="2141" y="2118" width="290" height="30" as="geometry" />
        </mxCell>
        <mxCell id="bBNReim9IivtYAumU8x--303" value="needed requirements for renewal or application" style="text;html=1;align=center;verticalAlign=middle;whiteSpace=wrap;rounded=0;fontFamily=Lucida Console;fontSize=15;" parent="1" vertex="1">
          <mxGeometry x="2030" y="2000" width="430" height="30" as="geometry" />
        </mxCell>
        <mxCell id="bBNReim9IivtYAumU8x--304" value="List of Qr codes per Dept &amp;amp; church" style="text;html=1;align=center;verticalAlign=middle;whiteSpace=wrap;rounded=0;fontFamily=Lucida Console;fontSize=14;" parent="1" vertex="1">
          <mxGeometry x="1925" y="2500.5" width="340" height="27" as="geometry" />
        </mxCell>
        <mxCell id="bBNReim9IivtYAumU8x--305" value="&lt;span class=&quot;_fadeIn_m1hgl_8&quot;&gt;All &lt;/span&gt;&lt;span class=&quot;_fadeIn_m1hgl_8&quot;&gt;Created &lt;/span&gt;&lt;span class=&quot;_fadeIn_m1hgl_8&quot;&gt;Accounts – &lt;/span&gt;&lt;span class=&quot;_fadeIn_m1hgl_8&quot;&gt;Sorted &lt;/span&gt;&lt;span class=&quot;_fadeIn_m1hgl_8&quot;&gt;by &lt;/span&gt;&lt;span class=&quot;_fadeIn_m1hgl_8&quot;&gt;Role&lt;/span&gt;" style="text;html=1;align=center;verticalAlign=middle;whiteSpace=wrap;rounded=0;fontFamily=Lucida Console;fontSize=15;" parent="1" vertex="1">
          <mxGeometry x="1905" y="2538" width="345" height="30" as="geometry" />
        </mxCell>
        <mxCell id="bBNReim9IivtYAumU8x--306" value="Available Dept." style="text;html=1;align=center;verticalAlign=middle;whiteSpace=wrap;rounded=0;fontFamily=Lucida Console;fontSize=15;" parent="1" vertex="1">
          <mxGeometry x="1941" y="2440" width="290" height="30" as="geometry" />
        </mxCell>
        <mxCell id="bBNReim9IivtYAumU8x--307" value="Date of Grand Fellowship per Church" style="text;html=1;align=center;verticalAlign=middle;whiteSpace=wrap;rounded=0;fontFamily=Lucida Console;fontSize=15;" parent="1" vertex="1">
          <mxGeometry x="1910" y="2520" width="350" height="30" as="geometry" />
        </mxCell>
        <mxCell id="bBNReim9IivtYAumU8x--308" value="List of Monitored Accounts" style="text;html=1;align=center;verticalAlign=middle;whiteSpace=wrap;rounded=0;fontFamily=Lucida Console;fontSize=15;" parent="1" vertex="1">
          <mxGeometry x="2216" y="3291" width="240" height="30" as="geometry" />
        </mxCell>
        <mxCell id="bBNReim9IivtYAumU8x--309" value="&lt;span class=&quot;_fadeIn_m1hgl_8&quot;&gt;List &lt;/span&gt;&lt;span class=&quot;_fadeIn_m1hgl_8&quot;&gt;of &lt;/span&gt;&lt;span class=&quot;_fadeIn_m1hgl_8&quot;&gt;Grantslip &lt;/span&gt;&lt;span class=&quot;_fadeIn_m1hgl_8&quot;&gt;Recipients&lt;/span&gt;" style="text;html=1;align=center;verticalAlign=middle;whiteSpace=wrap;rounded=0;fontFamily=Lucida Console;fontSize=15;" parent="1" vertex="1">
          <mxGeometry x="2020" y="2420" width="290" height="30" as="geometry" />
        </mxCell>
        <mxCell id="bBNReim9IivtYAumU8x--310" value="I" style="text;html=1;align=center;verticalAlign=middle;whiteSpace=wrap;rounded=0;fontFamily=Lucida Console;fontSize=15;" parent="1" vertex="1">
          <mxGeometry x="2760" y="2148" width="50" height="30" as="geometry" />
        </mxCell>
        <mxCell id="bBNReim9IivtYAumU8x--311" style="edgeStyle=orthogonalEdgeStyle;rounded=0;orthogonalLoop=1;jettySize=auto;html=1;" parent="1" edge="1">
          <mxGeometry relative="1" as="geometry">
            <mxPoint x="2320" y="2453" as="sourcePoint" />
            <mxPoint x="2030" y="2243" as="targetPoint" />
            <Array as="points">
              <mxPoint x="2030" y="2443" />
            </Array>
          </mxGeometry>
        </mxCell>
        <mxCell id="bBNReim9IivtYAumU8x--312" style="edgeStyle=orthogonalEdgeStyle;rounded=0;orthogonalLoop=1;jettySize=auto;html=1;entryX=0.923;entryY=1.03;entryDx=0;entryDy=0;entryPerimeter=0;" parent="1" edge="1">
          <mxGeometry relative="1" as="geometry">
            <mxPoint x="1770" y="3130" as="sourcePoint" />
            <mxPoint x="2011" y="2243" as="targetPoint" />
            <Array as="points">
              <mxPoint x="2011" y="2463" />
            </Array>
          </mxGeometry>
        </mxCell>
        <mxCell id="bBNReim9IivtYAumU8x--313" style="edgeStyle=orthogonalEdgeStyle;rounded=0;orthogonalLoop=1;jettySize=auto;html=1;" parent="1" edge="1">
          <mxGeometry relative="1" as="geometry">
            <mxPoint x="2300" y="2563" as="sourcePoint" />
            <mxPoint x="1930" y="2183" as="targetPoint" />
            <Array as="points">
              <mxPoint x="1900" y="2563" />
              <mxPoint x="1900" y="2183" />
            </Array>
          </mxGeometry>
        </mxCell>
        <mxCell id="bBNReim9IivtYAumU8x--314" style="edgeStyle=orthogonalEdgeStyle;rounded=0;orthogonalLoop=1;jettySize=auto;html=1;" parent="1" edge="1">
          <mxGeometry relative="1" as="geometry">
            <mxPoint x="2300" y="2583" as="sourcePoint" />
            <mxPoint x="1930" y="2163" as="targetPoint" />
            <Array as="points">
              <mxPoint x="1880" y="2583" />
              <mxPoint x="1880" y="2163" />
            </Array>
          </mxGeometry>
        </mxCell>
        <mxCell id="bBNReim9IivtYAumU8x--315" style="edgeStyle=orthogonalEdgeStyle;rounded=0;orthogonalLoop=1;jettySize=auto;html=1;entryX=0.923;entryY=1.03;entryDx=0;entryDy=0;entryPerimeter=0;" parent="1" edge="1">
          <mxGeometry relative="1" as="geometry">
            <mxPoint x="2300" y="2503" as="sourcePoint" />
            <mxPoint x="1966" y="2243" as="targetPoint" />
            <Array as="points">
              <mxPoint x="1966" y="2503" />
            </Array>
          </mxGeometry>
        </mxCell>
        <mxCell id="bBNReim9IivtYAumU8x--316" style="edgeStyle=orthogonalEdgeStyle;rounded=0;orthogonalLoop=1;jettySize=auto;html=1;" parent="1" edge="1">
          <mxGeometry relative="1" as="geometry">
            <mxPoint x="2300" y="2603" as="sourcePoint" />
            <mxPoint x="1930" y="2143" as="targetPoint" />
            <Array as="points">
              <mxPoint x="1860" y="2603" />
              <mxPoint x="1860" y="2143" />
            </Array>
          </mxGeometry>
        </mxCell>
        <mxCell id="bBNReim9IivtYAumU8x--317" style="edgeStyle=orthogonalEdgeStyle;rounded=0;orthogonalLoop=1;jettySize=auto;html=1;entryX=0.923;entryY=1.03;entryDx=0;entryDy=0;entryPerimeter=0;" parent="1" edge="1">
          <mxGeometry relative="1" as="geometry">
            <mxPoint x="2300" y="2483" as="sourcePoint" />
            <mxPoint x="1990" y="2243" as="targetPoint" />
            <Array as="points">
              <mxPoint x="1990" y="2483" />
            </Array>
          </mxGeometry>
        </mxCell>
        <mxCell id="bBNReim9IivtYAumU8x--318" style="edgeStyle=orthogonalEdgeStyle;rounded=0;orthogonalLoop=1;jettySize=auto;html=1;" parent="1" edge="1">
          <mxGeometry relative="1" as="geometry">
            <mxPoint x="2300" y="2543" as="sourcePoint" />
            <mxPoint x="1930" y="2203" as="targetPoint" />
            <Array as="points">
              <mxPoint x="2300" y="2543" />
              <mxPoint x="1920" y="2543" />
              <mxPoint x="1920" y="2203" />
            </Array>
          </mxGeometry>
        </mxCell>
        <mxCell id="bBNReim9IivtYAumU8x--319" style="edgeStyle=orthogonalEdgeStyle;rounded=0;orthogonalLoop=1;jettySize=auto;html=1;" parent="1" edge="1">
          <mxGeometry relative="1" as="geometry">
            <mxPoint x="2360" y="2453" as="sourcePoint" />
            <mxPoint x="2070" y="2243" as="targetPoint" />
            <Array as="points">
              <mxPoint x="2070" y="2403" />
            </Array>
          </mxGeometry>
        </mxCell>
        <mxCell id="bBNReim9IivtYAumU8x--320" style="edgeStyle=orthogonalEdgeStyle;rounded=0;orthogonalLoop=1;jettySize=auto;html=1;entryX=0.923;entryY=1.03;entryDx=0;entryDy=0;entryPerimeter=0;" parent="1" edge="1">
          <mxGeometry relative="1" as="geometry">
            <mxPoint x="2300" y="2523" as="sourcePoint" />
            <mxPoint x="1942" y="2245.5" as="targetPoint" />
            <Array as="points">
              <mxPoint x="1942" y="2523" />
            </Array>
          </mxGeometry>
        </mxCell>
        <mxCell id="bBNReim9IivtYAumU8x--321" style="edgeStyle=orthogonalEdgeStyle;rounded=0;orthogonalLoop=1;jettySize=auto;html=1;" parent="1" edge="1">
          <mxGeometry relative="1" as="geometry">
            <mxPoint x="2340" y="2453" as="sourcePoint" />
            <mxPoint x="2050" y="2243" as="targetPoint" />
            <Array as="points">
              <mxPoint x="2340" y="2423" />
              <mxPoint x="2050" y="2423" />
            </Array>
          </mxGeometry>
        </mxCell>
        <mxCell id="bBNReim9IivtYAumU8x--322" style="edgeStyle=orthogonalEdgeStyle;rounded=0;orthogonalLoop=1;jettySize=auto;html=1;" parent="1" edge="1">
          <mxGeometry relative="1" as="geometry">
            <mxPoint x="2400" y="2453" as="targetPoint" />
            <mxPoint x="2170" y="2203" as="sourcePoint" />
            <Array as="points">
              <mxPoint x="2400" y="2203" />
            </Array>
          </mxGeometry>
        </mxCell>
        <mxCell id="bBNReim9IivtYAumU8x--323" style="edgeStyle=orthogonalEdgeStyle;rounded=0;orthogonalLoop=1;jettySize=auto;html=1;" parent="1" edge="1">
          <mxGeometry relative="1" as="geometry">
            <mxPoint x="2420" y="2453" as="targetPoint" />
            <mxPoint x="2170" y="2183" as="sourcePoint" />
            <Array as="points">
              <mxPoint x="2420" y="2183" />
            </Array>
          </mxGeometry>
        </mxCell>
        <mxCell id="bBNReim9IivtYAumU8x--324" style="edgeStyle=orthogonalEdgeStyle;rounded=0;orthogonalLoop=1;jettySize=auto;html=1;" parent="1" edge="1">
          <mxGeometry relative="1" as="geometry">
            <mxPoint x="2440" y="2453" as="targetPoint" />
            <mxPoint x="2170" y="2162" as="sourcePoint" />
            <Array as="points">
              <mxPoint x="2440" y="2162" />
            </Array>
          </mxGeometry>
        </mxCell>
        <mxCell id="bBNReim9IivtYAumU8x--325" style="edgeStyle=orthogonalEdgeStyle;rounded=0;orthogonalLoop=1;jettySize=auto;html=1;" parent="1" edge="1">
          <mxGeometry relative="1" as="geometry">
            <mxPoint x="2460" y="2453" as="targetPoint" />
            <mxPoint x="2170" y="2141" as="sourcePoint" />
            <Array as="points">
              <mxPoint x="2460" y="2141" />
            </Array>
          </mxGeometry>
        </mxCell>
        <mxCell id="bBNReim9IivtYAumU8x--326" style="edgeStyle=orthogonalEdgeStyle;rounded=0;orthogonalLoop=1;jettySize=auto;html=1;" parent="1" edge="1">
          <mxGeometry relative="1" as="geometry">
            <mxPoint x="2480" y="2453" as="targetPoint" />
            <mxPoint x="2170" y="2122" as="sourcePoint" />
            <Array as="points">
              <mxPoint x="2480" y="2122" />
            </Array>
          </mxGeometry>
        </mxCell>
        <mxCell id="bBNReim9IivtYAumU8x--327" style="edgeStyle=orthogonalEdgeStyle;rounded=0;orthogonalLoop=1;jettySize=auto;html=1;" parent="1" edge="1">
          <mxGeometry relative="1" as="geometry">
            <mxPoint x="2520" y="2453" as="targetPoint" />
            <mxPoint x="2070" y="2103" as="sourcePoint" />
            <Array as="points">
              <mxPoint x="2070" y="2083" />
              <mxPoint x="2520" y="2083" />
            </Array>
          </mxGeometry>
        </mxCell>
        <mxCell id="bBNReim9IivtYAumU8x--328" style="edgeStyle=orthogonalEdgeStyle;rounded=0;orthogonalLoop=1;jettySize=auto;html=1;" parent="1" edge="1">
          <mxGeometry relative="1" as="geometry">
            <mxPoint x="2540" y="2453" as="targetPoint" />
            <mxPoint x="2050" y="2103" as="sourcePoint" />
            <Array as="points">
              <mxPoint x="2050" y="2103" />
              <mxPoint x="2050" y="2063" />
              <mxPoint x="2430" y="2063" />
            </Array>
          </mxGeometry>
        </mxCell>
        <mxCell id="bBNReim9IivtYAumU8x--329" style="edgeStyle=orthogonalEdgeStyle;rounded=0;orthogonalLoop=1;jettySize=auto;html=1;" parent="1" edge="1">
          <mxGeometry relative="1" as="geometry">
            <mxPoint x="2560" y="2453" as="targetPoint" />
            <mxPoint x="2030" y="2103" as="sourcePoint" />
            <Array as="points">
              <mxPoint x="2030" y="2043" />
              <mxPoint x="2560" y="2043" />
            </Array>
          </mxGeometry>
        </mxCell>
        <mxCell id="bBNReim9IivtYAumU8x--330" style="edgeStyle=orthogonalEdgeStyle;rounded=0;orthogonalLoop=1;jettySize=auto;html=1;" parent="1" edge="1">
          <mxGeometry relative="1" as="geometry">
            <mxPoint x="2580" y="2453" as="targetPoint" />
            <mxPoint x="2010" y="2103" as="sourcePoint" />
            <Array as="points">
              <mxPoint x="2010" y="2023" />
              <mxPoint x="2580" y="2023" />
            </Array>
          </mxGeometry>
        </mxCell>
        <mxCell id="bBNReim9IivtYAumU8x--331" value="Date of Renewal, Application" style="text;html=1;align=center;verticalAlign=middle;whiteSpace=wrap;rounded=0;fontFamily=Lucida Console;fontSize=15;" parent="1" vertex="1">
          <mxGeometry x="2118" y="2020" width="290" height="30" as="geometry" />
        </mxCell>
        <mxCell id="bBNReim9IivtYAumU8x--332" style="edgeStyle=orthogonalEdgeStyle;rounded=0;orthogonalLoop=1;jettySize=auto;html=1;" parent="1" edge="1">
          <mxGeometry relative="1" as="geometry">
            <mxPoint x="2600" y="2453" as="targetPoint" />
            <mxPoint x="1990" y="2103" as="sourcePoint" />
            <Array as="points">
              <mxPoint x="1990" y="2003" />
              <mxPoint x="2600" y="2003" />
            </Array>
          </mxGeometry>
        </mxCell>
        <mxCell id="bBNReim9IivtYAumU8x--333" style="edgeStyle=orthogonalEdgeStyle;rounded=0;orthogonalLoop=1;jettySize=auto;html=1;" parent="1" edge="1">
          <mxGeometry relative="1" as="geometry">
            <mxPoint x="1990" y="2643" as="targetPoint" />
            <mxPoint x="2300" y="2643" as="sourcePoint" />
            <Array as="points">
              <mxPoint x="2300" y="2643" />
            </Array>
          </mxGeometry>
        </mxCell>
        <mxCell id="bBNReim9IivtYAumU8x--334" style="edgeStyle=orthogonalEdgeStyle;rounded=0;orthogonalLoop=1;jettySize=auto;html=1;" parent="1" edge="1">
          <mxGeometry relative="1" as="geometry">
            <mxPoint x="1990" y="2663" as="targetPoint" />
            <mxPoint x="2300" y="2663" as="sourcePoint" />
            <Array as="points">
              <mxPoint x="2300" y="2663" />
            </Array>
          </mxGeometry>
        </mxCell>
        <mxCell id="bBNReim9IivtYAumU8x--335" style="edgeStyle=orthogonalEdgeStyle;rounded=0;orthogonalLoop=1;jettySize=auto;html=1;" parent="1" edge="1">
          <mxGeometry relative="1" as="geometry">
            <mxPoint x="2300" y="2683" as="targetPoint" />
            <mxPoint x="1990" y="2683" as="sourcePoint" />
            <Array as="points">
              <mxPoint x="2150" y="2683" />
              <mxPoint x="2150" y="2683" />
            </Array>
          </mxGeometry>
        </mxCell>
        <mxCell id="bBNReim9IivtYAumU8x--336" style="edgeStyle=orthogonalEdgeStyle;rounded=0;orthogonalLoop=1;jettySize=auto;html=1;" parent="1" edge="1">
          <mxGeometry relative="1" as="geometry">
            <mxPoint x="2300" y="2703" as="targetPoint" />
            <mxPoint x="1990" y="2703" as="sourcePoint" />
            <Array as="points">
              <mxPoint x="2150" y="2702.3" />
              <mxPoint x="2150" y="2702.3" />
            </Array>
          </mxGeometry>
        </mxCell>
        <mxCell id="bBNReim9IivtYAumU8x--337" style="edgeStyle=orthogonalEdgeStyle;rounded=0;orthogonalLoop=1;jettySize=auto;html=1;" parent="1" edge="1">
          <mxGeometry relative="1" as="geometry">
            <mxPoint x="2300" y="2723" as="targetPoint" />
            <mxPoint x="1990" y="2723" as="sourcePoint" />
            <Array as="points">
              <mxPoint x="2070" y="2723" />
              <mxPoint x="2070" y="2723" />
            </Array>
          </mxGeometry>
        </mxCell>
        <mxCell id="bBNReim9IivtYAumU8x--338" style="edgeStyle=orthogonalEdgeStyle;rounded=0;orthogonalLoop=1;jettySize=auto;html=1;" parent="1" edge="1">
          <mxGeometry relative="1" as="geometry">
            <mxPoint x="2300" y="2742.8" as="targetPoint" />
            <mxPoint x="1990" y="2742.8" as="sourcePoint" />
            <Array as="points">
              <mxPoint x="2150" y="2742.8" />
              <mxPoint x="2150" y="2742.8" />
            </Array>
          </mxGeometry>
        </mxCell>
        <mxCell id="bBNReim9IivtYAumU8x--339" style="edgeStyle=orthogonalEdgeStyle;rounded=0;orthogonalLoop=1;jettySize=auto;html=1;" parent="1" edge="1">
          <mxGeometry relative="1" as="geometry">
            <mxPoint x="2300" y="2763" as="targetPoint" />
            <mxPoint x="1990" y="2763" as="sourcePoint" />
            <Array as="points">
              <mxPoint x="2150" y="2763" />
              <mxPoint x="2150" y="2763" />
            </Array>
          </mxGeometry>
        </mxCell>
        <mxCell id="bBNReim9IivtYAumU8x--340" style="edgeStyle=orthogonalEdgeStyle;rounded=0;orthogonalLoop=1;jettySize=auto;html=1;" parent="1" edge="1">
          <mxGeometry relative="1" as="geometry">
            <mxPoint x="1990" y="2803" as="targetPoint" />
            <mxPoint x="2300" y="2803" as="sourcePoint" />
          </mxGeometry>
        </mxCell>
        <mxCell id="bBNReim9IivtYAumU8x--341" style="edgeStyle=orthogonalEdgeStyle;rounded=0;orthogonalLoop=1;jettySize=auto;html=1;" parent="1" edge="1">
          <mxGeometry relative="1" as="geometry">
            <mxPoint x="1990" y="2823" as="targetPoint" />
            <mxPoint x="2300" y="2823" as="sourcePoint" />
          </mxGeometry>
        </mxCell>
        <mxCell id="bBNReim9IivtYAumU8x--342" style="edgeStyle=orthogonalEdgeStyle;rounded=0;orthogonalLoop=1;jettySize=auto;html=1;" parent="1" edge="1">
          <mxGeometry relative="1" as="geometry">
            <mxPoint x="2300" y="2843" as="targetPoint" />
            <mxPoint x="2000" y="2843" as="sourcePoint" />
          </mxGeometry>
        </mxCell>
        <mxCell id="bBNReim9IivtYAumU8x--343" style="edgeStyle=orthogonalEdgeStyle;rounded=0;orthogonalLoop=1;jettySize=auto;html=1;" parent="1" edge="1">
          <mxGeometry relative="1" as="geometry">
            <mxPoint x="2300" y="2863" as="targetPoint" />
            <mxPoint x="2000" y="2863" as="sourcePoint" />
          </mxGeometry>
        </mxCell>
        <mxCell id="bBNReim9IivtYAumU8x--344" style="edgeStyle=orthogonalEdgeStyle;rounded=0;orthogonalLoop=1;jettySize=auto;html=1;" parent="1" edge="1">
          <mxGeometry relative="1" as="geometry">
            <mxPoint x="2300" y="2883" as="targetPoint" />
            <mxPoint x="2000" y="2883" as="sourcePoint" />
          </mxGeometry>
        </mxCell>
        <mxCell id="bBNReim9IivtYAumU8x--345" style="edgeStyle=orthogonalEdgeStyle;rounded=0;orthogonalLoop=1;jettySize=auto;html=1;" parent="1" edge="1">
          <mxGeometry relative="1" as="geometry">
            <mxPoint x="1993" y="2913" as="targetPoint" />
            <mxPoint x="2303" y="2913" as="sourcePoint" />
          </mxGeometry>
        </mxCell>
        <mxCell id="bBNReim9IivtYAumU8x--346" style="edgeStyle=orthogonalEdgeStyle;rounded=0;orthogonalLoop=1;jettySize=auto;html=1;" parent="1" edge="1">
          <mxGeometry relative="1" as="geometry">
            <mxPoint x="1993" y="2933" as="targetPoint" />
            <mxPoint x="2310" y="2933" as="sourcePoint" />
            <Array as="points">
              <mxPoint x="2310" y="2933" />
            </Array>
          </mxGeometry>
        </mxCell>
        <mxCell id="bBNReim9IivtYAumU8x--347" style="edgeStyle=orthogonalEdgeStyle;rounded=0;orthogonalLoop=1;jettySize=auto;html=1;" parent="1" edge="1">
          <mxGeometry relative="1" as="geometry">
            <mxPoint x="1993" y="2953" as="targetPoint" />
            <mxPoint x="2320" y="2943" as="sourcePoint" />
            <Array as="points">
              <mxPoint x="2320" y="2953" />
            </Array>
          </mxGeometry>
        </mxCell>
        <mxCell id="bBNReim9IivtYAumU8x--348" style="edgeStyle=orthogonalEdgeStyle;rounded=0;orthogonalLoop=1;jettySize=auto;html=1;" parent="1" edge="1">
          <mxGeometry relative="1" as="geometry">
            <mxPoint x="2330" y="2953" as="targetPoint" />
            <mxPoint x="1997.5" y="2972.76" as="sourcePoint" />
          </mxGeometry>
        </mxCell>
        <mxCell id="bBNReim9IivtYAumU8x--349" style="edgeStyle=orthogonalEdgeStyle;rounded=0;orthogonalLoop=1;jettySize=auto;html=1;" parent="1" edge="1">
          <mxGeometry relative="1" as="geometry">
            <mxPoint x="2340" y="2953" as="targetPoint" />
            <mxPoint x="1998.5" y="2992.76" as="sourcePoint" />
          </mxGeometry>
        </mxCell>
        <mxCell id="bBNReim9IivtYAumU8x--350" style="edgeStyle=orthogonalEdgeStyle;rounded=0;orthogonalLoop=1;jettySize=auto;html=1;" parent="1" edge="1">
          <mxGeometry relative="1" as="geometry">
            <mxPoint x="2350" y="2953" as="targetPoint" />
            <mxPoint x="2000" y="3013" as="sourcePoint" />
            <Array as="points">
              <mxPoint x="2350" y="3013" />
            </Array>
          </mxGeometry>
        </mxCell>
        <mxCell id="bBNReim9IivtYAumU8x--351" style="edgeStyle=orthogonalEdgeStyle;rounded=0;orthogonalLoop=1;jettySize=auto;html=1;" parent="1" edge="1">
          <mxGeometry relative="1" as="geometry">
            <mxPoint x="2360" y="2953" as="targetPoint" />
            <mxPoint x="2000" y="3033" as="sourcePoint" />
            <Array as="points">
              <mxPoint x="2360" y="3033" />
            </Array>
          </mxGeometry>
        </mxCell>
        <mxCell id="bBNReim9IivtYAumU8x--352" style="edgeStyle=orthogonalEdgeStyle;rounded=0;orthogonalLoop=1;jettySize=auto;html=1;" parent="1" edge="1">
          <mxGeometry relative="1" as="geometry">
            <mxPoint x="2000" y="3053" as="targetPoint" />
            <mxPoint x="2370" y="2953" as="sourcePoint" />
            <Array as="points">
              <mxPoint x="2370" y="3053" />
            </Array>
          </mxGeometry>
        </mxCell>
        <mxCell id="bBNReim9IivtYAumU8x--353" style="edgeStyle=orthogonalEdgeStyle;rounded=0;orthogonalLoop=1;jettySize=auto;html=1;" parent="1" edge="1">
          <mxGeometry relative="1" as="geometry">
            <mxPoint x="2000" y="3072" as="targetPoint" />
            <mxPoint x="2380" y="2953" as="sourcePoint" />
            <Array as="points">
              <mxPoint x="2380" y="3072" />
            </Array>
          </mxGeometry>
        </mxCell>
        <mxCell id="bBNReim9IivtYAumU8x--354" style="edgeStyle=orthogonalEdgeStyle;rounded=0;orthogonalLoop=1;jettySize=auto;html=1;" parent="1" edge="1">
          <mxGeometry relative="1" as="geometry">
            <mxPoint x="2000" y="3091" as="targetPoint" />
            <mxPoint x="2390" y="2953" as="sourcePoint" />
            <Array as="points">
              <mxPoint x="2390" y="3091" />
            </Array>
          </mxGeometry>
        </mxCell>
        <mxCell id="bBNReim9IivtYAumU8x--355" style="edgeStyle=orthogonalEdgeStyle;rounded=0;orthogonalLoop=1;jettySize=auto;html=1;" parent="1" edge="1">
          <mxGeometry relative="1" as="geometry">
            <mxPoint x="2000" y="3113" as="targetPoint" />
            <mxPoint x="2400" y="2953" as="sourcePoint" />
            <Array as="points">
              <mxPoint x="2400" y="3113" />
            </Array>
          </mxGeometry>
        </mxCell>
        <mxCell id="bBNReim9IivtYAumU8x--356" style="edgeStyle=orthogonalEdgeStyle;rounded=0;orthogonalLoop=1;jettySize=auto;html=1;" parent="1" edge="1">
          <mxGeometry relative="1" as="geometry">
            <mxPoint x="2410" y="2953" as="targetPoint" />
            <mxPoint x="2000" y="3132" as="sourcePoint" />
            <Array as="points">
              <mxPoint x="2410" y="3132" />
            </Array>
          </mxGeometry>
        </mxCell>
        <mxCell id="bBNReim9IivtYAumU8x--357" style="edgeStyle=orthogonalEdgeStyle;rounded=0;orthogonalLoop=1;jettySize=auto;html=1;" parent="1" edge="1">
          <mxGeometry relative="1" as="geometry">
            <mxPoint x="2420" y="2953" as="targetPoint" />
            <mxPoint x="2000" y="3153" as="sourcePoint" />
            <Array as="points">
              <mxPoint x="2420" y="3153" />
            </Array>
          </mxGeometry>
        </mxCell>
        <mxCell id="bBNReim9IivtYAumU8x--358" style="edgeStyle=orthogonalEdgeStyle;rounded=0;orthogonalLoop=1;jettySize=auto;html=1;" parent="1" edge="1">
          <mxGeometry relative="1" as="geometry">
            <mxPoint x="2430" y="2953" as="targetPoint" />
            <mxPoint x="1680" y="3250" as="sourcePoint" />
            <Array as="points">
              <mxPoint x="1890" y="3173" />
              <mxPoint x="2430" y="3173" />
            </Array>
          </mxGeometry>
        </mxCell>
        <mxCell id="bBNReim9IivtYAumU8x--359" style="edgeStyle=orthogonalEdgeStyle;rounded=0;orthogonalLoop=1;jettySize=auto;html=1;" parent="1" edge="1">
          <mxGeometry relative="1" as="geometry">
            <mxPoint x="2440" y="2953" as="targetPoint" />
            <mxPoint x="1870" y="3173" as="sourcePoint" />
            <Array as="points">
              <mxPoint x="1870" y="3193" />
              <mxPoint x="2440" y="3193" />
            </Array>
          </mxGeometry>
        </mxCell>
        <mxCell id="bBNReim9IivtYAumU8x--360" style="edgeStyle=orthogonalEdgeStyle;rounded=0;orthogonalLoop=1;jettySize=auto;html=1;" parent="1" edge="1">
          <mxGeometry relative="1" as="geometry">
            <mxPoint x="2450" y="2953" as="targetPoint" />
            <mxPoint x="1850" y="3173" as="sourcePoint" />
            <Array as="points">
              <mxPoint x="1850" y="3213" />
              <mxPoint x="2450" y="3213" />
            </Array>
          </mxGeometry>
        </mxCell>
        <mxCell id="bBNReim9IivtYAumU8x--361" style="edgeStyle=orthogonalEdgeStyle;rounded=0;orthogonalLoop=1;jettySize=auto;html=1;" parent="1" edge="1">
          <mxGeometry relative="1" as="geometry">
            <mxPoint x="2180" y="3273" as="targetPoint" />
            <mxPoint x="2470" y="2953" as="sourcePoint" />
            <Array as="points">
              <mxPoint x="2470" y="3273" />
            </Array>
          </mxGeometry>
        </mxCell>
        <mxCell id="bBNReim9IivtYAumU8x--362" style="edgeStyle=orthogonalEdgeStyle;rounded=0;orthogonalLoop=1;jettySize=auto;html=1;" parent="1" edge="1">
          <mxGeometry relative="1" as="geometry">
            <mxPoint x="2180" y="3292" as="targetPoint" />
            <mxPoint x="2490" y="2953" as="sourcePoint" />
            <Array as="points">
              <mxPoint x="2490" y="3292" />
            </Array>
          </mxGeometry>
        </mxCell>
        <mxCell id="bBNReim9IivtYAumU8x--363" style="edgeStyle=orthogonalEdgeStyle;rounded=0;orthogonalLoop=1;jettySize=auto;html=1;" parent="1" edge="1">
          <mxGeometry relative="1" as="geometry">
            <mxPoint x="2180" y="3313" as="targetPoint" />
            <mxPoint x="2510" y="2953" as="sourcePoint" />
            <Array as="points">
              <mxPoint x="2510" y="3313" />
            </Array>
          </mxGeometry>
        </mxCell>
        <mxCell id="bBNReim9IivtYAumU8x--364" style="edgeStyle=orthogonalEdgeStyle;rounded=0;orthogonalLoop=1;jettySize=auto;html=1;" parent="1" edge="1">
          <mxGeometry relative="1" as="geometry">
            <mxPoint x="2530" y="2953" as="targetPoint" />
            <mxPoint x="2180" y="3333" as="sourcePoint" />
            <Array as="points">
              <mxPoint x="2530" y="3333" />
            </Array>
          </mxGeometry>
        </mxCell>
        <mxCell id="bBNReim9IivtYAumU8x--365" style="edgeStyle=orthogonalEdgeStyle;rounded=0;orthogonalLoop=1;jettySize=auto;html=1;" parent="1" edge="1">
          <mxGeometry relative="1" as="geometry">
            <mxPoint x="2550" y="2953" as="targetPoint" />
            <mxPoint x="2180" y="3353" as="sourcePoint" />
            <Array as="points">
              <mxPoint x="2550" y="3353" />
            </Array>
          </mxGeometry>
        </mxCell>
        <mxCell id="bBNReim9IivtYAumU8x--366" style="edgeStyle=orthogonalEdgeStyle;rounded=0;orthogonalLoop=1;jettySize=auto;html=1;" parent="1" edge="1">
          <mxGeometry relative="1" as="geometry">
            <mxPoint x="2570" y="2953" as="targetPoint" />
            <mxPoint x="2180" y="3373" as="sourcePoint" />
            <Array as="points">
              <mxPoint x="2570" y="3373" />
            </Array>
          </mxGeometry>
        </mxCell>
        <mxCell id="bBNReim9IivtYAumU8x--367" style="edgeStyle=orthogonalEdgeStyle;rounded=0;orthogonalLoop=1;jettySize=auto;html=1;" parent="1" edge="1">
          <mxGeometry relative="1" as="geometry">
            <mxPoint x="2590" y="2953" as="targetPoint" />
            <mxPoint x="2070" y="3383" as="sourcePoint" />
            <Array as="points">
              <mxPoint x="2070" y="3393" />
              <mxPoint x="2590" y="3393" />
            </Array>
          </mxGeometry>
        </mxCell>
        <mxCell id="bBNReim9IivtYAumU8x--368" style="edgeStyle=orthogonalEdgeStyle;rounded=0;orthogonalLoop=1;jettySize=auto;html=1;" parent="1" edge="1">
          <mxGeometry relative="1" as="geometry">
            <mxPoint x="2950" y="2103" as="targetPoint" />
            <mxPoint x="2640" y="2453" as="sourcePoint" />
            <Array as="points">
              <mxPoint x="2640" y="2063" />
              <mxPoint x="2950" y="2063" />
            </Array>
          </mxGeometry>
        </mxCell>
        <mxCell id="bBNReim9IivtYAumU8x--369" style="edgeStyle=orthogonalEdgeStyle;rounded=0;orthogonalLoop=1;jettySize=auto;html=1;" parent="1" edge="1">
          <mxGeometry relative="1" as="geometry">
            <mxPoint x="2990" y="2103" as="targetPoint" />
            <mxPoint x="2620" y="2453" as="sourcePoint" />
            <Array as="points">
              <mxPoint x="2620" y="2043" />
              <mxPoint x="2990" y="2043" />
            </Array>
          </mxGeometry>
        </mxCell>
        <mxCell id="bBNReim9IivtYAumU8x--370" style="edgeStyle=orthogonalEdgeStyle;rounded=0;orthogonalLoop=1;jettySize=auto;html=1;" parent="1" edge="1">
          <mxGeometry relative="1" as="geometry">
            <mxPoint x="2700" y="2453" as="targetPoint" />
            <mxPoint x="3000" y="2243" as="sourcePoint" />
            <Array as="points">
              <mxPoint x="3000" y="2402" />
              <mxPoint x="2700" y="2402" />
            </Array>
          </mxGeometry>
        </mxCell>
        <mxCell id="bBNReim9IivtYAumU8x--371" style="edgeStyle=orthogonalEdgeStyle;rounded=0;orthogonalLoop=1;jettySize=auto;html=1;" parent="1" edge="1">
          <mxGeometry relative="1" as="geometry">
            <mxPoint x="2680" y="2453" as="targetPoint" />
            <mxPoint x="2980" y="2243" as="sourcePoint" />
            <Array as="points">
              <mxPoint x="2980" y="2381" />
              <mxPoint x="2680" y="2381" />
            </Array>
          </mxGeometry>
        </mxCell>
        <mxCell id="bBNReim9IivtYAumU8x--372" style="edgeStyle=orthogonalEdgeStyle;rounded=0;orthogonalLoop=1;jettySize=auto;html=1;" parent="1" edge="1">
          <mxGeometry relative="1" as="geometry">
            <mxPoint x="3040" y="2533" as="targetPoint" />
            <mxPoint x="2829" y="2513" as="sourcePoint" />
            <Array as="points">
              <mxPoint x="3040" y="2513" />
            </Array>
          </mxGeometry>
        </mxCell>
        <mxCell id="bBNReim9IivtYAumU8x--373" style="edgeStyle=orthogonalEdgeStyle;rounded=0;orthogonalLoop=1;jettySize=auto;html=1;" parent="1" edge="1">
          <mxGeometry relative="1" as="geometry">
            <mxPoint x="2830" y="2704" as="targetPoint" />
            <mxPoint x="3020" y="2664" as="sourcePoint" />
            <Array as="points">
              <mxPoint x="3020" y="2704" />
            </Array>
          </mxGeometry>
        </mxCell>
        <mxCell id="bBNReim9IivtYAumU8x--374" style="edgeStyle=orthogonalEdgeStyle;rounded=0;orthogonalLoop=1;jettySize=auto;html=1;" parent="1" edge="1">
          <mxGeometry relative="1" as="geometry">
            <mxPoint x="2830" y="2724" as="targetPoint" />
            <mxPoint x="3040" y="2664" as="sourcePoint" />
            <Array as="points">
              <mxPoint x="3040" y="2724" />
            </Array>
          </mxGeometry>
        </mxCell>
        <mxCell id="bBNReim9IivtYAumU8x--375" style="edgeStyle=orthogonalEdgeStyle;rounded=0;orthogonalLoop=1;jettySize=auto;html=1;" parent="1" edge="1">
          <mxGeometry relative="1" as="geometry">
            <mxPoint x="2830" y="2744" as="targetPoint" />
            <mxPoint x="3060" y="2664" as="sourcePoint" />
            <Array as="points">
              <mxPoint x="3060" y="2744" />
            </Array>
          </mxGeometry>
        </mxCell>
        <mxCell id="bBNReim9IivtYAumU8x--376" style="edgeStyle=orthogonalEdgeStyle;rounded=0;orthogonalLoop=1;jettySize=auto;html=1;" parent="1" edge="1">
          <mxGeometry relative="1" as="geometry">
            <mxPoint x="2830" y="2764" as="targetPoint" />
            <mxPoint x="3080" y="2664" as="sourcePoint" />
            <Array as="points">
              <mxPoint x="3080" y="2764" />
            </Array>
          </mxGeometry>
        </mxCell>
        <mxCell id="bBNReim9IivtYAumU8x--377" style="edgeStyle=orthogonalEdgeStyle;rounded=0;orthogonalLoop=1;jettySize=auto;html=1;" parent="1" edge="1">
          <mxGeometry relative="1" as="geometry">
            <mxPoint x="2830" y="2784" as="targetPoint" />
            <mxPoint x="3100" y="2664" as="sourcePoint" />
            <Array as="points">
              <mxPoint x="3100" y="2784" />
            </Array>
          </mxGeometry>
        </mxCell>
        <mxCell id="bBNReim9IivtYAumU8x--378" style="edgeStyle=orthogonalEdgeStyle;rounded=0;orthogonalLoop=1;jettySize=auto;html=1;" parent="1" edge="1">
          <mxGeometry relative="1" as="geometry">
            <mxPoint x="3010" y="3393" as="targetPoint" />
            <mxPoint x="2620" y="2953" as="sourcePoint" />
            <Array as="points">
              <mxPoint x="2620" y="3633" />
              <mxPoint x="3010" y="3633" />
            </Array>
          </mxGeometry>
        </mxCell>
        <mxCell id="bBNReim9IivtYAumU8x--379" style="edgeStyle=orthogonalEdgeStyle;rounded=0;orthogonalLoop=1;jettySize=auto;html=1;" parent="1" edge="1">
          <mxGeometry relative="1" as="geometry">
            <mxPoint x="2990" y="3393" as="targetPoint" />
            <mxPoint x="2630" y="2953" as="sourcePoint" />
            <Array as="points">
              <mxPoint x="2630" y="3613" />
              <mxPoint x="2990" y="3613" />
            </Array>
          </mxGeometry>
        </mxCell>
        <mxCell id="bBNReim9IivtYAumU8x--380" style="edgeStyle=orthogonalEdgeStyle;rounded=0;orthogonalLoop=1;jettySize=auto;html=1;" parent="1" edge="1">
          <mxGeometry relative="1" as="geometry">
            <mxPoint x="2970" y="3393" as="targetPoint" />
            <mxPoint x="2640" y="2953" as="sourcePoint" />
            <Array as="points">
              <mxPoint x="2640" y="3593" />
              <mxPoint x="2970" y="3593" />
            </Array>
          </mxGeometry>
        </mxCell>
        <mxCell id="bBNReim9IivtYAumU8x--381" style="edgeStyle=orthogonalEdgeStyle;rounded=0;orthogonalLoop=1;jettySize=auto;html=1;" parent="1" edge="1">
          <mxGeometry relative="1" as="geometry">
            <mxPoint x="2950" y="3393" as="targetPoint" />
            <mxPoint x="2650" y="2953" as="sourcePoint" />
            <Array as="points">
              <mxPoint x="2650" y="3573" />
              <mxPoint x="2950" y="3573" />
            </Array>
          </mxGeometry>
        </mxCell>
        <mxCell id="bBNReim9IivtYAumU8x--382" style="edgeStyle=orthogonalEdgeStyle;rounded=0;orthogonalLoop=1;jettySize=auto;html=1;" parent="1" edge="1">
          <mxGeometry relative="1" as="geometry">
            <mxPoint x="2930" y="3393" as="targetPoint" />
            <mxPoint x="2660" y="2953" as="sourcePoint" />
            <Array as="points">
              <mxPoint x="2660" y="3553" />
              <mxPoint x="2930" y="3553" />
            </Array>
          </mxGeometry>
        </mxCell>
        <mxCell id="bBNReim9IivtYAumU8x--383" style="edgeStyle=orthogonalEdgeStyle;rounded=0;orthogonalLoop=1;jettySize=auto;html=1;" parent="1" edge="1">
          <mxGeometry relative="1" as="geometry">
            <mxPoint x="2910" y="3393" as="targetPoint" />
            <mxPoint x="2670" y="2953" as="sourcePoint" />
            <Array as="points">
              <mxPoint x="2670" y="3533" />
              <mxPoint x="2910" y="3533" />
            </Array>
          </mxGeometry>
        </mxCell>
        <mxCell id="bBNReim9IivtYAumU8x--384" style="edgeStyle=orthogonalEdgeStyle;rounded=0;orthogonalLoop=1;jettySize=auto;html=1;" parent="1" edge="1">
          <mxGeometry relative="1" as="geometry">
            <mxPoint x="2890" y="3393" as="targetPoint" />
            <mxPoint x="2680" y="2953" as="sourcePoint" />
            <Array as="points">
              <mxPoint x="2680" y="3513" />
              <mxPoint x="2890" y="3513" />
            </Array>
          </mxGeometry>
        </mxCell>
        <mxCell id="bBNReim9IivtYAumU8x--385" style="edgeStyle=orthogonalEdgeStyle;rounded=0;orthogonalLoop=1;jettySize=auto;html=1;" parent="1" edge="1">
          <mxGeometry relative="1" as="geometry">
            <mxPoint x="2870" y="3393" as="targetPoint" />
            <mxPoint x="2690" y="2953" as="sourcePoint" />
            <Array as="points">
              <mxPoint x="2690" y="3493" />
              <mxPoint x="2870" y="3493" />
            </Array>
          </mxGeometry>
        </mxCell>
        <mxCell id="bBNReim9IivtYAumU8x--386" style="edgeStyle=orthogonalEdgeStyle;rounded=0;orthogonalLoop=1;jettySize=auto;html=1;" parent="1" edge="1">
          <mxGeometry relative="1" as="geometry">
            <mxPoint x="2850" y="3393" as="targetPoint" />
            <mxPoint x="2700" y="2953" as="sourcePoint" />
            <Array as="points">
              <mxPoint x="2700" y="3473" />
              <mxPoint x="2850" y="3473" />
            </Array>
          </mxGeometry>
        </mxCell>
        <mxCell id="bBNReim9IivtYAumU8x--387" style="edgeStyle=orthogonalEdgeStyle;rounded=0;orthogonalLoop=1;jettySize=auto;html=1;" parent="1" edge="1">
          <mxGeometry relative="1" as="geometry">
            <mxPoint x="2830" y="3393" as="targetPoint" />
            <mxPoint x="2710" y="2953" as="sourcePoint" />
            <Array as="points">
              <mxPoint x="2710" y="2953" />
              <mxPoint x="2710" y="3453" />
              <mxPoint x="2830" y="3453" />
            </Array>
          </mxGeometry>
        </mxCell>
        <mxCell id="bBNReim9IivtYAumU8x--388" style="edgeStyle=orthogonalEdgeStyle;rounded=0;orthogonalLoop=1;jettySize=auto;html=1;" parent="1" edge="1">
          <mxGeometry relative="1" as="geometry">
            <mxPoint x="2830" y="2903" as="targetPoint" />
            <mxPoint x="2970" y="3253" as="sourcePoint" />
            <Array as="points">
              <mxPoint x="2970" y="2903" />
            </Array>
          </mxGeometry>
        </mxCell>
        <mxCell id="bBNReim9IivtYAumU8x--389" style="edgeStyle=orthogonalEdgeStyle;rounded=0;orthogonalLoop=1;jettySize=auto;html=1;" parent="1" edge="1">
          <mxGeometry relative="1" as="geometry">
            <mxPoint x="2770" y="2953" as="targetPoint" />
            <mxPoint x="2910" y="3253" as="sourcePoint" />
            <Array as="points">
              <mxPoint x="2910" y="3003" />
              <mxPoint x="2770" y="3003" />
            </Array>
          </mxGeometry>
        </mxCell>
        <mxCell id="bBNReim9IivtYAumU8x--390" style="edgeStyle=orthogonalEdgeStyle;rounded=0;orthogonalLoop=1;jettySize=auto;html=1;" parent="1" edge="1">
          <mxGeometry relative="1" as="geometry">
            <mxPoint x="2830" y="2883" as="targetPoint" />
            <mxPoint x="2990" y="3253" as="sourcePoint" />
            <Array as="points">
              <mxPoint x="2990" y="2883" />
            </Array>
          </mxGeometry>
        </mxCell>
        <mxCell id="bBNReim9IivtYAumU8x--391" style="edgeStyle=orthogonalEdgeStyle;rounded=0;orthogonalLoop=1;jettySize=auto;html=1;" parent="1" edge="1">
          <mxGeometry relative="1" as="geometry">
            <mxPoint x="2830" y="2863" as="targetPoint" />
            <mxPoint x="3010" y="3253" as="sourcePoint" />
            <Array as="points">
              <mxPoint x="3010" y="3253" />
              <mxPoint x="3010" y="2923" />
            </Array>
          </mxGeometry>
        </mxCell>
        <mxCell id="bBNReim9IivtYAumU8x--392" style="edgeStyle=orthogonalEdgeStyle;rounded=0;orthogonalLoop=1;jettySize=auto;html=1;" parent="1" edge="1">
          <mxGeometry relative="1" as="geometry">
            <mxPoint x="2830" y="2923" as="targetPoint" />
            <mxPoint x="2950" y="3253" as="sourcePoint" />
            <Array as="points">
              <mxPoint x="2950" y="2923" />
            </Array>
          </mxGeometry>
        </mxCell>
        <mxCell id="bBNReim9IivtYAumU8x--395" value="DB9" style="html=1;dashed=0;whiteSpace=wrap;shape=mxgraph.dfd.dataStoreID;align=left;spacingLeft=3;points=[[0,0],[0.5,0],[1,0],[0,0.5],[1,0.5],[0,1],[0.5,1],[1,1]];" parent="1" vertex="1">
          <mxGeometry x="570" y="4770" width="100" height="30" as="geometry" />
        </mxCell>
        <mxCell id="bBNReim9IivtYAumU8x--396" value="1.0" style="swimlane;fontStyle=0;childLayout=stackLayout;horizontal=1;startSize=20;fillColor=#ffffff;horizontalStack=0;resizeParent=1;resizeParentMax=0;resizeLast=0;collapsible=0;marginBottom=0;swimlaneFillColor=#ffffff;rounded=1;fontSize=15;" parent="1" vertex="1">
          <mxGeometry x="470" y="1830" width="130" height="100" as="geometry" />
        </mxCell>
        <mxCell id="bBNReim9IivtYAumU8x--397" value="Set Semester" style="text;html=1;align=center;verticalAlign=middle;resizable=0;points=[];autosize=1;strokeColor=none;fillColor=none;perimeterSpacing=0;spacingTop=30;spacingBottom=30;" parent="bBNReim9IivtYAumU8x--396" vertex="1">
          <mxGeometry y="20" width="130" height="80" as="geometry" />
        </mxCell>
        <mxCell id="bBNReim9IivtYAumU8x--399" value="2.0" style="swimlane;fontStyle=0;childLayout=stackLayout;horizontal=1;startSize=20;fillColor=#ffffff;horizontalStack=0;resizeParent=1;resizeParentMax=0;resizeLast=0;collapsible=0;marginBottom=0;swimlaneFillColor=#ffffff;rounded=1;" parent="1" vertex="1">
          <mxGeometry x="554" y="4470" width="162" height="50" as="geometry" />
        </mxCell>
        <mxCell id="bBNReim9IivtYAumU8x--400" value="Application/Renewal" style="text;html=1;align=center;verticalAlign=middle;resizable=0;points=[];autosize=1;strokeColor=none;fillColor=none;" parent="bBNReim9IivtYAumU8x--399" vertex="1">
          <mxGeometry y="20" width="162" height="30" as="geometry" />
        </mxCell>
        <mxCell id="bBNReim9IivtYAumU8x--401" value="3.0" style="swimlane;fontStyle=0;childLayout=stackLayout;horizontal=1;startSize=20;fillColor=#ffffff;horizontalStack=0;resizeParent=1;resizeParentMax=0;resizeLast=0;collapsible=0;marginBottom=0;swimlaneFillColor=#ffffff;rounded=1;" parent="1" vertex="1">
          <mxGeometry x="759" y="4470" width="162" height="50" as="geometry" />
        </mxCell>
        <mxCell id="bBNReim9IivtYAumU8x--402" value="Validation" style="text;html=1;align=center;verticalAlign=middle;resizable=0;points=[];autosize=1;strokeColor=none;fillColor=none;" parent="bBNReim9IivtYAumU8x--401" vertex="1">
          <mxGeometry y="20" width="162" height="30" as="geometry" />
        </mxCell>
        <mxCell id="bBNReim9IivtYAumU8x--404" value="4.0" style="swimlane;fontStyle=0;childLayout=stackLayout;horizontal=1;startSize=20;fillColor=#ffffff;horizontalStack=0;resizeParent=1;resizeParentMax=0;resizeLast=0;collapsible=0;marginBottom=0;swimlaneFillColor=#ffffff;rounded=1;" parent="1" vertex="1">
          <mxGeometry x="966.5" y="4470" width="166" height="50" as="geometry" />
        </mxCell>
        <mxCell id="bBNReim9IivtYAumU8x--405" value="Manage Accounts" style="text;html=1;align=center;verticalAlign=middle;resizable=0;points=[];autosize=1;strokeColor=none;fillColor=none;" parent="bBNReim9IivtYAumU8x--404" vertex="1">
          <mxGeometry y="20" width="166" height="30" as="geometry" />
        </mxCell>
        <mxCell id="bBNReim9IivtYAumU8x--406" value="5.0" style="swimlane;fontStyle=0;childLayout=stackLayout;horizontal=1;startSize=20;fillColor=#ffffff;horizontalStack=0;resizeParent=1;resizeParentMax=0;resizeLast=0;collapsible=0;marginBottom=0;swimlaneFillColor=#ffffff;rounded=1;" parent="1" vertex="1">
          <mxGeometry x="1180" y="4470" width="187" height="50" as="geometry" />
        </mxCell>
        <mxCell id="bBNReim9IivtYAumU8x--407" value="Selection of sched, dept, church" style="text;html=1;align=center;verticalAlign=middle;resizable=0;points=[];autosize=1;strokeColor=none;fillColor=none;" parent="bBNReim9IivtYAumU8x--406" vertex="1">
          <mxGeometry y="20" width="187" height="30" as="geometry" />
        </mxCell>
        <mxCell id="bBNReim9IivtYAumU8x--411" value="6.0" style="swimlane;fontStyle=0;childLayout=stackLayout;horizontal=1;startSize=20;fillColor=#ffffff;horizontalStack=0;resizeParent=1;resizeParentMax=0;resizeLast=0;collapsible=0;marginBottom=0;swimlaneFillColor=#ffffff;rounded=1;" parent="1" vertex="1">
          <mxGeometry x="560" y="4570" width="183" height="50" as="geometry" />
        </mxCell>
        <mxCell id="bBNReim9IivtYAumU8x--412" value="Log Attendance" style="text;html=1;align=center;verticalAlign=middle;resizable=0;points=[];autosize=1;strokeColor=none;fillColor=none;" parent="bBNReim9IivtYAumU8x--411" vertex="1">
          <mxGeometry y="20" width="183" height="30" as="geometry" />
        </mxCell>
        <mxCell id="bBNReim9IivtYAumU8x--413" value="7.0" style="swimlane;fontStyle=0;childLayout=stackLayout;horizontal=1;startSize=20;fillColor=#ffffff;horizontalStack=0;resizeParent=1;resizeParentMax=0;resizeLast=0;collapsible=0;marginBottom=0;swimlaneFillColor=#ffffff;rounded=1;" parent="1" vertex="1">
          <mxGeometry x="766.25" y="4570" width="183" height="50" as="geometry" />
        </mxCell>
        <mxCell id="bBNReim9IivtYAumU8x--414" value="Completion" style="text;html=1;align=center;verticalAlign=middle;resizable=0;points=[];autosize=1;strokeColor=none;fillColor=none;" parent="bBNReim9IivtYAumU8x--413" vertex="1">
          <mxGeometry y="20" width="183" height="30" as="geometry" />
        </mxCell>
        <mxCell id="bBNReim9IivtYAumU8x--415" value="8.0" style="swimlane;fontStyle=0;childLayout=stackLayout;horizontal=1;startSize=20;fillColor=#ffffff;horizontalStack=0;resizeParent=1;resizeParentMax=0;resizeLast=0;collapsible=0;marginBottom=0;swimlaneFillColor=#ffffff;rounded=1;" parent="1" vertex="1">
          <mxGeometry x="992.5" y="4570" width="183" height="50" as="geometry" />
        </mxCell>
        <mxCell id="bBNReim9IivtYAumU8x--416" value="Issuance" style="text;html=1;align=center;verticalAlign=middle;resizable=0;points=[];autosize=1;strokeColor=none;fillColor=none;" parent="bBNReim9IivtYAumU8x--415" vertex="1">
          <mxGeometry y="20" width="183" height="30" as="geometry" />
        </mxCell>
        <mxCell id="bBNReim9IivtYAumU8x--417" value="Users" style="text;html=1;align=center;verticalAlign=middle;resizable=0;points=[];autosize=1;strokeColor=none;fillColor=none;" parent="1" vertex="1">
          <mxGeometry x="603.75" y="4770" width="50" height="30" as="geometry" />
        </mxCell>
        <mxCell id="bBNReim9IivtYAumU8x--418" value="DB8" style="html=1;dashed=0;whiteSpace=wrap;shape=mxgraph.dfd.dataStoreID;align=left;spacingLeft=3;points=[[0,0],[0.5,0],[1,0],[0,0.5],[1,0.5],[0,1],[0.5,1],[1,1]];" parent="1" vertex="1">
          <mxGeometry x="446" y="4770" width="100" height="30" as="geometry" />
        </mxCell>
        <mxCell id="bBNReim9IivtYAumU8x--419" value="Admin" style="text;html=1;align=center;verticalAlign=middle;resizable=0;points=[];autosize=1;strokeColor=none;fillColor=none;" parent="1" vertex="1">
          <mxGeometry x="476" y="4770" width="60" height="30" as="geometry" />
        </mxCell>
        <mxCell id="bBNReim9IivtYAumU8x--420" value="DB2" style="html=1;dashed=0;whiteSpace=wrap;shape=mxgraph.dfd.dataStoreID;align=left;spacingLeft=3;points=[[0,0],[0.5,0],[1,0],[0,0.5],[1,0.5],[0,1],[0.5,1],[1,1]];" parent="1" vertex="1">
          <mxGeometry x="570" y="4690" width="100" height="30" as="geometry" />
        </mxCell>
        <mxCell id="bBNReim9IivtYAumU8x--421" value="Roles" style="text;html=1;align=center;verticalAlign=middle;resizable=0;points=[];autosize=1;strokeColor=none;fillColor=none;" parent="1" vertex="1">
          <mxGeometry x="605" y="4690" width="50" height="30" as="geometry" />
        </mxCell>
        <mxCell id="bBNReim9IivtYAumU8x--422" value="DB3" style="html=1;dashed=0;whiteSpace=wrap;shape=mxgraph.dfd.dataStoreID;align=left;spacingLeft=3;points=[[0,0],[0.5,0],[1,0],[0,0.5],[1,0.5],[0,1],[0.5,1],[1,1]];" parent="1" vertex="1">
          <mxGeometry x="705.75" y="4690" width="100" height="30" as="geometry" />
        </mxCell>
        <mxCell id="bBNReim9IivtYAumU8x--423" value="Department" style="text;html=1;align=center;verticalAlign=middle;resizable=0;points=[];autosize=1;strokeColor=none;fillColor=none;" parent="1" vertex="1">
          <mxGeometry x="720.75" y="4690" width="90" height="30" as="geometry" />
        </mxCell>
        <mxCell id="bBNReim9IivtYAumU8x--424" value="DB5" style="html=1;dashed=0;whiteSpace=wrap;shape=mxgraph.dfd.dataStoreID;align=left;spacingLeft=3;points=[[0,0],[0.5,0],[1,0],[0,0.5],[1,0.5],[0,1],[0.5,1],[1,1]];" parent="1" vertex="1">
          <mxGeometry x="976.38" y="4690" width="100" height="30" as="geometry" />
        </mxCell>
        <mxCell id="bBNReim9IivtYAumU8x--425" value="Schedule" style="text;html=1;align=center;verticalAlign=middle;resizable=0;points=[];autosize=1;strokeColor=none;fillColor=none;" parent="1" vertex="1">
          <mxGeometry x="1001.38" y="4690" width="70" height="30" as="geometry" />
        </mxCell>
        <mxCell id="bBNReim9IivtYAumU8x--427" value="DB6" style="html=1;dashed=0;whiteSpace=wrap;shape=mxgraph.dfd.dataStoreID;align=left;spacingLeft=3;points=[[0,0],[0.5,0],[1,0],[0,0.5],[1,0.5],[0,1],[0.5,1],[1,1]];" parent="1" vertex="1">
          <mxGeometry x="1110" y="4690" width="100" height="30" as="geometry" />
        </mxCell>
        <mxCell id="bBNReim9IivtYAumU8x--428" value="Gratis Logs" style="text;html=1;align=center;verticalAlign=middle;resizable=0;points=[];autosize=1;strokeColor=none;fillColor=none;" parent="1" vertex="1">
          <mxGeometry x="1130" y="4690" width="80" height="30" as="geometry" />
        </mxCell>
        <mxCell id="bBNReim9IivtYAumU8x--429" value="DB7" style="html=1;dashed=0;whiteSpace=wrap;shape=mxgraph.dfd.dataStoreID;align=left;spacingLeft=3;points=[[0,0],[0.5,0],[1,0],[0,0.5],[1,0.5],[0,1],[0.5,1],[1,1]];" parent="1" vertex="1">
          <mxGeometry x="1235" y="4690" width="100" height="30" as="geometry" />
        </mxCell>
        <mxCell id="bBNReim9IivtYAumU8x--430" value="Fellowship Logs" style="text;html=1;align=center;verticalAlign=middle;resizable=0;points=[];autosize=1;strokeColor=none;fillColor=none;" parent="1" vertex="1">
          <mxGeometry x="1264" y="4690" width="110" height="30" as="geometry" />
        </mxCell>
        <mxCell id="bBNReim9IivtYAumU8x--432" value="DB1" style="html=1;dashed=0;whiteSpace=wrap;shape=mxgraph.dfd.dataStoreID;align=left;spacingLeft=3;points=[[0,0],[0.5,0],[1,0],[0,0.5],[1,0.5],[0,1],[0.5,1],[1,1]];" parent="1" vertex="1">
          <mxGeometry x="448" y="4690" width="100" height="30" as="geometry" />
        </mxCell>
        <mxCell id="bBNReim9IivtYAumU8x--433" value="Semester" style="text;html=1;align=center;verticalAlign=middle;resizable=0;points=[];autosize=1;strokeColor=none;fillColor=none;" parent="1" vertex="1">
          <mxGeometry x="478" y="4690" width="70" height="30" as="geometry" />
        </mxCell>
        <mxCell id="bBNReim9IivtYAumU8x--434" value="DB11" style="html=1;dashed=0;whiteSpace=wrap;shape=mxgraph.dfd.dataStoreID;align=left;spacingLeft=3;points=[[0,0],[0.5,0],[1,0],[0,0.5],[1,0.5],[0,1],[0.5,1],[1,1]];" parent="1" vertex="1">
          <mxGeometry x="845.5" y="4770" width="100" height="30" as="geometry" />
        </mxCell>
        <mxCell id="bBNReim9IivtYAumU8x--435" value="Validator_info" style="text;html=1;align=center;verticalAlign=middle;resizable=0;points=[];autosize=1;strokeColor=none;fillColor=none;" parent="1" vertex="1">
          <mxGeometry x="870" y="4770" width="100" height="30" as="geometry" />
        </mxCell>
        <mxCell id="bBNReim9IivtYAumU8x--436" value="DB12" style="html=1;dashed=0;whiteSpace=wrap;shape=mxgraph.dfd.dataStoreID;align=left;spacingLeft=3;points=[[0,0],[0.5,0],[1,0],[0,0.5],[1,0.5],[0,1],[0.5,1],[1,1]];" parent="1" vertex="1">
          <mxGeometry x="980" y="4770" width="119" height="30" as="geometry" />
        </mxCell>
        <mxCell id="bBNReim9IivtYAumU8x--437" value="Scholar_info" style="text;html=1;align=center;verticalAlign=middle;resizable=0;points=[];autosize=1;strokeColor=none;fillColor=none;" parent="1" vertex="1">
          <mxGeometry x="1015.5" y="4770" width="90" height="30" as="geometry" />
        </mxCell>
        <mxCell id="bBNReim9IivtYAumU8x--438" value="DB16" style="html=1;dashed=0;whiteSpace=wrap;shape=mxgraph.dfd.dataStoreID;align=left;spacingLeft=3;points=[[0,0],[0.5,0],[1,0],[0,0.5],[1,0.5],[0,1],[0.5,1],[1,1]];" parent="1" vertex="1">
          <mxGeometry x="622.25" y="4840" width="100" height="30" as="geometry" />
        </mxCell>
        <mxCell id="bBNReim9IivtYAumU8x--439" value="Dept_Personnel_info" style="text;html=1;align=center;verticalAlign=middle;resizable=0;points=[];autosize=1;strokeColor=none;fillColor=none;" parent="1" vertex="1">
          <mxGeometry x="646.75" y="4840" width="140" height="30" as="geometry" />
        </mxCell>
        <mxCell id="bBNReim9IivtYAumU8x--440" value="DB17" style="html=1;dashed=0;whiteSpace=wrap;shape=mxgraph.dfd.dataStoreID;align=left;spacingLeft=3;points=[[0,0],[0.5,0],[1,0],[0,0.5],[1,0.5],[0,1],[0.5,1],[1,1]];" parent="1" vertex="1">
          <mxGeometry x="823.5" y="4840" width="100" height="30" as="geometry" />
        </mxCell>
        <mxCell id="bBNReim9IivtYAumU8x--441" value="Church_Personnel_info" style="text;html=1;align=center;verticalAlign=middle;resizable=0;points=[];autosize=1;strokeColor=none;fillColor=none;" parent="1" vertex="1">
          <mxGeometry x="843" y="4840" width="150" height="30" as="geometry" />
        </mxCell>
        <mxCell id="bBNReim9IivtYAumU8x--442" value="DB14" style="html=1;dashed=0;whiteSpace=wrap;shape=mxgraph.dfd.dataStoreID;align=left;spacingLeft=3;points=[[0,0],[0.5,0],[1,0],[0,0.5],[1,0.5],[0,1],[0.5,1],[1,1]];" parent="1" vertex="1">
          <mxGeometry x="1290" y="4770" width="100" height="30" as="geometry" />
        </mxCell>
        <mxCell id="bBNReim9IivtYAumU8x--443" value="Dept_Head_info" style="text;html=1;align=center;verticalAlign=middle;resizable=0;points=[];autosize=1;strokeColor=none;fillColor=none;" parent="1" vertex="1">
          <mxGeometry x="1329.5" y="4770" width="110" height="30" as="geometry" />
        </mxCell>
        <mxCell id="bBNReim9IivtYAumU8x--444" value="DB15" style="html=1;dashed=0;whiteSpace=wrap;shape=mxgraph.dfd.dataStoreID;align=left;spacingLeft=3;points=[[0,0],[0.5,0],[1,0],[0,0.5],[1,0.5],[0,1],[0.5,1],[1,1]];" parent="1" vertex="1">
          <mxGeometry x="446" y="4840" width="100" height="30" as="geometry" />
        </mxCell>
        <mxCell id="bBNReim9IivtYAumU8x--445" value="Church_Head_info" style="text;html=1;align=center;verticalAlign=middle;resizable=0;points=[];autosize=1;strokeColor=none;fillColor=none;" parent="1" vertex="1">
          <mxGeometry x="480.5" y="4840" width="120" height="30" as="geometry" />
        </mxCell>
        <mxCell id="bBNReim9IivtYAumU8x--446" value="DB13" style="html=1;dashed=0;whiteSpace=wrap;shape=mxgraph.dfd.dataStoreID;align=left;spacingLeft=3;points=[[0,0],[0.5,0],[1,0],[0,0.5],[1,0.5],[0,1],[0.5,1],[1,1]];" parent="1" vertex="1">
          <mxGeometry x="1126.5" y="4770" width="100" height="30" as="geometry" />
        </mxCell>
        <mxCell id="bBNReim9IivtYAumU8x--447" value="Monitoring_info" style="text;html=1;align=center;verticalAlign=middle;resizable=0;points=[];autosize=1;strokeColor=none;fillColor=none;" parent="1" vertex="1">
          <mxGeometry x="1166" y="4770" width="110" height="30" as="geometry" />
        </mxCell>
        <mxCell id="bBNReim9IivtYAumU8x--448" value="DB10" style="html=1;dashed=0;whiteSpace=wrap;shape=mxgraph.dfd.dataStoreID;align=left;spacingLeft=3;points=[[0,0],[0.5,0],[1,0],[0,0.5],[1,0.5],[0,1],[0.5,1],[1,1]];" parent="1" vertex="1">
          <mxGeometry x="706.5" y="4770" width="100" height="30" as="geometry" />
        </mxCell>
        <mxCell id="bBNReim9IivtYAumU8x--449" value="Applicant_info" style="text;html=1;align=center;verticalAlign=middle;resizable=0;points=[];autosize=1;strokeColor=none;fillColor=none;" parent="1" vertex="1">
          <mxGeometry x="731" y="4770" width="100" height="30" as="geometry" />
        </mxCell>
        <mxCell id="RpUNXSWF-gNv1XYwJZ2Y-1" value="DB4" style="html=1;dashed=0;whiteSpace=wrap;shape=mxgraph.dfd.dataStoreID;align=left;spacingLeft=3;points=[[0,0],[0.5,0],[1,0],[0,0.5],[1,0.5],[0,1],[0.5,1],[1,1]];" vertex="1" parent="1">
          <mxGeometry x="839.25" y="4690" width="100" height="30" as="geometry" />
        </mxCell>
        <mxCell id="RpUNXSWF-gNv1XYwJZ2Y-2" value="Church" style="text;html=1;align=center;verticalAlign=middle;resizable=0;points=[];autosize=1;strokeColor=none;fillColor=none;" vertex="1" parent="1">
          <mxGeometry x="869.25" y="4690" width="60" height="30" as="geometry" />
        </mxCell>
        <mxCell id="RpUNXSWF-gNv1XYwJZ2Y-3" value="DB19" style="html=1;dashed=0;whiteSpace=wrap;shape=mxgraph.dfd.dataStoreID;align=left;spacingLeft=3;points=[[0,0],[0.5,0],[1,0],[0,0.5],[1,0.5],[0,1],[0.5,1],[1,1]];" vertex="1" parent="1">
          <mxGeometry x="1160" y="4840" width="100" height="30" as="geometry" />
        </mxCell>
        <mxCell id="RpUNXSWF-gNv1XYwJZ2Y-4" value="Checked_Application_Info" style="text;html=1;align=center;verticalAlign=middle;resizable=0;points=[];autosize=1;strokeColor=none;fillColor=none;" vertex="1" parent="1">
          <mxGeometry x="1190" y="4840" width="160" height="30" as="geometry" />
        </mxCell>
        <mxCell id="RpUNXSWF-gNv1XYwJZ2Y-5" value="DB20" style="html=1;dashed=0;whiteSpace=wrap;shape=mxgraph.dfd.dataStoreID;align=left;spacingLeft=3;points=[[0,0],[0.5,0],[1,0],[0,0.5],[1,0.5],[0,1],[0.5,1],[1,1]];" vertex="1" parent="1">
          <mxGeometry x="1383.5" y="4840" width="100" height="30" as="geometry" />
        </mxCell>
        <mxCell id="RpUNXSWF-gNv1XYwJZ2Y-6" value="Rejected_Application_Info" style="text;html=1;align=center;verticalAlign=middle;resizable=0;points=[];autosize=1;strokeColor=none;fillColor=none;" vertex="1" parent="1">
          <mxGeometry x="1418" y="4840" width="160" height="30" as="geometry" />
        </mxCell>
        <mxCell id="RpUNXSWF-gNv1XYwJZ2Y-7" value="DB20" style="html=1;dashed=0;whiteSpace=wrap;shape=mxgraph.dfd.dataStoreID;align=left;spacingLeft=3;points=[[0,0],[0.5,0],[1,0],[0,0.5],[1,0.5],[0,1],[0.5,1],[1,1]];" vertex="1" parent="1">
          <mxGeometry x="451" y="4910" width="100" height="30" as="geometry" />
        </mxCell>
        <mxCell id="RpUNXSWF-gNv1XYwJZ2Y-8" value="Checked_Renewal_Info" style="text;html=1;align=center;verticalAlign=middle;resizable=0;points=[];autosize=1;strokeColor=none;fillColor=none;" vertex="1" parent="1">
          <mxGeometry x="486" y="4910" width="150" height="30" as="geometry" />
        </mxCell>
        <mxCell id="RpUNXSWF-gNv1XYwJZ2Y-9" value="DB21" style="html=1;dashed=0;whiteSpace=wrap;shape=mxgraph.dfd.dataStoreID;align=left;spacingLeft=3;points=[[0,0],[0.5,0],[1,0],[0,0.5],[1,0.5],[0,1],[0.5,1],[1,1]];" vertex="1" parent="1">
          <mxGeometry x="651" y="4910" width="100" height="30" as="geometry" />
        </mxCell>
        <mxCell id="RpUNXSWF-gNv1XYwJZ2Y-10" value="Rejected_Renewal_Info" style="text;html=1;align=center;verticalAlign=middle;resizable=0;points=[];autosize=1;strokeColor=none;fillColor=none;" vertex="1" parent="1">
          <mxGeometry x="681" y="4910" width="150" height="30" as="geometry" />
        </mxCell>
        <mxCell id="RpUNXSWF-gNv1XYwJZ2Y-11" value="DB18" style="html=1;dashed=0;whiteSpace=wrap;shape=mxgraph.dfd.dataStoreID;align=left;spacingLeft=3;points=[[0,0],[0.5,0],[1,0],[0,0.5],[1,0.5],[0,1],[0.5,1],[1,1]];" vertex="1" parent="1">
          <mxGeometry x="1006" y="4840" width="100" height="30" as="geometry" />
        </mxCell>
        <mxCell id="RpUNXSWF-gNv1XYwJZ2Y-12" value="Renewal_info" style="text;html=1;align=center;verticalAlign=middle;resizable=0;points=[];autosize=1;strokeColor=none;fillColor=none;" vertex="1" parent="1">
          <mxGeometry x="1041" y="4840" width="100" height="30" as="geometry" />
        </mxCell>
        <mxCell id="RpUNXSWF-gNv1XYwJZ2Y-14" value="DB24" style="html=1;dashed=0;whiteSpace=wrap;shape=mxgraph.dfd.dataStoreID;align=left;spacingLeft=3;points=[[0,0],[0.5,0],[1,0],[0,0.5],[1,0.5],[0,1],[0.5,1],[1,1]];" vertex="1" parent="1">
          <mxGeometry x="1071" y="4910" width="100" height="30" as="geometry" />
        </mxCell>
        <mxCell id="RpUNXSWF-gNv1XYwJZ2Y-15" value="Certificate Recipient" style="text;html=1;align=center;verticalAlign=middle;resizable=0;points=[];autosize=1;strokeColor=none;fillColor=none;" vertex="1" parent="1">
          <mxGeometry x="1100.5" y="4910" width="130" height="30" as="geometry" />
        </mxCell>
        <mxCell id="RpUNXSWF-gNv1XYwJZ2Y-16" value="DB23" style="html=1;dashed=0;whiteSpace=wrap;shape=mxgraph.dfd.dataStoreID;align=left;spacingLeft=3;points=[[0,0],[0.5,0],[1,0],[0,0.5],[1,0.5],[0,1],[0.5,1],[1,1]];" vertex="1" parent="1">
          <mxGeometry x="870" y="4910" width="100" height="30" as="geometry" />
        </mxCell>
        <mxCell id="RpUNXSWF-gNv1XYwJZ2Y-17" value="Reports" style="text;html=1;align=center;verticalAlign=middle;resizable=0;points=[];autosize=1;strokeColor=none;fillColor=none;" vertex="1" parent="1">
          <mxGeometry x="929.5" y="4910" width="70" height="30" as="geometry" />
        </mxCell>
        <mxCell id="RpUNXSWF-gNv1XYwJZ2Y-21" style="edgeStyle=orthogonalEdgeStyle;rounded=0;orthogonalLoop=1;jettySize=auto;html=1;exitX=1;exitY=0.25;exitDx=0;exitDy=0;" edge="1" parent="1" source="RpUNXSWF-gNv1XYwJZ2Y-20">
          <mxGeometry relative="1" as="geometry">
            <mxPoint x="460" y="1867.6666666666665" as="targetPoint" />
          </mxGeometry>
        </mxCell>
        <mxCell id="RpUNXSWF-gNv1XYwJZ2Y-23" style="edgeStyle=orthogonalEdgeStyle;rounded=0;orthogonalLoop=1;jettySize=auto;html=1;exitX=1;exitY=0.75;exitDx=0;exitDy=0;" edge="1" parent="1" source="RpUNXSWF-gNv1XYwJZ2Y-20">
          <mxGeometry relative="1" as="geometry">
            <mxPoint x="460" y="1890" as="targetPoint" />
            <Array as="points">
              <mxPoint x="275" y="1890" />
            </Array>
          </mxGeometry>
        </mxCell>
        <mxCell id="RpUNXSWF-gNv1XYwJZ2Y-27" style="edgeStyle=orthogonalEdgeStyle;rounded=0;orthogonalLoop=1;jettySize=auto;html=1;exitX=0.75;exitY=1;exitDx=0;exitDy=0;" edge="1" parent="1" source="RpUNXSWF-gNv1XYwJZ2Y-20">
          <mxGeometry relative="1" as="geometry">
            <mxPoint x="460" y="1910" as="targetPoint" />
            <Array as="points">
              <mxPoint x="250" y="1910" />
            </Array>
          </mxGeometry>
        </mxCell>
        <mxCell id="RpUNXSWF-gNv1XYwJZ2Y-20" value="Scholarship Admin" style="html=1;dashed=0;whiteSpace=wrap;" vertex="1" parent="1">
          <mxGeometry x="175" y="1855" width="100" height="50" as="geometry" />
        </mxCell>
        <mxCell id="RpUNXSWF-gNv1XYwJZ2Y-24" value="&lt;font style=&quot;font-size: 15px;&quot;&gt;Semester Name&lt;/font&gt;" style="text;html=1;align=center;verticalAlign=middle;resizable=0;points=[];autosize=1;strokeColor=none;fillColor=none;" vertex="1" parent="1">
          <mxGeometry x="294.5" y="1844" width="130" height="30" as="geometry" />
        </mxCell>
        <mxCell id="RpUNXSWF-gNv1XYwJZ2Y-25" value="&lt;span style=&quot;font-size: 15px;&quot;&gt;Date Start&lt;/span&gt;" style="text;html=1;align=center;verticalAlign=middle;resizable=0;points=[];autosize=1;strokeColor=none;fillColor=none;" vertex="1" parent="1">
          <mxGeometry x="313" y="1865" width="90" height="30" as="geometry" />
        </mxCell>
        <mxCell id="RpUNXSWF-gNv1XYwJZ2Y-26" value="&lt;span style=&quot;font-size: 15px;&quot;&gt;Date End&lt;/span&gt;" style="text;html=1;align=center;verticalAlign=middle;resizable=0;points=[];autosize=1;strokeColor=none;fillColor=none;" vertex="1" parent="1">
          <mxGeometry x="316.5" y="1885" width="90" height="30" as="geometry" />
        </mxCell>
      </root>
    </mxGraphModel>
  </diagram>
</mxfile>
